SplineFontDB: 3.0
FontName: Neuton-Italic
FullName: Neuton Italic
FamilyName: Neuton
Weight: Italic
Copyright: Copyright (c) 2010, Brian M Zick (http://21326.info/),\nwith Reserved Font Name "Neuton".\n\nThis Font Software is licensed under the SIL Open Font License, Version 1.1.\nThis license is available with a FAQ at: http://scripts.sil.org/OFL
UComments: "2010-5-9: Created." 
Version: 1.4
ItalicAngle: -0
UnderlinePosition: -227
UnderlineWidth: 113
Ascent: 1638
Descent: 410
LayerCount: 3
Layer: 0 0 "Back"  1
Layer: 1 0 "Fore"  0
Layer: 2 0 "Board"  0
XUID: [1021 453 1782528420 15912843]
FSType: 0
OS2Version: 0
OS2_WeightWidthSlopeOnly: 0
OS2_UseTypoMetrics: 1
CreationTime: 1273463161
ModificationTime: 1307463436
PfmFamily: 17
TTFWeight: 500
TTFWidth: 5
LineGap: 191
VLineGap: 191
OS2TypoAscent: 0
OS2TypoAOffset: 1
OS2TypoDescent: 0
OS2TypoDOffset: 1
OS2TypoLinegap: 191
OS2WinAscent: 0
OS2WinAOffset: 1
OS2WinDescent: 0
OS2WinDOffset: 1
HheadAscent: 0
HheadAOffset: 1
HheadDescent: 0
HheadDOffset: 1
OS2Vendor: 'PfEd'
Lookup: 4 0 1 "'liga' Standard Ligatures in Latin lookup 0"  {"'liga' Standard Ligatures in Latin lookup 0-1"  "'liga' Standard Ligatures in Latin lookup 0-2"  } ['liga' ('DFLT' <'dflt' > 'latn' <'dflt' > ) ]
MarkAttachClasses: 1
DEI: 91125
LangName: 1033 
Encoding: UnicodeBmp
Compacted: 1
UnicodeInterp: none
NameList: Adobe Glyph List
DisplaySize: -96
AntiAlias: 1
FitToEm: 1
WinInfo: 40 8 2
BeginPrivate: 2
FamilyBlues 0 
BlueValues 37 [-44 0 1118 1128 1337 1415 1563 1599]
EndPrivate
BeginChars: 65536 386

StartChar: A
Encoding: 65 65 0
Width: 642
VWidth: 0
Flags: W
HStem: 0 49<220.188 234> 255 61<258 437> 743 20G<439.5 453.5>
LayerCount: 3
Fore
SplineSet
467 762 m 5
 579 75 l 5
 644 49 l 5
 634 0 l 5
 376 0 l 5
 387 45 l 5
 477 78 l 5
 448 255 l 5
 233 255 l 5
 155 75 l 5
 245 49 l 5
 234 0 l 5
 5 0 l 5
 15 45 l 5
 87 78 l 5
 389 743 l 5
 404 757 429 763 450 763 c 7
 457 763 462 763 467 762 c 5
258 316 m 5
 437 316 l 5
 390 620 l 5
 258 316 l 5
EndSplineSet
EndChar

StartChar: B
Encoding: 66 66 1
Width: 570
VWidth: 1107
Flags: W
HStem: 0 58<206 389.047> 0 45<23 45.528> 366 51<250 412.24> 687 46<111 133.849> 701 60<284.091 413.565>
VStem: 462.744 98.65<514.842 655.382> 472.343 101.019<164.237 316.377>
DStem2: 111 73 206 58 0.121353 0.992609<0 306.975 358.326 600.575>
LayerCount: 3
Fore
SplineSet
356 366 m 2xa2
 244 366 l 1
 206 58 l 25
 316 58 l 2
 403 58 461 136 471 214 c 0
 471.893 221.443 472.343 228.905 472.343 236.31 c 0
 472.343 303.524 435.267 366 356 366 c 2xa2
435 412 m 1
 435 407 l 1
 527.743 400.635 573.362 328.96 573.362 255.867 c 0
 573.362 248.571 572.908 241.261 572 234 c 0
 558 120 459 0 256 0 c 2xaa
 13 0 l 1
 23 45 l 1
 111 73 l 1
 185 669 l 1
 100 687 l 1
 111 733 l 1x72
 186 746 273 761 362 761 c 3
 504.928 761 561.394 689.649 561.394 607.704 c 0x2c
 561.394 600.209 560.922 592.626 560 585 c 0
 552 522 518 447 435 412 c 1
284 696 m 1
 250 417 l 2
 354 417 l 18
 411 417 451 466 461 551 c 0
 462.12 560.331 462.744 569.663 462.744 578.85 c 0x2c
 462.744 643.502 431.821 701 325 701 c 3
 313 701 298 699 284 696 c 1
EndSplineSet
EndChar

StartChar: C
Encoding: 67 67 2
Width: 558
VWidth: 0
Flags: W
HStem: -15 79<287.117 433.981> 711 58<334.429 497.847>
VStem: 541 39<530 559.836>
LayerCount: 3
Fore
SplineSet
184 399 m 0
 156 167 255 64 375 64 c 3
 433 64 498 89 555 138 c 1
 563 129 570 116 573 101 c 1
 495 22 406 -15 324 -15 c 3
 170 -15 41 115 71 357 c 0
 93 536 215 769 445 769 c 3
 511 769 573 752 616 708 c 1
 580 523 l 1
 541 530 l 1
 539 648 l 1
 520 684 474 711 409 711 c 3
 304 711 208 594 184 399 c 0
EndSplineSet
EndChar

StartChar: D
Encoding: 68 68 3
Width: 666
VWidth: 0
Flags: W
HStem: 0 63<207 396.718> 687 46<111 134.451> 701 62<285.318 455.989>
LayerCount: 3
Fore
SplineSet
285 697 m 5xa0
 207 63 l 5
 313 63 l 6
 478 63 566 207 585 362 c 4
 608 548 535 701 347 701 c 7
 326 701 306 700 285 697 c 5xa0
697 399 m 4
 673 202 515 0 267 0 c 14
 10 0 l 5
 22 45 l 5
 113 78 l 5
 185 669 l 5
 101 687 l 5
 111 733 l 5xc0
 212 752 300 763 373 763 c 7
 655 763 720 586 697 399 c 4
EndSplineSet
EndChar

StartChar: E
Encoding: 69 69 4
Width: 541
VWidth: 0
Flags: W
HStem: 0 58<209 459> 0 45<27 49.272> 355 57<253 384> 698 55<288 524> 707 46<111 125.518>
VStem: 388 44<257 294.114> 526 40<570 592.424>
LayerCount: 3
Fore
SplineSet
111 753 m 5x6e
 611 753 l 5x6e
 572 562 l 5
 529 570 l 5
 524 698 l 5
 288 698 l 5
 253 412 l 5
 399 412 l 5
 429 486 l 5
 477 490 l 5
 432 257 l 5
 388 248 l 5
 384 355 l 5
 246 355 l 5
 209 58 l 29
 459 58 l 5xb6
 526 199 l 5
 566 190 l 5
 527 0 l 5
 17 0 l 5
 27 45 l 5
 114 73 l 5
 189 682 l 5
 100 707 l 5
 111 753 l 5x6e
EndSplineSet
EndChar

StartChar: F
Encoding: 70 70 5
Width: 518
VWidth: 0
Flags: W
HStem: 0 45<27 49.272 298.081 314> 350 56<252 383> 698 55<288 522> 707 46<111 125.518>
VStem: 385 45<250 290.107> 527 43<568 592.092>
LayerCount: 3
Fore
SplineSet
111 753 m 1xdc
 611 753 l 1xdc
 570 558 l 1
 527 568 l 1
 522 698 l 1
 288 698 l 1xec
 252 406 l 1
 396 406 l 1
 427 480 l 1
 472 485 l 1
 430 250 l 1
 385 241 l 1
 383 350 l 1
 245 350 l 1
 210 74 l 17
 327 51 l 25
 314 0 l 25
 17 0 l 1
 27 45 l 1
 114 73 l 1
 189 682 l 1
 100 707 l 1
 111 753 l 1xdc
EndSplineSet
EndChar

StartChar: G
Encoding: 71 71 6
Width: 649
VWidth: 0
Flags: W
HStem: -19 65<303.51 470.721> 254 50<408 432.152> 703 60<344.202 509.242>
VStem: 572 40<497 571.241>
LayerCount: 3
Fore
SplineSet
653 684 m 1
 643 624 627 544 612 486 c 1
 572 497 l 1
 573 614 l 1
 558 646 514 703 423 703 c 3
 324 703 215 632 186 394 c 0
 163 207 236 46 392 46 c 3
 444 46 481 69 494 83 c 1
 512 231 l 1
 396 254 l 1
 408 304 l 1
 688 304 l 1
 677 259 l 9
 611 234 l 25
 590 62 l 17
 534 18 435 -19 324 -19 c 3
 121 -19 46 150 71 352 c 0
 104 619 288 763 455 763 c 3
 552 763 608 728 653 684 c 1
EndSplineSet
EndChar

StartChar: H
Encoding: 72 72 7
Width: 713
VWidth: 0
Flags: W
HStem: 0 45<27 49.272 274.821 289 441 463.016 687.419 703> 357 62<254 562> 707 46<111 125.518 346.886 374 524 538.518 759.886 787>
LayerCount: 3
Fore
SplineSet
289 0 m 1
 17 0 l 1
 27 45 l 1
 114 73 l 1
 189 682 l 1
 100 707 l 1
 111 753 l 1
 385 753 l 1
 374 707 l 1
 287 684 l 1
 254 419 l 1
 570 419 l 1
 602 682 l 1
 513 707 l 1
 524 753 l 1
 798 753 l 1
 787 707 l 1
 700 684 l 1
 625 69 l 1
 714 49 l 1
 703 0 l 1
 429 0 l 1
 441 45 l 1
 527 73 l 1
 562 358 l 1
 247 357 l 1
 211 69 l 1
 302 49 l 1
 289 0 l 1
EndSplineSet
EndChar

StartChar: I
Encoding: 73 73 8
Width: 304
VWidth: 0
Flags: W
HStem: 0 45<27 49.272 272.717 288> 707 46<111 125.518 346.575 374>
LayerCount: 3
Fore
SplineSet
288 0 m 5
 17 0 l 5
 27 45 l 5
 114 73 l 5
 189 682 l 5
 100 707 l 5
 111 753 l 5
 385 753 l 5
 374 707 l 5
 286 684 l 5
 211 69 l 21
 299 49 l 13
 288 0 l 5
EndSplineSet
EndChar

StartChar: J
Encoding: 74 74 9
Width: 297
VWidth: 0
Flags: W
HStem: 707 46<108 123.231 344.263 372>
LayerCount: 3
Fore
SplineSet
-14 -197 m 1
 -23 -183 -30 -163 -35 -144 c 1
 54 -55 104 22 116 119 c 10
 186 682 l 1
 98 707 l 1
 108 753 l 1
 382 753 l 1
 372 707 l 1
 283 684 l 1
 227 233 l 2
 196 -15 144 -83 -14 -197 c 1
EndSplineSet
EndChar

StartChar: K
Encoding: 75 75 10
Width: 618
VWidth: 0
Flags: W
HStem: -13 21G<505 557.5> 0 49<277.636 291> 707 46<351.96 375 650.192 674>
LayerCount: 3
Fore
SplineSet
366 158 m 2xa0
 297 308 l 2
 297 308 275 351 262 366 c 9
 263 381 l 17
 281 396 307 421 326 446 c 2
 503 679 l 1
 425 707 l 1
 435 753 l 1
 685 753 l 1
 674 707 l 1
 581 679 l 1
 359 396 l 1
 454 233 l 2
 516 124 546 74 607 50 c 2
 625 43 l 1
 614 1 l 17
 590 -9 568 -13 547 -13 c 3
 463 -13 410 62 366 158 c 2xa0
211 75 m 17
 303 49 l 1
 291 0 l 1
 13 0 l 1x60
 24 45 l 1
 114 78 l 1
 188 677 l 1
 97 707 l 1
 109 753 l 1
 385 753 l 1
 375 707 l 1
 285 679 l 9
 211 75 l 17
EndSplineSet
EndChar

StartChar: L
Encoding: 76 76 11
Width: 536
VWidth: 0
Flags: W
HStem: 0 58<213 435> 0 45<30 52.272> 707 46<355.96 379>
LayerCount: 3
Fore
SplineSet
389 753 m 21x60
 379 707 l 5
 289 679 l 5
 213 58 l 29
 435 58 l 5xa0
 519 211 l 5
 561 200 l 5
 517 0 l 5
 20 0 l 5
 30 45 l 5
 117 73 l 5
 191 677 l 5
 100 707 l 5
 113 753 l 5
 389 753 l 21x60
EndSplineSet
EndChar

StartChar: M
Encoding: 77 77 12
Width: 837
VWidth: 0
Flags: W
HStem: 0 45<19 41.016 233.821 248 573 595.016 815.419 831> 707 46<139 152.518 861.886 889>
LayerCount: 3
Fore
SplineSet
388 18 m 24,0,-1
216 682 m 9,1,-1
 127 707 l 1,2,-1
 139 753 l 1,3,-1
 340 753 l 1,4,-1
 365 636 l 25,5,-1
 441 187 l 1,6,-1
 655 656 l 25,7,-1
 701 753 l 9,8,-1
 900 753 l 17,9,-1
 889 707 l 1,10,-1
 802 684 l 1,11,-1
 753 69 l 17,12,-1
 842 49 l 9,13,-1
 831 0 l 1,14,-1
 562 0 l 1,15,-1
 573 45 l 1,16,-1
 659 73 l 1,17,-1
 697 608 l 1,18,-1
 434 31 l 1,19,-1
 417 21 403 18 388 18 c 3,22,-1
 383 18 376 18 369 19 c 1,25,-1
 266 585 l 1,26,-1
 170 69 l 1,27,-1
 261 49 l 1,28,-1
 248 0 l 1,29,-1
 7 0 l 1,30,-1
 19 45 l 1,31,-1
 105 73 l 1,32,-1
 216 682 l 9,1,-1
EndSplineSet
EndChar

StartChar: N
Encoding: 78 78 13
Width: 673
VWidth: 0
Flags: W
HStem: -8 21G<485.39 523> 0 45<27 49.272 240.12 256> 707 46<524 537.805 723.198 750>
LayerCount: 3
Fore
SplineSet
100 707 m 1x60
 111 753 l 1
 288 753 l 1
 539 165 l 1
 602 682 l 1
 512 707 l 1
 524 753 l 1
 763 753 l 1
 750 707 l 1
 664 684 l 1
 581 11 l 1
 567 -2 540 -8 506 -8 c 0
 503 -8 498 -8 494 -8 c 1xa0
 240 582 l 5
 177 69 l 5
 267 49 l 1
 256 0 l 1
 17 0 l 1
 27 45 l 1
 114 73 l 5
 188 677 l 5
 100 707 l 1x60
EndSplineSet
EndChar

StartChar: O
Encoding: 79 79 14
Width: 674
VWidth: 0
Flags: W
HStem: -16 64<274.523 441.467> 712 59<329.656 495.785>
LayerCount: 3
Fore
SplineSet
422 712 m 3
 271 712 208 568 189 410 c 0
 167 232 198 48 354 48 c 3
 507 48 570 198 588 347 c 24
 609 521 566 712 422 712 c 3
702 375 m 0
 676 166 531 -16 322 -16 c 3
 149 -16 46 156 73 375 c 0
 102 608 253 771 453 771 c 3
 635 771 728 587 702 375 c 0
EndSplineSet
EndChar

StartChar: P
Encoding: 80 80 15
Width: 507
VWidth: 0
Flags: W
HStem: 0 45<23 45.528 295.328 311> 297 55<267.615 387.672> 687 46<111 133.849> 701 59<284.713 420.017>
LayerCount: 3
Fore
SplineSet
579 540 m 0xd0
 561 396 448 297 326 297 c 3
 308 297 288 298 268 301 c 1
 266 316 263 328 266 352 c 1
 275 351 284 352 292 352 c 0
 400 352 459 410 472 518 c 0
 485 621 448 701 338 701 c 3xd0
 317 701 284 697 284 697 c 1
 208 74 l 9
 324 51 l 25
 311 0 l 17
 13 0 l 1
 23 45 l 1
 111 73 l 1
 185 669 l 1
 100 687 l 1
 111 733 l 1xe0
 177 745 269 760 354 760 c 3
 485 760 601 717 579 540 c 0xd0
EndSplineSet
EndChar

StartChar: Q
Encoding: 81 81 16
Width: 675
VWidth: 0
Flags: W
HStem: -233 66<533.488 599.41> -16 21G<235.5 325.5> 707 64<343.479 494.171>
LayerCount: 3
Fore
SplineSet
424 707 m 3
 298 707 209 600 186 412 c 0
 168 267 196 54 385 41 c 1
 525 82 577 204 594 341 c 0
 616 519 557 707 424 707 c 3
355 -13 m 1
 350 -15 329 -16 322 -16 c 0
 149 -16 52 149 79 368 c 0
 108 602 261 771 460 771 c 3
 639 771 729 593 703 381 c 0
 681 203 572 41 414 -4 c 1
 434 -86 471 -138 612 -167 c 1
 610 -182 606 -201 601 -212 c 1
 567 -230 538 -233 510 -233 c 3
 419 -233 347 -151 355 -13 c 1
EndSplineSet
EndChar

StartChar: R
Encoding: 82 82 17
Width: 611
VWidth: 0
Flags: W
HStem: -13 21G<503 552.5> 0 45<23 45.528 277.958 288> 325 55<245 326> 685 46<111 133.451> 699 60<283.507 417.831>
LayerCount: 3
Fore
SplineSet
572 567 m 4x28
 562 489 503 404 403 363 c 5
 403 362 l 5
 475 211 l 6
 522 113 543 70 602 47 c 14
 618 41 l 29
 605 -1 l 21
 582 -10 562 -13 543 -13 c 7xa8
 463 -13 417 59 385 153 c 6
 326 325 l 13
 239 325 l 5
 208 76 l 29
 299 50 l 29
 288 0 l 21
 13 0 l 5
 23 45 l 5
 111 73 l 5
 184 667 l 5
 100 685 l 5
 111 731 l 5x70
 187 745 269 759 344 759 c 7
 493 759 589 708 572 567 c 4x28
328 380 m 22
 388 380 453 447 464 533 c 4
 476 632 434 699 345 699 c 7
 309 699 284 695 284 695 c 5
 245 380 l 5
 328 380 l 22
EndSplineSet
EndChar

StartChar: S
Encoding: 83 83 18
Width: 449
VWidth: 0
Flags: W
HStem: -15 62<146.632 290.055> 717 52<243.458 362.582>
VStem: 60 41<191.338 228> 398 37<544 619.59>
LayerCount: 3
Back
SplineSet
400.51 172.938 m 4
 400.51 297.762 43.7529 320.334 43.7529 544.787 c 4
 43.7529 642.184 125.929 765.702 287.209 765.702 c 4
 419.538 765.702 478.524 691.375 478.524 632.604 c 4
 478.524 595.682 439.473 556.22 385.53 549.475 c 5
 364.963 624.053 321.396 704.151 247.418 704.151 c 4
 183.56 704.151 146.468 651.923 146.468 595.556 c 4
 146.468 445.021 511.457 430.018 511.457 208.613 c 4
 511.457 84.1904 383.371 -12.3018 259.767 -12.3018 c 4
 110.125 -12.3018 24.543 61.0078 24.543 133.146 c 4
 24.543 185.818 80.6787 218.342 125.675 223.895 c 5
 153.755 110.635 222.282 60.2246 285.838 60.2246 c 4
 348.733 60.2246 400.51 99.9082 400.51 172.938 c 4
EndSplineSet
Fore
SplineSet
435 534 m 25
 398 544 l 25
 387 660 l 17
 381 685 346 717 309 717 c 3
 258 717 207 682 197 603 c 0
 176 429 483 442 455 214 c 0
 438 75 314 -15 198 -15 c 27
 124 -15 55 25 34 74 c 9
 60 236 l 17
 101 228 l 1
 112 113 l 1
 125 74 168 47 217 47 c 3
 270 47 347 84 358 174 c 0
 377 331 77 330 105 555 c 0
 122 692 233 769 332 769 c 3
 376 769 427 753 465 708 c 1
 464 703 435 534 435 534 c 25
EndSplineSet
Layer: 2
SplineSet
454 536 m 29xea
 407 546 l 29
 377 662 l 21
 373 676 321 717 268 717 c 7
 207 717 165 686 165 607 c 7xea
 165 433 515 419 515 214 c 31
 515 72 380 -15 238 -15 c 31
 150 -15 79 18 31 74 c 13
 39 236 l 21
 89 228 l 5
 120 113 l 5
 148 73 199 45 247 45 c 7
 311 45 401 73 401 176 c 7xf4
 401 306 53 334 53 563 c 7
 53 705 167 769 286 769 c 7
 339 769 409 755 464 706 c 5
 464 701 454 536 454 536 c 29xea
EndSplineSet
EndChar

StartChar: T
Encoding: 84 84 19
Width: 563
VWidth: 0
Flags: W
HStem: 0 45<150 172.528 397.821 412> 698 55<167 315 411 564>
VStem: 77 45<558.044 576.097> 568 45<558 583.006>
LayerCount: 3
Fore
SplineSet
97 753 m 17
 656 753 l 1
 613 549 l 1
 568 558 l 1
 564 698 l 1
 411 698 l 1
 334 69 l 1
 425 49 l 1
 412 0 l 1
 141 0 l 1
 150 45 l 1
 238 73 l 1
 315 698 l 1
 167 698 l 1
 122 553 l 1
 77 559 l 1
 97 753 l 17
EndSplineSet
EndChar

StartChar: U
Encoding: 85 85 20
Width: 688
VWidth: 0
Flags: W
HStem: -16 72<292.703 454.216> 707 46<104 116.805 337.886 365 539 554.231 742.198 769>
LayerCount: 3
Fore
SplineSet
376 56 m 3
 527 56 556 197 568 291 c 2
 617 682 l 1
 529 707 l 1
 539 753 l 1
 781 753 l 1
 769 707 l 1
 683 684 l 1
 633 302 l 2
 604 69 489 -16 335 -16 c 3
 240 -16 101 29 132 284 c 10
 181 682 l 1
 91 707 l 1
 104 753 l 1
 376 753 l 1
 365 707 l 1
 278 684 l 1
 231 299 l 2
 210 126 273 56 376 56 c 3
EndSplineSet
EndChar

StartChar: V
Encoding: 86 86 21
Width: 644
VWidth: 0
Flags: W
HStem: -9 21G<277.382 309.5> 707 46<327.886 355 506 521.518>
LayerCount: 3
Back
SplineSet
345 -9 m 5
 89 682 l 5
 -3 707 l 5
 3 753 l 5
 328 753 l 5
 322 707 l 5
 220 684 l 5
 419 153 l 5
 611 682 l 5
 500 707 l 5
 505 753 l 5
 785 753 l 5
 780 707 l 5
 697 684 l 5
 439 9 l 5
 414 -4 390 -9 365 -9 c 4
 359 -9 351 -9 345 -9 c 5
EndSplineSet
Fore
SplineSet
281 -9 m 1
 156 682 l 1
 91 707 l 1
 102 753 l 1
 366 753 l 1
 355 707 l 1
 268 684 l 1
 360 158 l 1
 585 682 l 1
 496 707 l 1
 506 753 l 1
 733 753 l 1
 723 707 l 1
 657 684 l 1
 360 9 l 1
 338 -4 320 -9 299 -9 c 0
 294 -9 286 -9 281 -9 c 1
EndSplineSet
EndChar

StartChar: W
Encoding: 87 87 22
Width: 927
VWidth: 0
Flags: W
HStem: -9 21G<235.685 264.5 592.066 619.5> 707 46<319.886 347 790 804.231>
LayerCount: 3
Fore
SplineSet
621 732 m 1
 673 174 l 1
 867 682 l 1
 779 707 l 1
 790 753 l 1
 1016 753 l 1
 1004 707 l 1
 940 684 l 1
 674 9 l 1
 652 -4 630 -9 609 -9 c 0
 604 -9 599 -9 594 -9 c 1
 538 570 l 1
 321 9 l 1
 299 -4 275 -9 254 -9 c 0
 249 -9 243 -9 238 -9 c 1
 158 682 l 1
 91 707 l 1
 101 753 l 1
 359 753 l 1
 347 707 l 1
 260 684 l 1
 318 165 l 1
 531 717 l 1
 554 730 580 734 604 734 c 3
 609 734 617 733 621 732 c 1
EndSplineSet
EndChar

StartChar: X
Encoding: 88 88 23
Width: 605
VWidth: 0
Flags: W
HStem: 0 49<228.902 232 348 359.484> 707 46<346.96 370 462 476.805>
LayerCount: 3
Fore
SplineSet
407 394 m 1
 539 69 l 1
 607 49 l 1
 594 0 l 1
 336 0 l 1
 348 45 l 1
 435 73 l 1
 333 316 l 1
 154 69 l 1
 243 49 l 1
 232 0 l 1
 5 0 l 1
 17 45 l 1
 81 73 l 1
 301 368 l 1
 168 677 l 1
 105 707 l 1
 117 753 l 1
 382 753 l 1
 370 707 l 1
 280 679 l 1
 377 450 l 1
 541 682 l 1
 451 707 l 1
 462 753 l 1
 690 753 l 1
 680 707 l 1
 613 684 l 1
 407 394 l 1
EndSplineSet
EndChar

StartChar: Y
Encoding: 89 89 24
Width: 610
VWidth: 0
Flags: W
HStem: 0 49<420.328 438> 707 46<334.133 360 471 485.518>
LayerCount: 3
Fore
SplineSet
400 320 m 1
 369 69 l 1
 449 49 l 1
 438 0 l 1
 183 0 l 1
 194 45 l 1
 273 73 l 1
 301 306 l 1
 170 682 l 1
 104 707 l 1
 116 753 l 1
 371 753 l 1
 360 707 l 1
 277 684 l 1
 380 388 l 1
 549 682 l 1
 460 707 l 1
 471 753 l 1
 694 753 l 1
 683 707 l 1
 618 684 l 1
 400 320 l 1
EndSplineSet
EndChar

StartChar: Z
Encoding: 90 90 25
Width: 507
VWidth: 0
Flags: W
HStem: 0 61<120 408> 696 57<195 464>
LayerCount: 3
Fore
SplineSet
123 753 m 25
 589 753 l 25
 584 707 l 17
 120 61 l 9
 408 61 l 25
 491 206 l 25
 532 196 l 17
 479 0 l 9
 9 0 l 25
 12 63 l 17
 464 696 l 9
 195 696 l 25
 137 547 l 25
 94 558 l 17
 95 563 123 753 123 753 c 25
EndSplineSet
EndChar

StartChar: a
Encoding: 97 97 26
Width: 842
VWidth: 0
Flags: W
HStem: -21 127<220.405 419.634> 781 104<417.17 621.084>
VStem: 83 161<141.713 521.12>
DStem2: 537 201 722 378 0.155869 0.987778<-58.0679 568.796>
LayerCount: 3
Back
SplineSet
929.589 120.349 m 14
 1012.59 105.823 l 22
 989.764 18.6748 l 5
 946.189 2.0752 881.863 -20.75 813.391 -20.75 c 31
 734.541 -20.75 655.692 16.5996 663.991 118.273 c 14
 668.143 165.997 l 5
 653.617 165.997 l 5
 595.518 62.249 483.469 -26.9746 356.896 -26.9746 c 7
 203.348 -26.9746 109.975 93.374 105.823 323.695 c 4
 97.5234 821.689 466.869 1112.19 744.915 1112.19 c 7
 825.841 1112.19 919.214 1105.96 979.388 1068.61 c 5
 998.062 1045.79 l 5
 906.765 475.169 l 6
 863.189 192.973 854.89 132.799 929.589 120.349 c 14
782.265 937.889 m 5
 746.991 971.088 690.967 981.463 632.867 981.463 c 7
 431.595 981.463 305.021 666.066 311.247 404.619 c 4
 313.321 217.872 358.971 132.799 458.569 132.799 c 7
 554.019 132.799 616.268 188.822 674.367 253.147 c 5
 782.265 937.889 l 5
EndSplineSet
Fore
SplineSet
740 96 m 10
 806 84 l 18
 788 15 l 1
 753 2 703 -17 647 -17 c 27
 584 -17 521 13 528 94 c 10
 532 132 l 1
 520 132 l 1
 474 49 385 -21 284 -21 c 3
 162 -21 83 91 83 274 c 0
 83 667 372 885 593 885 c 3
 657 885 731 881 779 851 c 1
 794 832 l 1
 722 378 l 2
 687 153 681 106 740 96 c 10
623 746 m 1
 595 772 550 781 504 781 c 3
 344 781 244 533 244 320 c 0
 244 171 286 106 365 106 c 3
 441 106 491 150 537 201 c 1
 623 746 l 1
EndSplineSet
EndChar

StartChar: b
Encoding: 98 98 27
Width: 914
VWidth: 0
Flags: W
HStem: -23 112<295.355 546.118> 748 142<494.741 696.638> 1149 76<155 228.523>
VStem: 689 168<309.124 678.741>
DStem2: 107 50 277 155 0.157847 0.987464<100.888 694.489 703.511 1089.66>
LayerCount: 3
Back
SplineSet
960.713 120.349 m 14
 1043.71 105.823 l 21
 1020.89 18.6748 l 5
 977.312 2.0752 912.989 -20.75 844.516 -20.75 c 7
 734.541 -20.75 682.666 33.2002 697.191 163.923 c 5
 684.741 163.923 l 5
 649.468 97.5234 520.818 -24.8994 354.821 -24.8994 c 7
 230.322 -24.8994 126.573 39.4248 172.224 331.996 c 14
 263.521 937.889 l 5
 99.5986 966.938 l 5
 112.049 1060.31 l 5
 466.869 1091.44 l 5
 491.77 1062.39 l 13
 392.171 471.02 l 22
 354.821 246.922 358.971 147.322 473.095 147.322 c 7
 589.293 147.322 657.767 209.573 699.267 251.072 c 13
 803.015 937.889 l 5
 634.942 966.938 l 5
 647.393 1060.31 l 5
 1006.36 1091.44 l 5
 1031.26 1062.39 l 5
 935.813 464.794 l 6
 888.09 165.997 902.613 130.724 960.713 120.349 c 14
EndSplineSet
Fore
SplineSet
279 1126 m 17
 145 1149 l 1
 155 1225 l 1
 428 1250 l 1
 448 1227 l 1
 386 842 l 1
 360 722 l 1
 372 722 l 1
 425 813 536 890 628 890 c 3
 765 890 857 720 857 535 c 0
 857 228 636 -23 339 -23 c 19
 266 -23 163 -1 107 50 c 9
 279 1126 l 17
689 505 m 0
 689 604 642 748 548 748 c 3
 460 748 411 711 363 666 c 9
 277 155 l 17
 303 114 367 89 438 89 c 3
 529 89 689 178 689 505 c 0
EndSplineSet
EndChar

StartChar: c
Encoding: 99 99 28
Width: 677
VWidth: 0
Flags: W
HStem: -30 122<285.072 478.438> 806 94<374.148 564.387>
VStem: 59 172<147.9 544.668> 538 139<705.138 789.938>
LayerCount: 3
Back
SplineSet
481.394 116.199 m 3
 585.143 116.199 649.468 153.549 711.717 197.123 c 1
 740.766 132.799 l 1
 663.991 37.3496 527.043 -37.3496 404.619 -37.3496 c 3
 201.272 -37.3496 76.7744 116.199 72.625 377.646 c 0
 64.3242 838.289 423.295 1130.86 639.092 1130.86 c 3
 773.966 1130.86 848.665 1058.24 850.74 950.339 c 0
 852.814 873.564 769.816 815.465 676.441 807.166 c 1
 670.217 892.239 647.393 1012.59 576.843 1012.59 c 3
 454.42 1012.59 286.346 771.891 292.572 406.694 c 0
 294.646 232.397 346.521 116.199 481.394 116.199 c 3
EndSplineSet
Fore
SplineSet
383 92 m 3
 466 92 516 122 566 157 c 1
 590 106 l 1
 529 30 419 -30 322 -30 c 3
 160 -30 59 92 59 307 c 0
 59 674 337 900 509 900 c 3
 616 900 677 842 677 756 c 27
 677 687 612 649 538 642 c 1
 533 710 515 806 459 806 c 3
 362 806 231 621 231 330 c 0
 231 191 276 92 383 92 c 3
EndSplineSet
EndChar

StartChar: d
Encoding: 100 100 29
Width: 809
VWidth: 0
Flags: W
HStem: -21 127<196.726 393.535> 781 104<386.66 594.896> 1166 73<537 601.194>
VStem: 59 162<142.901 506.804>
DStem2: 507 132 697 380 0.153956 0.988078<17.8776 635.664 756.877 1020.15>
LayerCount: 3
Fore
SplineSet
713 97 m 10
 779 86 l 17
 760 17 l 1
 727 4 677 -15 621 -15 c 3
 535 -15 504 26 502 74 c 0
 502 97 505 120 507 132 c 1
 494 132 l 1
 448 49 359 -21 258 -21 c 3
 136 -21 59 61 59 271 c 0
 59 634 335 885 553 885 c 3
 578 885 602 886 623 879 c 1
 629 879 l 9
 664 1140 l 25
 524 1166 l 25
 537 1239 l 17
 811 1263 l 1
 831 1240 l 1
 697 380 l 18
 659 132 659 107 713 97 c 10
509 201 m 9
 596 745 l 17
 571 766 538 781 479 781 c 3
 319 781 221 538 221 330 c 0
 221 168 266 106 345 106 c 3
 423 106 464 150 509 201 c 9
EndSplineSet
EndChar

StartChar: e
Encoding: 101 101 30
Width: 680
VWidth: 0
Flags: W
HStem: -30 132<278.488 475.632> 798 92<340.21 536.023>
VStem: 58 160<169.343 437.663> 509 152<534.687 778.672>
DStem2: 235 512 225 439 0.9976 0.0692421<0 265.279>
LayerCount: 3
Back
SplineSet
294.646 643.242 m 1
 607.968 670.217 l 1
 630.793 715.866 639.092 759.44 639.092 819.615 c 0
 637.018 902.613 603.817 1002.21 533.269 1002.21 c 3
 446.119 1002.21 348.597 904.689 294.646 643.242 c 1
74.6992 381.795 m 0
 74.6992 776.04 327.846 1118.41 607.968 1118.41 c 3
 738.69 1118.41 827.493 1004.29 829.796 875.64 c 0
 831.96 755.291 816.189 668.143 771.737 585.143 c 1
 282.932 551.943 l 1
 277.527 516.669 273.896 442.018 273.896 410.846 c 0
 273.896 224.097 359.166 128.647 502.338 128.647 c 3
 568.736 128.647 709.976 190.898 740.133 222.022 c 1
 773.413 165.997 l 1
 716.36 78.8486 556.094 -37.3496 384.379 -37.3496 c 27
 180.522 -37.3496 74.6992 103.719 74.6992 381.795 c 0
EndSplineSet
Fore
SplineSet
235 512 m 5
 484 533 l 5
 502 569 509 604 509 652 c 4
 507 718 480 798 424 798 c 7
 355 798 278 720 235 512 c 5
58 289 m 4
 51 608 261 890 484 890 c 7
 588 890 659 799 661 697 c 4
 663 601 649 532 614 466 c 5
 225 439 l 5
 220 411 218 349 218 324 c 4
 221 175 286 102 400 102 c 7
 453 102 565 152 590 177 c 5
 616 132 l 5
 571 63 443 -30 306 -30 c 31
 149 -30 61 68 58 289 c 4
EndSplineSet
EndChar

StartChar: f
Encoding: 102 102 31
Width: 563
VWidth: 0
Flags: W
HStem: 2 74<20 73.8686 419.64 492> 784 90<423 585> 784 68<147 194.388> 1159 127<494.51 666.328>
DStem2: 144 109 302 109 0.156262 0.987716<24.6894 683.116 799.2 985.143>
LayerCount: 3
Back
SplineSet
871.489 1344.58 m 5
 854.441 1390.23 778.097 1456.63 699.248 1456.63 c 7
 595.499 1456.63 559.426 1317.61 540.766 1201.41 c 6
 524.619 1097.66 l 5
 759.092 1097.66 l 5
 728.129 985.613 l 5xd8
 508.182 985.613 l 5
 373.008 132.799 l 5
 593.75 93.374 l 5
 571.181 2.0752 l 5
 -2.5752 2.0752 l 5
 19.167 95.4492 l 5
 174.298 136.948 l 5
 306.909 985.613 l 5
 157.512 985.613 l 5
 179.216 1070.69 l 5xb8
 328.166 1116.34 l 5
 381.795 1386.08 593.345 1616.41 790.01 1616.41 c 7
 829.327 1616.41 873.375 1606.47 912.989 1593.56 c 4
 964.375 1576.81 1001 1529.99 1001 1477.38 c 7
 1001 1432.27 961.531 1382.9 871.489 1344.58 c 5
EndSplineSet
Fore
SplineSet
801 1173 m 20xb0
 801 1137 775 1090 699 1070 c 5
 686 1106 625 1159 562 1159 c 7
 479 1159 451 1048 436 956 c 6
 423 874 l 5
 609 874 l 5
 585 784 l 5xd0
 410 784 l 5
 302 109 l 5
 510 79 l 5
 492 2 l 5
 3 2 l 5
 20 76 l 5
 144 109 l 5
 249 784 l 5
 130 784 l 5
 147 852 l 5
 266 888 l 5
 309 1103 477 1286 634 1286 c 7
 736 1286 801 1252 801 1173 c 20xb0
EndSplineSet
EndChar

StartChar: g
Encoding: 103 103 32
Width: 810
VWidth: 0
Flags: W
HStem: -386 107<159.755 440.006> 3 147<228.141 533.201> 302 78<332.841 482.299> 822 75<380.459 532.593>
VStem: -58 187<-246.848 -86.6852> 58 170<115.5 223.887> 129 165<412.148 698.173> 548 179<-150.151 54> 562 148<487.803 745.127>
LayerCount: 3
Back
SplineSet
369.346 686.817 m 4
 371.421 562.317 429.521 477.244 504.219 477.244 c 7
 616.268 477.244 707.566 622.492 705.492 834.14 c 4
 703.416 958.638 659.842 1033.34 589.293 1033.34 c 7
 464.794 1033.34 365.195 877.714 369.346 686.817 c 4
493.844 188.822 m 6
 603.817 188.822 l 6
 786.416 188.822 912.989 141.099 915.063 0 c 4
 919.214 -278.047 549.869 -485.544 296.722 -485.544 c 7
 112.049 -485.544 -70.5498 -419.145 -72.625 -253.147 c 4
 -74.6992 -107.898 80.9238 -16.5996 170.148 22.8242 c 5
 170.148 33.2002 l 5
 97.5234 70.5498 74.6992 107.898 72.625 182.598 c 4
 72.625 257.297 219.947 373.496 319.546 410.846 c 5
 321.621 421.22 l 5
 259.372 437.819 165.997 551.943 163.923 684.741 c 4
 159.773 912.989 417.07 1126.71 630.793 1126.71 c 7
 724.166 1126.71 786.416 1093.51 827.915 1047.86 c 5
 844.516 1047.86 1093.51 1066.54 1093.51 1066.54 c 5
 1114.26 1037.49 l 5
 1045.79 898.464 l 5
 1025.04 898.464 l 5
 875.64 948.264 l 5
 873.564 927.514 l 5
 883.938 892.239 890.164 869.415 892.239 805.09 c 4
 896.389 568.544 643.242 379.721 456.494 379.721 c 7
 417.07 379.721 381.795 388.021 369.346 392.171 c 5
 338.221 361.045 286.346 317.471 288.422 253.147 c 4
 288.422 199.197 346.521 188.822 493.844 188.822 c 6
251.072 4.14941 m 5
 251.072 4.14941 159.773 -37.3496 161.848 -186.747 c 4
 163.923 -307.096 244.847 -350.671 375.57 -350.671 c 7
 556.094 -350.671 688.892 -257.297 686.817 -97.5234 c 4
 684.741 -14.5254 616.268 4.14941 425.369 4.14941 c 6
 251.072 4.14941 l 5
EndSplineSet
Fore
SplineSet
294 552 m 0xf280
 294 453 342 380 401 380 c 3
 490 380 562 493 562 661 c 0
 562 763 525 822 469 822 c 3
 370 822 294 704 294 552 c 0xf280
393 150 m 2
 481 150 l 2
 626 150 727 110 727 -2 c 0
 727 -228 437 -386 236 -386 c 3
 89 -386 -56 -333 -58 -201 c 0xf9
 -60 -85 64 -13 135 18 c 1
 135 26 l 1
 77 56 60 86 58 145 c 0xf4
 58 204 175 297 254 327 c 1
 256 335 l 1
 206 348 129 444 129 550 c 0
 129 735 332 897 502 897 c 3
 576 897 626 870 659 834 c 1
 672 834 870 849 870 849 c 1
 887 826 l 1
 832 715 l 1
 816 715 l 1
 697 755 l 1
 695 738 l 1
 703 710 710 682 710 631 c 0
 710 449 512 302 363 302 c 3
 332 302 304 309 294 312 c 1xf280
 269 287 228 251 228 198 c 0xf4
 228 155 276 150 393 150 c 2
200 3 m 1
 200 3 127 -30 129 -149 c 0
 131 -245 195 -279 299 -279 c 3
 443 -279 548 -203 548 -76 c 0
 548 -20 491 3 339 3 c 2
 200 3 l 1
EndSplineSet
EndChar

StartChar: h
Encoding: 104 104 33
Width: 903
VWidth: 0
Flags: W
HStem: 0 74<25 66.2218 376.607 408 814.938 846> 745 148<543.354 745.5> 1149 76<185 256.523>
DStem2: 145 107 304 102 0.155421 0.987848<19.7728 636.31 645.76 1031.8> 575 0 743 101 0.157991 0.987441<126.274 714.191>
LayerCount: 3
Back
SplineSet
622.492 0 m 25
 622.397 659.842 l 18
 622.492 724.166 616.43 776.04 613.118 803.015 c 0
 602.672 888.09 540.532 937.889 499.033 937.889 c 3
 380.76 937.889 311.374 877.714 271.332 832.065 c 9
 272.354 130.724 l 1
 432.946 91.2998 l 1
 424.469 0 l 1
 -87.0381 0 l 1
 -75.9326 95.4492 l 1
 68.4736 136.948 l 9
 71.0898 1415.13 l 17
 -100.55 1444.18 l 1
 -101.895 1539.63 l 1xb4
 234.58 1570.76 l 1
 265.121 1541.71 l 1x2c
 267.952 1062.39 l 1
 258.009 906.765 l 1
 272.534 906.765 l 1
 327.466 1000.14 436.934 1122.56 594.632 1122.56 c 3
 708.756 1122.56 787.713 1054.09 806.058 904.689 c 0
 810.391 869.415 815.465 815.465 814.317 769.816 c 10
 812.354 126.573 l 9
 974.383 91.2998 l 17
 962.77 0 l 9
 622.492 0 l 25
EndSplineSet
Fore
SplineSet
826 613 m 10
 743 101 l 9
 867 73 l 17
 846 0 l 9
 575 0 l 25
 659 525 l 18
 680 662 663 745 580 745 c 3
 486 745 431 698 393 662 c 9
 304 102 l 1
 426 71 l 1
 408 0 l 1
 3 0 l 1
 25 74 l 1
 145 107 l 9
 307 1126 l 17
 173 1149 l 1
 185 1225 l 1
 459 1250 l 1
 481 1227 l 1
 419 846 l 1
 391 722 l 1
 403 722 l 1
 459 796 566 893 687 893 c 3
 804 893 857 811 826 613 c 10
EndSplineSet
Layer: 2
SplineSet
614.192 0 m 29
 618.736 659.842 l 18
 618.343 724.166 612.77 776.04 609.459 803.015 c 0
 599.014 888.09 536.872 937.889 495.373 937.889 c 3xa8
 377.1 937.889 307.717 877.714 267.671 832.065 c 1
 268.583 130.724 l 1
 429.176 91.2998 l 1
 420.699 0 l 1
 -92.8838 0 l 1
 -81.7793 95.4492 l 1
 62.6279 136.948 l 1
 58.3203 931.664 l 1
 -110.991 958.638 l 1
 -111.278 1062.39 l 1
 237.645 1093.51 l 1
 268.187 1064.46 l 9
 254.349 906.765 l 17x18
 268.874 906.765 l 1
 323.809 1000.14 433.276 1122.56 590.973 1122.56 c 3
 705.097 1122.56 784.052 1054.09 802.396 904.689 c 0
 806.729 869.415 811.315 815.465 810.659 769.816 c 10
 812.354 126.573 l 13
 974.383 91.2998 l 21
 962.77 0 l 13x68
 614.192 0 l 29
EndSplineSet
EndChar

StartChar: i
Encoding: 105 105 34
Width: 473
VWidth: 0
Flags: W
HStem: -2 75<21 66.9796 374.402 411> 768 76<124 198.713> 1077 224<305.979 467.258>
VStem: 274 221<1104.85 1269.01>
DStem2: 144 106 302 102 0.154053 0.988063<20.3881 647.765>
LayerCount: 3
Back
SplineSet
176.373 134.874 m 13
 302.946 939.963 l 21
 139.023 966.938 l 5
 151.474 1062.39 l 5
 495.919 1093.51 l 5
 520.818 1064.46 l 5
 375.57 130.724 l 21
 533.269 91.2998 l 5
 512.52 0 l 5
 0 0 l 5
 22.8242 93.374 l 5
 176.373 134.874 l 13
504.219 1637.15 m 31
 568.544 1637.15 616.268 1583.21 618.343 1520.96 c 4
 620.417 1419.28 551.943 1354.96 462.719 1354.96 c 23
 400.47 1354.96 346.521 1415.13 344.445 1475.31 c 4
 342.37 1566.61 414.995 1637.15 504.219 1637.15 c 31
EndSplineSet
Fore
SplineSet
144 106 m 9
 244 746 l 17
 114 768 l 1
 124 844 l 1
 398 869 l 1
 418 846 l 1
 302 102 l 17
 428 71 l 1
 411 -2 l 1
 3 -2 l 1
 21 73 l 1
 144 106 l 9
405 1301 m 31
 456 1301 495 1254 495 1204 c 4
 495 1128 441 1077 372 1077 c 23
 322 1077 274 1128 274 1174 c 4
 274 1247 334 1301 405 1301 c 31
EndSplineSet
EndChar

StartChar: j
Encoding: 106 106 35
Width: 450
VWidth: 0
Flags: W
HStem: 770 76<89 165.016> 1067 236<275.004 437.391>
VStem: 238 231<1098.88 1267.14>
DStem2: 109 99 264 86 0.157029 0.987594<-212.968 656.965>
LayerCount: 3
Back
SplineSet
180.522 134.874 m 13
 307.096 939.963 l 21
 143.173 966.938 l 5
 155.623 1062.39 l 5
 500.068 1093.51 l 5
 524.968 1064.46 l 5
 379.721 130.724 l 21
 537.418 91.2998 l 5
 516.669 0 l 5
 4.14941 0 l 5
 26.9746 93.374 l 5
 180.522 134.874 l 13
508.369 1637.15 m 31
 572.693 1637.15 622.492 1577.02 622.492 1514.73 c 4
 622.492 1419.28 554.019 1354.96 466.869 1354.96 c 23
 404.619 1354.96 344.445 1419.28 344.445 1477.38 c 4
 344.445 1568.71 419.145 1637.15 508.369 1637.15 c 31
EndSplineSet
Fore
SplineSet
372 1303 m 27
 426 1303 469 1253 469 1202 c 0
 469 1123 412 1067 339 1067 c 19
 286 1067 238 1118 238 1169 c 0
 238 1240 298 1303 372 1303 c 27
-149 -307 m 1
 0 -198 84 -69 109 99 c 10
 211 748 l 17
 79 770 l 1
 89 846 l 1
 363 870 l 1
 385 847 l 1
 264 86 l 18
 219 -196 5 -336 -99 -386 c 1
 -149 -307 l 1
EndSplineSet
EndChar

StartChar: l
Encoding: 108 108 36
Width: 457
VWidth: 0
Flags: W
HStem: 0 74<21 70.7069 372.544 411> 1148 76<185 259.668>
VStem: 3 476
DStem2: 144 107 302 104 0.155963 0.987763<21.6788 1031.8>
LayerCount: 3
Fore
SplineSet
144 107 m 9
 306 1126 l 17
 173 1148 l 1
 185 1224 l 1
 457 1249 l 1
 479 1225 l 1
 302 104 l 17
 429 73 l 1
 411 0 l 1
 3 0 l 1
 21 74 l 1
 144 107 l 9
EndSplineSet
Layer: 2
SplineSet
83.9561 134.874 m 13
 309.25 1415.13 l 21
 144.694 1442.11 l 5
 160.183 1537.56 l 5
 504.219 1568.68 l 5
 529.64 1539.63 l 5
 282.589 130.724 l 21
 440.378 91.2998 l 5
 416.169 0 l 5
 -95.3379 0 l 5
 -71.9189 93.374 l 5
 83.9561 134.874 l 13
EndSplineSet
EndChar

StartChar: m
Encoding: 109 109 37
Width: 1337
VWidth: 0
Flags: W
HStem: 0 73<25 72.7867 374.581 413 804.196 844 1237.51 1280> 746 147<544.452 732 972.778 1183> 763 83<124 199.747>
DStem2: 145 109 309 104 0.149944 0.988694<19.6474 630.23> 570 15 742 102 0.153516 0.988146<112.373 713.851> 1006 13 1177 101 0.152492 0.988305<113.047 711.496>
LayerCount: 3
Back
SplineSet
1258.93 16.5996 m 29
 1358.38 659.842 l 22
 1367.54 724.166 1370.81 776.04 1371.78 803.015 c 4
 1374.8 888.09 1320.55 937.889 1279.05 937.889 c 7
 1160.78 937.889 1084.09 881.863 1036.81 836.215 c 5x68
 1033.63 805.09 1017.04 688.892 1009.04 639.092 c 14
 977.129 441.97 l 13
 926.659 128.647 l 13
 1083.1 93.374 l 21
 1057.03 2.0752 l 5
 727.106 2.0752 l 29
 711.101 18.6748 l 21
 814.735 659.842 l 5
 823.253 724.166 827.171 776.04 828.133 803.015 c 4
 831.161 888.09 778.985 937.889 737.486 937.889 c 7xa8
 619.212 937.889 542.372 877.714 493.022 832.065 c 5
 382.854 130.724 l 5
 537.2 91.2998 l 5
 514.264 0 l 5
 0.680664 0 l 5
 26.9043 95.4492 l 5
 177.882 136.948 l 5
 299.444 931.664 l 5
 134.407 958.638 l 5
 150.551 1062.39 l 5
 504.406 1093.51 l 5
 530.348 1064.46 l 13
 491.529 906.765 l 21
 506.053 906.765 l 5
 503.978 906.765 l 5
 575.776 1000.14 704.635 1122.56 862.332 1122.56 c 7
 968.156 1122.56 1046.94 1062.39 1041.77 917.139 c 5
 1056.29 917.139 l 5
 1126.02 1010.51 1246.2 1122.56 1403.9 1122.56 c 7
 1518.02 1122.56 1586.13 1054.09 1580.82 904.689 c 4
 1579.56 869.415 1573.4 815.465 1567.71 769.816 c 14
 1474.49 126.573 l 13
 1630.93 91.2998 l 21
 1604.86 0 l 5
 1274.94 0 l 29
 1258.93 16.5996 l 29
EndSplineSet
Fore
SplineSet
1252 613 m 2xc0
 1177 101 l 1
 1301 73 l 1
 1280 0 l 1
 1017 0 l 1
 1006 13 l 1
 1085 525 l 2
 1106 665 1090 746 1021 746 c 3
 927 746 865 698 829 662 c 1
 826 637 813 549 806 509 c 2
 781 352 l 1
 742 102 l 1
 865 74 l 1
 844 2 l 1
 581 2 l 1
 570 15 l 1
 652 525 l 2
 672 652 668 746 585 746 c 3xc0
 501 746 434 698 396 662 c 1
 309 104 l 1
 431 73 l 1
 413 0 l 1
 3 0 l 1
 25 76 l 1
 145 109 l 1
 241 742 l 1
 111 763 l 1
 124 846 l 1xa0
 405 870 l 1
 426 847 l 1
 395 722 l 1
 406 722 l 1
 436 768 548 893 690 893 c 0
 774 893 837 846 832 730 c 1
 844 730 l 1
 900 804 995 893 1121 893 c 0
 1245 893 1278 801 1252 613 c 2xc0
EndSplineSet
EndChar

StartChar: n
Encoding: 110 110 38
Width: 898
VWidth: 0
Flags: W
HStem: 2 72<25 77.1309 369.344 406 802.745 841> 743 150<546.573 740> 763 83<124 199.747>
DStem2: 145 107 302 106 0.149482 0.988764<22.48 631.332> 563 17 738 104 0.15337 0.988169<112.81 712.156>
LayerCount: 3
Fore
SplineSet
898 991 m 29
 898 258 l 29x80
817 613 m 14
 738 104 l 13
 862 76 l 21
 841 3 l 5
 575 3 l 29
 563 17 l 29
 646 525 l 22
 674 702 648 743 575 743 c 7xc0
 492 743 436 707 391 664 c 5
 302 106 l 5
 424 74 l 5
 406 2 l 5
 3 2 l 5
 25 74 l 5
 145 107 l 5
 241 742 l 5
 111 763 l 5
 124 846 l 5xa0
 401 870 l 5
 423 847 l 13
 388 722 l 21
 400 722 l 5
 456 796 578 893 687 893 c 7xc0
 793 893 850 834 817 613 c 14
EndSplineSet
EndChar

StartChar: o
Encoding: 111 111 39
Width: 832
VWidth: 0
Flags: W
HStem: -26 74<301.944 454.564> 816 77<378.085 541.011>
VStem: 58 181<120.392 557.211> 599 176<300.107 755.397>
LayerCount: 3
Back
SplineSet
749.066 734.541 m 4
 746.991 863.189 709.642 1025.04 599.668 1025.04 c 7
 392.171 1025.04 292.572 690.967 298.796 377.646 c 4
 302.946 211.647 350.671 60.1738 462.719 60.1738 c 7
 653.617 60.1738 755.291 423.295 749.066 734.541 c 4
421.22 -33.2002 m 7
 190.898 -33.2002 76.7744 145.248 72.625 394.245 c 4
 66.3984 763.59 313.321 1122.56 653.617 1122.56 c 7
 883.938 1122.56 971.088 900.539 973.163 697.191 c 4
 981.463 331.996 746.991 -33.2002 421.22 -33.2002 c 7
EndSplineSet
Fore
SplineSet
599 552 m 0
 599 654 567 816 479 816 c 3
 314 816 239 569 239 320 c 0
 239 185 281 48 370 48 c 3
 517 48 599 304 599 552 c 0
337 -26 m 3
 154 -26 58 129 58 327 c 0
 58 608 251 893 522 893 c 3
 705 893 775 715 775 537 c 0
 775 261 596 -26 337 -26 c 3
EndSplineSet
EndChar

StartChar: p
Encoding: 112 112 40
Width: 923
VWidth: 0
Flags: W
HStem: -365 74<-46 -4.77818 325.247 370> -18 107<313.73 567.091> 746 144<501.811 633.224> 770 76<99 174.016>
VStem: 690 175<299.038 681.358>
DStem2: 74 -258 233 -263 0.143625 0.989632<17.8881 996.585>
LayerCount: 3
Back
SplineSet
1027.11 769.816 m 14
 927.514 130.724 l 13
 1083.14 95.4492 l 21
 1056.16 4.14941 l 5x68
 722.091 4.14941 l 29
 707.566 20.75 l 29
 811.315 659.842 l 22
 846.59 881.863 813.391 933.738 722.091 933.738 c 7
 618.343 933.738 547.794 888.09 491.77 834.14 c 5
 379.721 132.799 l 5
 533.269 93.374 l 5
 510.444 2.0752 l 5
 4.14941 2.0752 l 5
 31.125 93.374 l 5
 182.598 134.874 l 5
 302.946 931.664 l 5
 139.023 958.638 l 5
 155.623 1062.39 l 5
 504.219 1093.51 l 5
 531.193 1064.46 l 13
 487.619 906.765 l 21x18
 502.144 906.765 l 5
 572.693 1000.14 726.24 1122.56 863.189 1122.56 c 7
 995.987 1122.56 1068.61 1047.86 1027.11 769.816 c 14
EndSplineSet
Fore
SplineSet
74 -258 m 1xe8
 220 748 l 1
 88 770 l 1
 99 846 l 1xd8
 381 870 l 1
 401 847 l 1
 370 720 l 1
 381 720 l 1
 422 799 536 890 628 890 c 3
 760 890 865 733 865 532 c 0
 865 185 628 -18 390 -18 c 3
 364 -18 315 -17 297 -7 c 9
 319 107 l 17
 339 97 386 89 406 89 c 3
 508 89 690 111 690 486 c 0
 690 651 626 746 558 746 c 3
 477 746 438 720 372 661 c 1
 233 -263 l 1
 388 -294 l 1
 370 -365 l 1
 -66 -365 l 1
 -46 -291 l 1
 74 -258 l 1xe8
EndSplineSet
EndChar

StartChar: q
Encoding: 113 113 41
Width: 837
VWidth: 0
Flags: W
HStem: -365 74<297 349.901 686.939 723> -21 123<187.5 413.879> 779 105<387.194 597.02>
VStem: 56 169<143.486 500.149>
DStem2: 451 -258 606 -263 0.147275 0.989096<17.8822 1027.62>
LayerCount: 3
Back
SplineSet
566.469 -323.695 m 9
 751.141 935.813 l 17
 705.492 962.788 666.066 979.388 607.968 979.388 c 3
 390.096 979.388 278.047 647.393 282.196 408.771 c 0
 284.271 257.297 329.922 128.647 427.445 128.647 c 3
 495.919 128.647 564.393 151.474 603.817 184.673 c 1
 614.192 120.349 l 1
 554.019 41.499 475.169 -26.9746 315.396 -26.9746 c 3
 155.623 -26.9746 76.7744 124.498 72.625 327.846 c 0
 64.3242 742.841 390.096 1110.11 697.191 1110.11 c 3
 742.841 1110.11 784.34 1105.96 827.915 1085.21 c 1
 952.413 1103.89 l 1
 973.163 1095.59 l 9
 761.516 -329.922 l 17
 931.664 -369.346 l 1
 908.839 -458.569 l 1
 348.597 -458.569 l 1
 373.496 -365.195 l 1
 566.469 -323.695 l 9
EndSplineSet
Fore
SplineSet
451 -258 m 9
 598 745 l 17
 562 766 530 779 484 779 c 3
 311 779 225 518 225 330 c 0
 225 209 262 102 340 102 c 3
 394 102 450 121 481 147 c 1
 489 96 l 1
 441 33 378 -21 251 -21 c 3
 124 -21 56 102 56 264 c 0
 56 598 311 884 555 884 c 3
 591 884 624 881 659 864 c 1
 758 879 l 1
 775 872 l 9
 606 -263 l 17
 742 -294 l 1
 723 -365 l 1
 277 -365 l 1
 297 -291 l 1
 451 -258 l 9
EndSplineSet
EndChar

StartChar: r
Encoding: 114 114 42
Width: 655
VWidth: 0
Flags: W
HStem: 2 72<25 76.6965 396.496 456> 697 195<482.966 621.13> 763 83<122 201.112>
VStem: 3 653
DStem2: 144 107 301 106 0.154045 0.988064<23.1969 585.937>
LayerCount: 3
Back
SplineSet
45.6494 134.874 m 5
 170.148 931.664 l 5
 4.14941 958.638 l 5
 18.6748 1062.39 l 5xb0
 367.27 1093.51 l 5
 394.245 1064.46 l 13
 338.221 850.74 l 21
 352.746 850.74 l 5
 398.396 987.688 477.244 1120.49 591.368 1120.49 c 7
 645.316 1120.49 690.967 1068.61 688.892 1010.51 c 4
 686.817 946.189 655.692 873.564 620.417 854.89 c 5xd0
 583.067 875.64 558.168 875.64 510.444 875.64 c 7xd0
 452.345 875.64 373.496 800.939 340.296 738.69 c 13
 242.771 132.799 l 5
 460.645 93.374 l 5
 437.819 2.0752 l 5
 -130.724 2.0752 l 5
 -103.748 93.374 l 5
 45.6494 134.874 l 5
EndSplineSet
Fore
SplineSet
144 107 m 5xd0
 243 742 l 5
 111 763 l 5
 122 846 l 5xb0
 400 870 l 5
 421 847 l 13
 377 677 l 21
 388 677 l 5
 424 786 487 892 578 892 c 7
 621 892 656 855 656 809 c 4
 656 756 629 695 601 680 c 5
 571 697 552 697 514 697 c 7
 468 697 404 638 378 588 c 13
 301 106 l 5
 474 74 l 5
 456 2 l 5
 3 2 l 5
 25 74 l 5
 144 107 l 5xd0
EndSplineSet
EndChar

StartChar: s
Encoding: 115 115 43
Width: 746
VWidth: 0
Flags: W
HStem: -35 89<270.485 452.006> 826 76<363.112 513.5>
VStem: 86 122<124.215 180.054> 185 145<582.208 752.905> 489 145<109.407 264.377>
LayerCount: 3
Back
SplineSet
859.039 958.638 m 4
 859.039 848.645 798.865 782.265 697.191 771.891 c 5
 693.042 800.939 l 6
 678.517 989.764 626.643 1037.49 568.544 1037.49 c 7
 487.619 1037.49 414.995 987.688 414.995 875.64 c 4
 414.995 643.205 796.79 551.943 796.79 307.096 c 4
 796.79 91.2881 554.019 -43.5742 390.096 -43.5742 c 7
 207.497 -43.5742 107.898 53.9277 107.898 153.549 c 4
 107.898 232.397 161.848 300.871 261.446 311.247 c 5
 305.021 132.799 365.195 68.4736 439.895 68.4736 c 7
 516.669 68.4736 614.192 122.403 614.192 228.247 c 4
 614.192 394.245 232.397 477.215 232.397 771.891 c 4
 232.397 954.488 408.771 1132.94 632.867 1132.94 c 7
 759.44 1132.94 859.039 1078.99 859.039 958.638 c 4
EndSplineSet
Fore
SplineSet
684 763 m 4xd8
 684 675 636 622 555 614 c 5
 552 637 l 6
 540 787 499 826 453 826 c 7
 389 826 330 786 330 697 c 4xd8
 330 512 634 439 634 244 c 4
 634 72 440 -35 310 -35 c 7
 165 -35 86 43 86 122 c 4
 86 185 129 240 208 248 c 5xe8
 243 106 291 54 350 54 c 7
 411 54 489 98 489 182 c 4
 489 314 185 379 185 614 c 4
 185 759 326 902 504 902 c 7
 605 902 684 859 684 763 c 4xd8
EndSplineSet
EndChar

StartChar: t
Encoding: 116 116 44
Width: 591
VWidth: 0
Flags: W
HStem: -21 142<205.5 397.926> 776 96<367 562>
VStem: 102 164<125.841 475.734>
DStem2: 112 259 279 347 0.164181 0.98643<1.74353 523.611>
LayerCount: 3
Back
SplineSet
180.522 134.874 m 1
 305.021 931.664 l 1
 139.023 958.638 l 1
 153.549 1062.39 l 1xb0
 502.144 1093.51 l 1
 529.119 1064.46 l 9
 473.095 850.74 l 17
 487.619 850.74 l 1
 533.269 987.688 612.118 1120.49 726.24 1120.49 c 3
 780.19 1120.49 823.765 1074.87 823.765 1016.74 c 0
 823.765 950.339 790.565 873.564 755.291 854.89 c 1xd0
 717.941 875.64 693.042 875.64 645.316 875.64 c 3xd0
 587.219 875.64 508.369 800.939 475.169 738.69 c 9
 377.646 132.799 l 1
 595.518 93.374 l 1
 572.693 2.0752 l 1
 4.14941 2.0752 l 1
 31.125 93.374 l 1
 180.522 134.874 l 1
317.471 1357.03 m 9
 398.396 1357.03 l 17
 354.821 1093.51 l 1
 624.566 1095.59 l 1
 599.668 975.238 l 1
 329.922 975.238 l 1
 244.847 435.745 l 2
 234.473 371.421 230.322 352.746 228.247 298.796 c 24
 226.172 232.397 240.697 151.474 307.096 151.474 c 27
 383.87 151.474 456.494 174.298 502.144 195.048 c 1
 518.743 128.647 l 1
 450.27 51.875 327.846 -26.9746 209.573 -26.9746 c 3
 95.4492 -26.9746 16.5996 49.7998 22.8242 199.197 c 0
 22.8242 234.473 26.9746 280.121 35.2744 325.771 c 2
 139.023 975.238 l 1
 0 975.238 l 1
 12.4502 1035.41 l 1
 139.023 1124.64 234.473 1247.06 317.471 1357.03 c 9
EndSplineSet
Fore
SplineSet
337 1080 m 9
 401 1080 l 17
 367 872 l 1
 581 872 l 1
 562 776 l 1
 347 776 l 1
 279 347 l 2
 271 296 266 279 266 233 c 0
 266 182 279 121 329 121 c 27
 392 121 448 138 484 155 c 1
 497 102 l 1
 443 41 345 -21 251 -21 c 3
 160 -21 102 35 102 154 c 0
 102 180 105 223 112 259 c 2
 195 776 l 1
 84 776 l 1
 94 824 l 1
 195 895 271 992 337 1080 c 9
EndSplineSet
EndChar

StartChar: u
Encoding: 117 117 45
Width: 867
VWidth: 0
Flags: W
HStem: -20 137<232.5 435.264> 770 74<89 157.251 515 585.043>
DStem2: 137 264 312 375 0.149745 0.988725<-96.592 487.497> 555 130 745 370 0.135113 0.99083<26.9004 621.701>
LayerCount: 3
Back
SplineSet
1027.11 769.816 m 14
 927.514 130.724 l 13
 1083.14 95.4492 l 21
 1056.16 4.14941 l 5x68
 722.091 4.14941 l 29
 707.566 20.75 l 29
 811.315 659.842 l 22
 846.59 881.863 813.391 933.738 722.091 933.738 c 7
 618.343 933.738 547.794 888.09 491.77 834.14 c 5
 379.721 132.799 l 5
 533.269 93.374 l 5
 510.444 2.0752 l 5
 4.14941 2.0752 l 5
 31.125 93.374 l 5
 182.598 134.874 l 5
 302.946 931.664 l 5
 139.023 958.638 l 5
 155.623 1062.39 l 5
 504.219 1093.51 l 5
 531.193 1064.46 l 13
 487.619 906.765 l 21x18
 502.144 906.765 l 5
 572.693 1000.14 726.24 1122.56 863.189 1122.56 c 7
 995.987 1122.56 1068.61 1047.86 1027.11 769.816 c 14
EndSplineSet
Fore
SplineSet
765 96 m 14
 831 84 l 21
 813 15 l 5
 778 2 726 -17 672 -17 c 7
 584 -17 543 26 555 130 c 5
 545 130 l 5
 517 77 414 -20 282 -20 c 7
 183 -20 101 31 137 264 c 14
 210 746 l 5
 79 770 l 5
 89 844 l 5
 372 869 l 5
 391 846 l 13
 312 375 l 22
 282 197 286 117 377 117 c 7
 469 117 524 167 557 200 c 13
 639 746 l 5
 505 770 l 5
 515 844 l 5
 801 869 l 5
 821 846 l 5
 745 370 l 6
 707 132 719 104 765 96 c 14
EndSplineSet
EndChar

StartChar: v
Encoding: 118 118 46
Width: 791
VWidth: 0
Flags: W
HStem: -28 21G<200.322 307> 803 71<334.027 378 459 492.303>
DStem2: 256 766 96 771 0.132732 -0.991152<0 555.283> 325 215 307 -10 0.426078 0.904686<0 604.36>
LayerCount: 3
Back
SplineSet
-386.032 327.846 m 14
 -384.07 971.088 l 13
 -546.098 1006.36 l 21
 -534.484 1097.66 l 13
 -194.206 1097.66 l 29
 -194.111 437.819 l 22
 -194.087 265.597 -154.803 161.848 -51.0332 161.848 c 4
 67.2402 161.848 127.284 219.947 167.329 265.597 c 13
 168.381 969.014 l 5
 7.78906 1008.44 l 5
 16.2646 1097.66 l 5
 523.625 1097.66 l 5
 512.52 1004.29 l 5
 368.11 962.788 l 13
 367.572 -317.471 l 21
 539.209 -346.521 l 5
 540.556 -441.97 l 5
 199.932 -473.095 l 5
 169.388 -444.044 l 5
 170.709 35.2744 l 5
 180.652 190.898 l 5
 166.128 190.898 l 5
 111.194 97.5234 -5.38379 -24.8994 -155.972 -24.8994 c 4
 -304.181 -24.8994 -386.791 78.7783 -386.032 327.846 c 14
EndSplineSet
Fore
SplineSet
203 -28 m 1
 96 771 l 1
 0 803 l 1
 18 874 l 1
 396 874 l 1
 378 804 l 1
 256 766 l 1
 325 215 l 1
 565 770 l 1
 443 803 l 1
 459 874 l 1
 791 874 l 1
 771 799 l 1
 672 765 l 1
 307 -10 l 1
 203 -28 l 1
EndSplineSet
EndChar

StartChar: x
Encoding: 120 120 47
Width: 987
VWidth: 0
Flags: W
HStem: 0 69<366.793 396 481 530.971> 801 71<220 240.475 531.478 580 675 695.877>
DStem2: 165 104 289 106 0.667973 0.744185<84.3171 84.3171 594.613 892.251> 462 771 297 771 0.42925 -0.903186<0 261.657 390.025 662.949>
LayerCount: 3
Back
SplineSet
968.963 131.741 m 5
 1094.85 87.0518 l 5
 1085.64 0 l 5
 582.233 0 l 5
 594.445 92.752 l 5
 739.867 135.445 l 5
 545.718 435.745 l 5
 331.618 133.408 l 5
 498.915 88.8291 l 5
 488.555 0 l 5
 49.3818 0 l 5
 60.3701 93.0352 l 5
 172.713 133.851 l 5
 479.336 541.417 l 5
 210.13 967.994 l 5
 84.3506 1006.41 l 5
 93.3652 1095.59 l 5
 582.257 1095.59 l 5
 572.054 1002.71 l 5
 423.919 959.779 l 5
 606.947 671.407 l 5
 813.672 963.882 l 5
 651.517 1006.36 l 5
 659.767 1095.59 l 5
 1077.56 1095.59 l 5
 1067.02 1002.59 l 5
 950.382 959.655 l 5
 672.683 581.199 l 5
 968.963 131.741 l 5
EndSplineSet
Fore
SplineSet
779 104 m 1
 874 69 l 1
 855 0 l 1
 461 0 l 1
 481 69 l 1
 603 104 l 1
 489 352 l 1
 289 106 l 1
 416 71 l 1
 396 0 l 1
 50 0 l 1
 69 69 l 1
 165 104 l 1
 451 434 l 1
 297 771 l 1
 201 801 l 1
 220 872 l 1
 599 872 l 1
 580 803 l 1
 462 771 l 1
 575 535 l 1
 761 768 l 1
 657 801 l 1
 675 872 l 1
 988 872 l 1
 966 801 l 1
 867 765 l 1
 608 464 l 1
 779 104 l 1
EndSplineSet
EndChar

StartChar: y
Encoding: 121 121 48
Width: 873
VWidth: 0
Flags: W
HStem: -380 185<-108.53 120.359> 803 71<357.483 401 540 569.303 817.421 854>
DStem2: 277 765 112 771 0.159509 -0.987197<0 546.644> 221 -50 330 -53 0.462271 0.886739<-178.306 39.3567 309.033 921.742>
LayerCount: 3
Back
SplineSet
454.42 282.196 m 5
 807.166 966.938 l 5
 653.617 1008.44 l 5
 678.517 1097.66 l 5
 1097.66 1097.66 l 5
 1072.76 1004.29 l 5
 952.413 964.863 l 5
 414.995 -66.3984 l 6
 253.147 -379.721 134.874 -477.244 -37.3496 -477.244 c 4
 -153.549 -477.244 -217.872 -400.47 -205.422 -327.846 c 4
 -199.197 -278.047 -176.373 -226.172 -112.049 -176.373 c 5
 -51.875 -224.097 0 -244.847 66.3984 -244.847 c 4
 128.647 -244.847 190.898 -230.322 278.047 -62.249 c 6
 300.871 -18.6748 l 5
 141.099 969.014 l 5
 22.8242 1008.44 l 5
 43.5742 1097.66 l 5
 527.043 1097.66 l 5
 504.219 1010.51 l 5
 348.597 960.713 l 5
 454.42 282.196 l 5
EndSplineSet
Fore
SplineSet
362 225 m 1
 642 770 l 1
 520 803 l 1
 540 874 l 1
 874 874 l 1
 854 799 l 1
 758 768 l 1
 330 -53 l 2
 201 -302 107 -380 -30 -380 c 0
 -122 -380 -162 -331 -162 -268 c 0
 -162 -228 -140 -180 -89 -140 c 1
 -41 -178 0 -195 53 -195 c 0
 103 -195 152 -184 221 -50 c 2
 239 -15 l 1
 112 771 l 1
 18 803 l 1
 35 874 l 1
 419 874 l 1
 401 804 l 1
 277 765 l 1
 362 225 l 1
EndSplineSet
EndChar

StartChar: z
Encoding: 122 122 49
Width: 786
VWidth: 0
Flags: W
HStem: -2 90<226 528> 789 85<314 599>
DStem2: 58 79 226 88 0.608107 0.793855<109.307 892.623>
LayerCount: 3
Fore
SplineSet
162 634 m 1
 208 874 l 1
 786 874 l 1
 776 806 l 1
 226 88 l 1
 528 88 l 1
 644 251 l 1
 707 243 l 1
 628 -2 l 1
 50 -2 l 1
 58 79 l 1
 599 789 l 1
 314 789 l 1
 226 621 l 1
 162 634 l 1
EndSplineSet
EndChar

StartChar: comma
Encoding: 44 44 50
Width: 364
VWidth: 0
Flags: W
HStem: -314 70<-9.2528 64.9918> 36 182<86 232.5>
VStem: 192 153<-110.001 107>
LayerCount: 3
Back
SplineSet
-23.7383 -307.096 m 5
 147.085 -263.521 226.199 -170.148 239.015 -89.2236 c 4
 250.188 -18.6748 204.353 45.6494 115.129 45.6494 c 4
 102.679 45.6494 90.2295 45.6494 77.4502 43.5742 c 5
 71.3477 70.5498 66.6621 93.374 71.2637 122.423 c 4
 87.3682 224.097 184.479 273.896 248.804 273.896 c 4
 335.951 273.896 457.248 201.272 427.341 12.4502 c 4
 408.609 -105.823 335.233 -307.096 -8.49219 -394.245 c 5
 -23.7383 -307.096 l 5
EndSplineSet
Fore
SplineSet
-18 -244 m 1
 117 -209 192 -125 192 -61 c 0
 192 -7 162 36 91 36 c 0
 81 36 73 33 61 30 c 1
 56 51 54 61 54 84 c 0
 54 167 147 218 198 218 c 0
 267 218 345 183 345 31 c 0
 345 -65 267 -245 -7 -314 c 1
 -18 -244 l 1
EndSplineSet
EndChar

StartChar: period
Encoding: 46 46 51
Width: 427
VWidth: 0
Flags: W
HStem: -33 248<131.841 299.528>
VStem: 92 243<1.375 175.382>
LayerCount: 3
Back
SplineSet
293.899 257.297 m 4
 376.898 257.297 435.512 195.048 422.695 114.124 c 4
 409.222 29.0488 329.9 -39.4248 246.9 -39.4248 c 4
 163.903 -39.4248 108.679 31.125 122.152 116.199 c 4
 134.971 197.123 212.976 257.297 293.899 257.297 c 4
EndSplineSet
Fore
SplineSet
235 215 m 3
 298 215 335 161 335 107 c 0
 335 23 274 -33 198 -33 c 19
 145 -33 92 23 92 74 c 0
 92 153 157 215 235 215 c 3
EndSplineSet
EndChar

StartChar: colon
Encoding: 58 58 52
Width: 404
VWidth: 0
Flags: W
HStem: 2 223<143.971 301.326> 629 223<244.31 400.71>
VStem: 112 324
LayerCount: 3
Fore
SplineSet
342 852 m 0
 403 852 446 806 436 745 c 0
 426 681 367 629 306 629 c 0
 243 629 203 682 213 746 c 0
 223 807 281 852 342 852 c 0
243 225 m 0
 304 225 347 176 337 117 c 0
 327 53 267 2 206 2 c 0
 143 2 102 55 112 119 c 0
 122 178 182 225 243 225 c 0
EndSplineSet
EndChar

StartChar: k
Encoding: 107 107 53
Width: 885
VWidth: 0
Flags: W
HStem: -20 21G<639.5 719.5> 0 74<20 70.111 371.989 411> 803 71<537 575 845.201 895> 1148 76<185 259.668>
DStem2: 144 107 302 104 0.155963 0.987763<21.6788 1031.8> 524 487 378 434 0.383277 -0.923634<0 422.937> 381 451 524 487 0.636131 0.771581<118.744 413.437>
LayerCount: 3
Fore
SplineSet
378 434 m 1xb0
 381 451 l 1
 644 770 l 1
 522 803 l 1
 537 874 l 1
 917 874 l 1
 895 798 l 1
 763 765 l 1
 524 487 l 1
 573 383 l 2
 659 196 693 90 819 73 c 2
 854 68 l 1
 832 -2 l 1
 812 -7 740 -20 699 -20 c 0
 580 -20 533 64 439 287 c 1
 378 434 l 1xb0
144 107 m 9
 306 1126 l 17
 173 1148 l 1
 185 1224 l 1
 457 1249 l 1
 479 1225 l 1
 302 104 l 17
 428 73 l 1
 411 0 l 1
 3 0 l 1
 20 74 l 1x70
 144 107 l 9
EndSplineSet
EndChar

StartChar: w
Encoding: 119 119 54
Width: 1235
VWidth: 0
Flags: W
HStem: -30 21G<221.102 339 674.504 783> 803 71<356.117 403 910 947.208>
DStem2: 282 766 147 771 0.0944572 -0.995529<0 543.064> 340 226 339 -12 0.388124 0.921607<0 447.582> 720 827 598 603 0.123842 -0.992302<207.167 615.215> 784 215 783 -12 0.397475 0.917613<0 601.612>
LayerCount: 3
Back
SplineSet
640.239 327.846 m 10
 642.202 971.088 l 9
 480.174 1006.36 l 17
 491.788 1097.66 l 9
 832.065 1097.66 l 25
 832.161 437.819 l 18
 832.186 265.597 871.469 161.848 975.238 161.848 c 0
 1093.51 161.848 1153.56 219.947 1193.6 265.597 c 9
 1194.65 969.014 l 1
 1034.06 1008.44 l 1
 1042.54 1097.66 l 1
 1549.89 1097.66 l 1
 1538.79 1004.29 l 1
 1394.38 962.788 l 9
 1393.84 -317.471 l 17
 1565.48 -346.521 l 1
 1566.83 -441.97 l 1
 1226.2 -473.095 l 1
 1195.66 -444.044 l 1
 1196.98 35.2744 l 1
 1206.92 190.898 l 1
 1192.4 190.898 l 1
 1137.47 97.5234 1020.89 -24.8994 870.301 -24.8994 c 0
 722.091 -24.8994 639.479 78.7783 640.239 327.846 c 10
EndSplineSet
Fore
SplineSet
586 809 m 1
 720 827 l 1
 779 347 l 1
 784 215 l 1
 1014 771 l 1
 893 803 l 1
 910 874 l 1
 1235 874 l 1
 1215 799 l 1
 1120 766 l 1
 783 -12 l 1
 677 -30 l 1
 598 603 l 1
 339 -12 l 1
 223 -30 l 1
 147 771 l 1
 50 803 l 1
 68 874 l 1
 421 874 l 1
 403 799 l 1
 282 766 l 1
 332 362 l 1
 340 226 l 1
 586 809 l 1
EndSplineSet
EndChar

StartChar: hyphen
Encoding: 45 45 56
Width: 569
VWidth: 0
Flags: W
HStem: 398 101<170 469.339> 416 101<253.458 553>
VStem: 142 438
LayerCount: 3
Fore
SplineSet
170 499 m 1xa0
 580 517 l 1
 553 416 l 1x60
 142 398 l 1
 170 499 l 1xa0
EndSplineSet
EndChar

StartChar: one
Encoding: 49 49 57
Width: 364
VWidth: 0
Flags: W
HStem: 0 45<35 60.856 314.147 341> 474 47<47 73.9579>
VStem: 136 101<73 473>
LayerCount: 3
Back
SplineSet
412 651 m 5xb8
 398 672 354 706 307 706 c 7
 255 706 237 660 237 587 c 6
 237 538 l 5
 377 538 l 5
 370 484 l 5
 237 484 l 5xd8
 237 74 l 13
 333 53 l 29
 326 4 l 21
 37 4 l 13
 44 52 l 29
 136 74 l 21
 136 484 l 5
 46 484 l 5
 51 525 l 5
 137 547 l 5
 148 676 255 783 347 783 c 7
 405 783 453 757 453 717 c 7
 453 698 444 671 412 651 c 5xb8
EndSplineSet
Fore
SplineSet
237 567 m 5
 237 69 l 21
 347 49 l 13
 341 0 l 5
 30 0 l 5
 35 45 l 5
 136 73 l 5
 136 473 l 5
 42 474 l 5
 47 521 l 5
 220 567 l 5
 237 567 l 5
EndSplineSet
EndChar

StartChar: exclam
Encoding: 33 33 59
Width: 485
VWidth: 0
Flags: W
HStem: -36 246<172.352 339.03>
VStem: 134 249<8.10849 170.373> 344 196<1025.37 1279.28>
LayerCount: 3
Fore
SplineSet
345 363 m 1xa0
 344 357 l 1
 258 377 l 1
 258 380 l 1
 284 702 327 1141 344 1250 c 2
 344 1253 l 1
 357 1281 446 1293 482 1293 c 0
 508 1293 545 1284 540 1253 c 0
 514 1085 423 685 345 363 c 1xa0
383 91 m 0xc0
 371 20 307 -36 238 -36 c 0
 169 -36 122 21 134 92 c 0
 144 160 210 210 276 210 c 0
 344 210 393 159 383 91 c 0xc0
EndSplineSet
EndChar

StartChar: quotesingle
Encoding: 39 39 60
Width: 381
VWidth: 0
Flags: W
HStem: 892 411
VStem: 294 96<903 960.195>
LayerCount: 3
Fore
SplineSet
306 1303 m 1
 486 1286 l 1
 390 903 l 1
 294 892 l 1
 306 1303 l 1
EndSplineSet
EndChar

StartChar: two
Encoding: 50 50 61
Width: 495
VWidth: 0
Flags: W
HStem: 0 86<168 422> 521 64<188.868 279.697>
VStem: 79 85<410.043 494.178> 315 109<323.501 484.149>
LayerCount: 3
Back
SplineSet
258 518.857 m 7xf8
 220.394 518.857 181.932 484.387 181 380 c 5
 130 382 100 399.918 100 439 c 31
 100 533.692 226.933 585 294 585 c 7
 386 585 448 518 448 442 c 7xf8
 448 362 404 288 336 250 c 5
 336 241 l 5
 433 214 481 138 481 60 c 7
 481 -43 400 -148 274 -148 c 7
 211 -148 157 -137 105 -93 c 13
 132 -46 l 21
 192 -83 227 -85 264 -85 c 7
 338 -85 375 -28 375 42 c 7xf4
 375 118 324 187 244 187 c 7
 224 187 202 186 178 177 c 5
 174 191 168 211 168 236 c 5
 297.608 271.642 348.553 351.28 348.553 417 c 7
 348.553 472.977 312.745 518.857 258 518.857 c 7xf8
EndSplineSet
Fore
SplineSet
164 375 m 5
 104 381 79 396 79 446 c 7
 79 516 191 585 266 585 c 7
 355 585 424 521 424 426 c 7
 424 314 367 262 247 158 c 6
 168 86 l 13
 435 86 l 21
 422 0 l 13
 64 0 l 29
 60 62 l 21
 234 236 l 22
 285 284 315 340 315 399 c 7
 315 465 286 521 228 521 c 7
 172 521 164 434 164 375 c 5
EndSplineSet
EndChar

StartChar: three
Encoding: 51 51 62
Width: 489
VWidth: 0
Flags: W
HStem: -148 63<155.255 278.635> 186 58<114.856 181.804> 520 65<162.287 263.061>
VStem: 40 80<-45.6181 -5.28494> 48 81<410.966 484.049> 297 99<349.156 484.066> 323 106<-30.4606 120.635>
LayerCount: 3
Back
SplineSet
95 442 m 5
 109.667 475.333 129.333 503 154 525 c 132
 178.667 547 202.5 562.167 225.5 570.5 c 132
 248.5 578.833 271.333 583 294 583 c 4
 338.667 583 375.5 569.167 404.5 541.5 c 132
 433.5 513.833 448 480.667 448 442 c 4
 448 402 437.833 364.833 417.5 330.5 c 132
 397.167 296.167 370 269.333 336 250 c 5
 336 241 l 5
 382.667 228.333 418.5 205.333 443.5 172 c 132
 468.5 138.667 481 101.333 481 60 c 4
 481 6 461.667 -42.1667 423 -84.5 c 132
 384.333 -126.833 334.667 -148 274 -148 c 4
 204.667 -148 148.333 -129.667 105 -93 c 5
 132 -46 l 5
 174 -72 218 -85 264 -85 c 4
 299.333 -85 326.667 -73 346 -49 c 132
 365.333 -25 375 5.33333 375 42 c 4
 375 81.3333 362.833 115.333 338.5 144 c 132
 314.167 172.667 282.667 187 244 187 c 4
 218 187 196 183.667 178 177 c 5
 168 236 l 5
 210.667 246 251.5 264.833 290.5 292.5 c 132
 329.5 320.167 349 353 349 391 c 6
 349 393 l 6
 349 426.333 341.333 453 326 473 c 132
 310.667 493 289.667 503 263 503 c 4
 245 503 227.5 497.833 210.5 487.5 c 132
 193.5 477.167 180.5 467 171.5 457 c 132
 162.5 447 151.667 433 139 415 c 5
 95 442 l 5
EndSplineSet
Fore
SplineSet
297 417 m 7xe4
 297 470 262 520 207 520 c 7
 169 520 130 484 129 380 c 5
 78 382 48 400 48 439 c 31
 48 534 175 585 242 585 c 7
 334 585 396 518 396 442 c 7xec
 396 362 348 287 280 249 c 5
 280 240 l 5
 377 213 429 138 429 60 c 7
 429 -43 348 -148 222 -148 c 7
 78 -148 40 -81 40 -32 c 7
 40 15 96 32 120 36 c 5
 131 -26 139 -85 212 -85 c 7
 286 -85 323 -28 323 42 c 7xf2
 323 115 269 189 192 189 c 7
 172 189 143 188 121 186 c 5
 116 203 111 219 111 239 c 4
 111 241 111 242 111 244 c 5
 129 250 297 276 297 417 c 7xe4
EndSplineSet
EndChar

StartChar: seven
Encoding: 55 55 63
Width: 552
VWidth: 0
Flags: W
HStem: 466 92<105 386>
LayerCount: 3
Fore
SplineSet
172 -113 m 17
 386 466 l 9
 94 466 l 17
 105 558 l 25
 480 558 l 25
 483 497 l 17
 231 -142 l 17
 172 -113 l 17
EndSplineSet
EndChar

StartChar: four
Encoding: 52 52 64
Width: 613
VWidth: 0
Flags: W
HStem: -138 45<271 295.064 538.939 564> 104 80<160 365 466 567>
VStem: 365 101<-65 104 184 472>
LayerCount: 3
Back
SplineSet
461 425 m 5
 461 -78 l 21
 571 -98 l 13
 565 -147 l 5
 255 -147 l 5
 260 -102 l 5
 361 -74 l 5
 361 336 l 5
 268 313 l 5
 258 363 l 5
 461 425 l 5
EndSplineSet
Fore
SplineSet
359 561 m 5
 466 579 l 5
 465 184 l 5
 577 184 l 5
 567 104 l 5
 466 104 l 5
 466 -69 l 5
 570 -89 l 5
 564 -138 l 5
 266 -138 l 5
 271 -93 l 5
 365 -65 l 5
 365 106 l 5
 87 106 l 5
 78 168 l 5
 359 561 l 5
366 182 m 5
 365 472 l 5
 160 180 l 5
 366 182 l 5
EndSplineSet
EndChar

StartChar: five
Encoding: 53 53 65
Width: 490
VWidth: 0
Flags: W
HStem: -147 68<108.793 254.35> -34 20G<32.4 75> 470 91<184 395.667>
VStem: 313 106<-10.4441 130.19>
LayerCount: 3
Fore
SplineSet
200 -147 m 3
 135 -147 84 -126 15 -64 c 9
 44 -14 l 17
 106 -58 133 -79 189 -79 c 3
 257 -79 313 -15 313 54 c 3
 313 129 257 211 86 225 c 9
 141 561 l 17
 374 561 l 2
 391 561 404 563 412 566 c 1
 414 558 414 545 414 538 c 3
 414 499 389 470 321 470 c 0
 319 470 318 470 317 470 c 10
 184 471 l 25
 158 306 l 17
 350 279 419 182 419 84 c 3
 419 -31 316 -147 200 -147 c 3
EndSplineSet
EndChar

StartChar: eight
Encoding: 56 56 66
Width: 522
VWidth: 0
Flags: W
HStem: -16 54<204.45 322.837> 634 48<185.576 295.353>
VStem: 59 94<91.8002 234.6> 77 84<479.29 585.344> 336 86<443.906 590.03> 362 86<84.858 199.328>
LayerCount: 3
Fore
SplineSet
208 308 m 5xe4
 162 269 153 208 153 162 c 4
 153 102 204 38 258 38 c 4
 306 38 362 68 362 143 c 4
 362 206 283 253 208 308 c 5xe4
177 332 m 5
 123 376 77 427 77 496 c 4
 77 597 152 682 260 682 c 5
 355 680 422 605 422 532 c 4xd8
 422 429 350 382 311 359 c 5
 380 309 448 260 448 183 c 4
 448 34 332 -16 231 -16 c 4
 140 -16 59 54 59 152 c 4
 59 248 137 304 177 332 c 5
283 380 m 5
 319 415 336 439 336 513 c 4
 336 582 293 634 244 634 c 4
 206 634 161 609 161 556 c 4
 161 478 219 427 283 380 c 5
EndSplineSet
EndChar

StartChar: six
Encoding: 54 54 67
Width: 615
VWidth: 0
Flags: W
HStem: -13 63<281.795 397.668> 330 68<265.024 391.151> 596 48<359.878 423>
VStem: 106 98<151.792 389.727> 436 99<108.949 284.837>
LayerCount: 3
Fore
SplineSet
313 330 m 3
 298 330 273 327 261 320 c 1
 256 335 251 351 249 369 c 1
 293 389 334 398 367 398 c 0
 473 398 535 307 535 210 c 0
 535 102 460 -13 339 -13 c 3
 179 -13 106 113 106 255 c 0
 106 433 221 636 423 644 c 1
 436 596 l 1
 276 584 204 425 204 282 c 3
 204 160 254 50 343 50 c 3
 410 50 436 118 436 185 c 3
 436 272 408 330 313 330 c 3
EndSplineSet
EndChar

StartChar: nine
Encoding: 57 57 68
Width: 615
VWidth: 0
Flags: W
HStem: -104 52<203.908 268.136> 166 65<242.636 352.276> 514 63<235.601 354.483>
VStem: 106 84<289.073 449.691> 425 99<170.836 422.605>
LayerCount: 3
Back
SplineSet
312 234 m 7
 327 234 340 237 352 244 c 5
 372 195 l 21
 329 175 291 166 258 166 c 4
 152 166 101 257 101 354 c 4
 101 462 168 577 289 577 c 7
 449 577 519 451 519 309 c 4
 519 131 403 -72 202 -80 c 5
 188 -32 l 5
 349 -20 420 139 420 282 c 7
 420 404 374 514 285 514 c 7
 217 514 182 449 182 382 c 7
 182 309 226 234 312 234 c 7
EndSplineSet
Fore
SplineSet
310 231 m 3
 331 231 355 238 366 245 c 1
 373 232 378 220 383 207 c 1
 348 180 296 166 263 166 c 0
 157 166 106 257 106 354 c 0
 106 462 189 577 310 577 c 3
 470 577 524 451 524 309 c 0
 524 131 408 -96 207 -104 c 1
 199 -88 196 -70 193 -52 c 1
 354 -40 425 139 425 282 c 3
 425 404 385 514 296 514 c 3
 228 514 190 449 190 382 c 3
 190 309 224 231 310 231 c 3
EndSplineSet
EndChar

StartChar: zero
Encoding: 48 48 69
Width: 598
VWidth: 0
Flags: W
HStem: -16 59<249.553 378.23> 518 56<225.332 348.77>
VStem: 60 106<158.716 403.703> 431 107<149.744 405.151>
LayerCount: 3
Fore
SplineSet
166 302 m 5
 168 137 227 43 311 43 c 7
 405 43 431 127 431 257 c 7
 431 414 373 518 288 518 c 7
 200 518 166 432 166 302 c 5
538 282 m 7
 538 95 427 -16 297 -16 c 7
 129 -16 60 126 60 273 c 7
 60 452 168 574 308 574 c 7
 457 574 538 470 538 282 c 7
EndSplineSet
EndChar

StartChar: question
Encoding: 63 63 70
Width: 601
VWidth: 0
Flags: W
HStem: -36 246<192.352 359.03> 1113 175<305.178 557.337>
VStem: 154 249<8.10849 170.373> 286 77<380.021 479.423>
LayerCount: 3
Fore
SplineSet
211 1153 m 0xd0
 219 1206 272 1288 429 1288 c 0
 584 1288 745 1114 705 860 c 0
 667 622 385 658 362 509 c 0
 355 469 356 433 363 383 c 1
 286 367 l 1
 266 407 230 504 243 585 c 0
 279 810 573 735 606 940 c 0
 621 1032 530 1113 471 1113 c 0
 395 1113 318 1088 268 1042 c 1
 237 1055 203 1099 211 1153 c 0xd0
403 91 m 0xe0
 391 20 327 -36 258 -36 c 0
 189 -36 142 21 154 92 c 0
 164 160 230 210 296 210 c 0
 364 210 413 159 403 91 c 0xe0
EndSplineSet
EndChar

StartChar: quotedbl
Encoding: 34 34 71
Width: 556
VWidth: 0
Flags: W
HStem: 892 411
VStem: 277 96<903 960.195> 486 95<903 960.195>
LayerCount: 3
Fore
SplineSet
497 1303 m 1
 677 1286 l 1
 581 903 l 1
 486 892 l 1
 497 1303 l 1
289 1303 m 1
 469 1286 l 1
 373 903 l 1
 277 892 l 1
 289 1303 l 1
EndSplineSet
EndChar

StartChar: numbersign
Encoding: 35 35 72
Width: 939
VWidth: 0
Flags: W
HStem: 363 101<162 289 426 596 733 854> 675 101<264 388 522 695 829 960>
DStem2: 231 170 339 178 0.295286 0.955409<39.5342 201.52 338.471 528.841 664.906 818.815> 538 170 646 178 0.299318 0.954153<39.9596 201.512 338.888 528.84 665.319 818.527>
LayerCount: 3
Fore
SplineSet
393 363 m 1
 339 178 l 1
 231 170 l 1
 289 363 l 1
 121 363 l 1
 162 464 l 1
 324 464 l 1
 388 675 l 1
 226 675 l 1
 264 776 l 1
 419 776 l 1
 477 951 l 1
 581 961 l 1
 522 776 l 1
 727 776 l 1
 783 951 l 1
 887 960 l 1
 829 776 l 1
 997 776 l 1
 960 675 l 1
 798 675 l 1
 733 464 l 1
 893 464 l 1
 854 363 l 1
 699 363 l 1
 646 178 l 1
 538 170 l 1
 596 363 l 1
 393 363 l 1
426 464 m 1
 629 464 l 1
 695 675 l 1
 490 675 l 1
 426 464 l 1
EndSplineSet
EndChar

StartChar: dollar
Encoding: 36 36 73
Width: 893
VWidth: 0
Flags: W
HStem: -25 99<288.957 395> 1182 85<497.878 599> 1323 20G<620.579 723>
VStem: 126 80<320.145 377> 814 74<902 1048.38>
DStem2: 235 930 628 730 0.165499 0.98621<-786.518 -550.593 -146.017 212.566> 380 -111 479 -111 0.165499 0.98621<16.3844 87.2965 216.129 629.095 905.683 1311.41 1414.93 1474.33>
LayerCount: 3
Fore
SplineSet
888 885 m 1
 814 902 l 1
 796 1093 l 2
 794 1110 753 1151 697 1171 c 1
 628 730 l 1
 772 636 937 541 907 353 c 0
 876 153 692 20 495 -15 c 1
 479 -111 l 1
 380 -111 l 1
 395 -25 l 1
 390 -25 l 2
 245 -25 135 30 71 122 c 1
 126 390 l 1
 206 377 l 1
 228 187 l 1
 263 123 333 77 411 74 c 1
 484 527 l 1
 345 615 204 730 235 930 c 0
 268 1140 434 1247 611 1267 c 1
 624 1343 l 1
 723 1343 l 1
 712 1268 l 1
 791 1261 885 1235 951 1166 c 1
 949 1158 888 885 888 885 c 1
537 781 m 1
 599 1182 l 1
 513 1172 449 1119 431 1002 c 0
 416 910 453 827 537 781 c 1
576 494 m 1
 512 86 l 1
 600 107 688 167 708 291 c 0
 720 367 660 438 576 494 c 1
EndSplineSet
EndChar

StartChar: percent
Encoding: 37 37 74
Width: 1142
VWidth: 0
Flags: W
HStem: -35 81<796.516 951.463> 381 81<833.263 988.075> 476 82<303.652 461.256> 892 81<339.937 494.575>
DStem2: 173 -28 292 -38 0.634411 0.772996<67.7649 1298.84>
LayerCount: 3
Back
SplineSet
288.441 1127.11 m 7x3f80
 160.771 1127.11 137.613 1023.89 137.613 925.836 c 7
 137.613 803.188 185.87 694.889 302.751 694.889 c 7
 419.298 694.889 453.34 791.341 453.34 902.786 c 7
 453.34 1036.17 395.33 1127.11 288.441 1127.11 c 7x3f80
305.053 1221.45 m 7
 501.407 1221.45 575.513 1068.42 575.513 917.234 c 7
 575.513 732.091 469.051 599.668 286.346 599.668 c 7
 102.66 599.668 13.4912 755.688 13.4912 910.662 c 7
 13.4912 1052.75 103.729 1221.45 305.053 1221.45 c 7
1043.93 494.471 m 7
 933.683 494.471 893.098 393.324 893.098 295.273 c 7
 893.098 172.625 958.638 64.3242 1058.24 64.3242 c 7x7f80
 1174.51 64.3242 1208.83 160.778 1208.83 272.222 c 7
 1208.83 405.604 1145.39 494.471 1043.93 494.471 c 7
1060.54 590.889 m 7
 1256.89 590.889 1328.92 437.855 1328.92 286.67 c 7
 1328.92 101.527 1223.64 -30.8955 1041.83 -30.8955 c 7
 858.145 -30.8955 768.977 125.125 768.977 280.098 c 7
 768.977 422.187 870.463 590.889 1060.54 590.889 c 7
1004.29 1205.56 m 5
 1145.39 1213.86 l 13
 319.546 -26.9746 l 21
 172.224 -35.2744 l 5xbf80
 1004.29 1205.56 l 5
EndSplineSet
Fore
SplineSet
781 211 m 0
 766 119 793 46 867 46 c 0
 951 46 986 117 1001 213 c 0
 1016 307 996 381 920 381 c 0
 834 381 796 300 781 211 c 0
1126 211 m 0
 1105 79 972 -35 855 -35 c 0
 728 -35 633 64 656 213 c 0
 677 345 809 462 931 462 c 0
 1073 462 1147 351 1126 211 c 0
287 722 m 0
 272 630 301 558 375 558 c 0
 459 558 492 629 507 723 c 0
 522 817 502 892 426 892 c 0
 340 892 302 811 287 722 c 0
633 723 m 0
 612 589 479 476 362 476 c 0
 235 476 142 575 165 725 c 0
 186 857 316 973 438 973 c 0
 580 973 654 863 633 723 c 0
997 976 m 1
 1108 968 l 1
 292 -38 l 1
 173 -28 l 1
 997 976 l 1
EndSplineSet
EndChar

StartChar: ampersand
Encoding: 38 38 75
Width: 1271
VWidth: 0
Flags: W
HStem: -20 126<337.625 582.517> 761 76<981 1016.3 1342.22 1409> 1187 85<550.777 746.689>
DStem2: 670 705 472 629 0.6436 -0.765362<0 368.365 473.133 795.382> 907 423 966 353 0.583726 0.81195<0 366.067>
LayerCount: 3
Fore
SplineSet
1232 723 m 1
 966 353 l 1
 1017 287 1164 105 1250 79 c 2
 1282 69 l 1
 1255 0 l 1
 1210 -15 1169 -20 1131 -20 c 0
 1020 -20 922 92 826 218 c 1
 745 126 603 -20 378 -20 c 0
 157 -20 40 136 68 314 c 0
 99 509 282 631 419 702 c 1
 368 752 299 855 317 974 c 0
 340 1123 508 1272 680 1272 c 0
 840 1272 989 1209 958 1011 c 0
 937 881 791 783 672 717 c 1
 670 705 l 1
 907 423 l 1
 1121 720 l 1
 960 761 l 1
 981 837 l 1
 1430 837 l 1
 1409 761 l 1
 1232 723 l 1
472 629 m 1
 457 631 l 1
 383 585 286 500 269 393 c 0
 248 254 305 106 457 106 c 0
 607 106 739 244 765 282 c 1
 472 629 l 1
613 773 m 1
 717 836 769 892 784 988 c 0
 801 1094 753 1187 647 1187 c 0
 556 1187 498 1100 486 1024 c 0
 471 928 559 824 613 773 c 1
EndSplineSet
EndChar

StartChar: parenleft
Encoding: 40 40 76
Width: 475
VWidth: 0
Flags: W
LayerCount: 3
Fore
SplineSet
401 -317 m 1
 322 -375 l 1
 279 -327 40 -69 121 446 c 0
 204 971 511 1199 585 1255 c 1
 624 1189 l 1
 520 1077 369 880 301 456 c 0
 235 40 368 -244 401 -317 c 1
EndSplineSet
EndChar

StartChar: parenright
Encoding: 41 41 77
Width: 475
VWidth: 0
Flags: W
LayerCount: 3
Fore
SplineSet
-25 -317 m 1
 35 -375 l 1
 94 -327 416 -69 497 446 c 0
 580 971 345 1199 287 1255 c 1
 228 1189 l 1
 296 1077 388 880 320 456 c 0
 254 40 31 -244 -25 -317 c 1
EndSplineSet
EndChar

StartChar: asterisk
Encoding: 42 42 78
Width: 838
VWidth: 0
Flags: W
HStem: 1103 20G<879.179 926.194>
VStem: 542 72<993 1049.36>
LayerCount: 3
Fore
SplineSet
819 692 m 1
 690 623 l 1
 580 870 l 1
 639 922 l 1
 819 692 l 1
378 593 m 1
 291 685 l 1
 515 903 l 1
 573 870 l 1
 378 593 l 1
215 964 m 1
 291 1092 l 1
 538 978 l 1
 515 907 l 1
 215 964 l 1
552 1293 m 1
 687 1280 l 1
 614 993 l 1
 542 981 l 1
 552 1293 l 1
925 1123 m 1
 933 989 l 1
 641 925 l 1
 618 989 l 1
 925 1123 l 1
EndSplineSet
EndChar

StartChar: plus
Encoding: 43 43 79
Width: 715
VWidth: 0
Flags: W
HStem: 410 100<175 368 494 685>
VStem: 147 566
DStem2: 334 185 443 173 0.154323 0.98802<4.96494 227.552 345.798 563.753>
LayerCount: 3
Fore
SplineSet
477 410 m 1
 443 173 l 1
 334 185 l 1
 368 410 l 1
 147 410 l 1
 175 510 l 1
 385 510 l 1
 421 742 l 1
 527 730 l 1
 494 510 l 1
 713 510 l 1
 685 410 l 1
 477 410 l 1
EndSplineSet
EndChar

StartChar: slash
Encoding: 47 47 80
Width: 548
VWidth: 0
Flags: W
VStem: -23 594
DStem2: -23 -363 106 -355 0.279239 0.960222<43.7036 1663.44>
LayerCount: 3
Back
SplineSet
292.572 -439.895 m 17
 292.572 541.568 l 1
 431.595 527.043 l 1
 431.595 -456.494 l 9
 292.572 -439.895 l 17
292.572 678.517 m 17
 292.572 1576.98 l 1
 431.595 1562.46 l 1
 425.369 663.991 l 9
 292.572 678.517 l 17
EndSplineSet
Fore
SplineSet
439 1235 m 21
 571 1244 l 13
 106 -355 l 21
 -23 -363 l 13
 439 1235 l 21
EndSplineSet
EndChar

StartChar: less
Encoding: 60 60 81
Width: 683
VWidth: 0
Flags: W
LayerCount: 3
Back
SplineSet
601.742 -74.6992 m 29
 -29.0488 576.843 l 21
 -41.499 601.742 -51.875 626.643 -51.875 657.767 c 7
 -51.875 666.066 -51.875 676.441 -49.7998 684.741 c 13
 614.192 1261.58 l 29
 676.441 1149.54 l 29
 91.2998 634.942 l 29
 661.917 33.2002 l 29
 601.742 -74.6992 l 29
EndSplineSet
Fore
Refer: 83 62 N -1 0 0.158384 1 679 0 2
EndChar

StartChar: equal
Encoding: 61 61 82
Width: 794
VWidth: 0
Flags: W
HStem: 319 105<162 748> 558 106<203 789>
LayerCount: 3
Fore
SplineSet
162 424 m 1
 776 424 l 1
 748 319 l 1
 134 319 l 1
 162 424 l 1
203 664 m 1
 817 664 l 1
 789 558 l 1
 175 558 l 1
 203 664 l 1
EndSplineSet
EndChar

StartChar: greater
Encoding: 62 62 83
Width: 683
VWidth: 0
Flags: W
LayerCount: 3
Fore
SplineSet
718 428 m 1
 83 -83 l 1
 31 -13 l 1
 487 454 l 1
 195 902 l 1
 263 973 l 1
 722 456 l 1
 718 428 l 1
EndSplineSet
EndChar

StartChar: at
Encoding: 64 64 84
Width: 1360
VWidth: 0
Flags: W
HStem: -228 93<486.481 927.822> -40 20G<1070 1092.48> 59 121<491.903 657.851 808 1005.98> 704 85<643.194 817.902> 955 89<581.82 991.555>
VStem: 69 156<115.048 557.576> 373 159<185.276 505.131> 1196 135<387.649 755.096>
DStem2: 750 254 918 385 0.143067 0.989713<-50.7169 445.501>
LayerCount: 3
Back
SplineSet
1028.42 869.415 m 5
 1003.74 875.64 958.382 883.938 918.957 883.938 c 4
 773.708 883.938 674.439 655.692 667.699 462.719 c 4
 661.105 273.896 700.941 226.172 765.265 226.172 c 4
 831.664 226.172 897.509 269.747 942.823 319.546 c 5
 1028.42 869.415 l 5
988.071 1199.33 m 4
 575.152 1199.33 294.798 836.215 280.958 439.895 c 4
 267.987 68.4736 500.354 -170.148 911.197 -170.148 c 4
 1089.65 -170.148 1285.88 -76.7744 1345.43 -35.2744 c 5
 1358.24 -24.8994 l 5
 1401.13 -103.748 l 5
 1390.54 -109.975 l 5
 1288.55 -178.448 1118.79 -286.346 861.489 -286.346 c 4
 477.619 -286.346 67.0723 -99.5986 84.752 406.694 c 4
 102.215 906.765 496.063 1311.38 1037.63 1311.38 c 4
 1390.38 1311.38 1683.35 1085.21 1671.32 740.766 c 4
 1659.44 400.47 1397.43 87.1484 1052.98 87.1484 c 4
 990.732 87.1484 932.078 130.724 934.324 195.048 c 4
 934.832 209.573 937.776 234.473 937.776 234.473 c 5
 927.401 234.473 l 5
 874.991 159.773 780.724 74.6992 685.274 74.6992 c 4
 552.477 74.6992 463.305 195.048 470.769 408.771 c 4
 483.306 767.741 777.477 991.838 989.124 991.838 c 4
 1055.52 991.838 1123.85 987.688 1195.9 971.088 c 5
 1199.97 969.014 l 5
 1221.93 944.113 l 5
 1153.97 483.469 l 6
 1145.79 427.445 1131.65 319.546 1130.56 288.422 c 4
 1128.6 232.397 1136.18 211.647 1159 211.647 c 4
 1349.9 211.647 1492.53 433.67 1501.44 688.892 c 4
 1512.89 1016.74 1284.79 1199.33 988.071 1199.33 c 4
EndSplineSet
Fore
SplineSet
819 692 m 1
 799 697 763 704 732 704 c 0
 616 704 532 502 532 350 c 0
 532 200 558 180 609 180 c 0
 662 180 714 214 750 254 c 1
 819 692 l 1
837 69 m 11
 779 69 736 109 746 187 c 1
 738 187 l 1
 697 128 621 59 545 59 c 0
 439 59 373 137 373 307 c 0
 373 594 620 789 788 789 c 0
 841 789 893 786 951 773 c 1
 955 771 l 1
 973 751 l 1
 918 385 l 2
 900 266 883 168 923 168 c 3
 1075 168 1196 355 1196 558 c 0
 1196 822 1022 955 786 955 c 0
 457 955 225 654 225 340 c 0
 225 44 398 -135 725 -135 c 0
 867 -135 1022 -61 1070 -28 c 1
 1082 -20 l 1
 1115 -83 l 1
 1106 -88 l 1
 1025 -142 890 -228 685 -228 c 0
 379 -228 69 -93 69 310 c 0
 69 710 395 1044 826 1044 c 0
 1107 1044 1331 872 1331 598 c 0
 1331 327 1111 69 837 69 c 11
EndSplineSet
EndChar

StartChar: bracketleft
Encoding: 91 91 85
Width: 483
VWidth: 0
Flags: W
LayerCount: 3
Back
SplineSet
56.0244 99.5986 m 29
 246.922 145.248 l 29
 246.922 1392.31 l 29
 49.7998 1458.71 l 29
 64.3242 1554.16 l 21
 425.369 1583.21 l 5
 456.494 1552.08 l 5
 456.494 1479.46 l 5
 456.494 145.248 l 13
 657.767 101.674 l 29
 643.242 0 l 21
 41.499 0 l 13
 56.0244 99.5986 l 29
EndSplineSet
Fore
Refer: 87 93 N -1 0 0.316769 1 484 0 2
EndChar

StartChar: backslash
Encoding: 92 92 86
Width: 548
VWidth: 0
Flags: W
VStem: 173 341
DStem2: 304 1235 173 1244 0.132042 -0.991244<0 1586.91>
LayerCount: 3
Fore
SplineSet
304 1235 m 1
 514 -363 l 1
 386 -355 l 1
 173 1244 l 1
 304 1235 l 1
EndSplineSet
EndChar

StartChar: bracketright
Encoding: 93 93 87
Width: 483
VWidth: 0
Flags: W
HStem: -375 96<5 108.936> 1166 89<261 334.202>
VStem: 0 532
DStem2: 150 -259 276 -377 0.154968 0.98792<0 1422.58>
LayerCount: 3
Fore
SplineSet
0 -375 m 1
 5 -279 l 1
 150 -259 l 1
 373 1146 l 1
 236 1166 l 1
 261 1255 l 1
 532 1255 l 1
 276 -377 l 1
 0 -375 l 1
EndSplineSet
EndChar

StartChar: asciicircum
Encoding: 94 94 88
Width: 751
VWidth: 0
Flags: W
HStem: 788 462
VStem: 187 639
LayerCount: 3
Fore
SplineSet
598 1250 m 1
 826 824 l 1
 765 788 l 1
 537 1073 l 1
 527 1073 l 1
 231 793 l 1
 187 826 l 1
 542 1237 l 1
 598 1250 l 1
EndSplineSet
EndChar

StartChar: underscore
Encoding: 95 95 89
Width: 901
VWidth: 0
Flags: W
HStem: -132 106<36 837>
LayerCount: 3
Fore
SplineSet
36 -26 m 1
 865 -26 l 1
 837 -132 l 1
 8 -132 l 1
 36 -26 l 1
EndSplineSet
EndChar

StartChar: grave
Encoding: 96 96 90
Width: 634
VWidth: 0
Flags: W
HStem: 1329 369
VStem: 426 202
LayerCount: 3
Back
SplineSet
435.745 1108.04 m 21
 307.096 1186.89 261.446 1298.93 261.446 1377.78 c 7
 261.446 1454.56 294.646 1516.81 317.471 1533.41 c 5
 273.896 1585.28 l 29
 10.375 1433.81 l 21
 10.375 1313.46 105.823 1112.19 396.32 1025.04 c 13
 435.745 1108.04 l 21
EndSplineSet
Fore
SplineSet
426 1660 m 1
 548 1698 l 1
 628 1364 l 1
 563 1329 l 1
 426 1660 l 1
514 1239 m 0
EndSplineSet
EndChar

StartChar: bar
Encoding: 124 124 92
Width: 569
VWidth: 0
Flags: W
VStem: 177 368
DStem2: 177 -350 291 -363 0.15612 0.987738<4.95713 1624.97>
LayerCount: 3
Fore
SplineSet
291 -363 m 1
 177 -350 l 1
 431 1255 l 1
 545 1244 l 1
 291 -363 l 1
EndSplineSet
EndChar

StartChar: braceright
Encoding: 125 125 93
Width: 667
VWidth: 0
Flags: W
HStem: -378 101<46 81> 390 99<599 629> 1156 99<286 317>
VStem: 23 623
LayerCount: 3
Fore
SplineSet
81 -272 m 2
 269 -244 136 352 448 438 c 1
 449 444 l 1
 162 530 484 1121 317 1149 c 2
 279 1156 l 1
 286 1255 l 1
 345 1255 l 2
 755 1255 315 548 599 497 c 2
 646 489 l 1
 629 390 l 1
 578 381 l 2
 284 335 499 -378 84 -378 c 2
 23 -378 l 1
 46 -277 l 1
 81 -272 l 2
EndSplineSet
EndChar

StartChar: asciitilde
Encoding: 126 126 94
Width: 951
VWidth: 0
Flags: W
HStem: 400 228
DStem2: 370 611 299 469 0.994787 -0.101971<-99.4346 486.321>
LayerCount: 3
Back
SplineSet
0 539.493 m 21x40
 73.9814 683.269 157.354 736.473 239.771 736.473 c 7x40
 361.247 736.473 480.649 633.058 564.86 633.058 c 7
 593.377 633.058 617.859 649.951 637.018 678.517 c 5
 715.866 637.018 l 5
 656.783 516.312 592.062 460.569 525.69 460.569 c 7x80
 420.024 460.569 291.501 564.891 193.566 564.891 c 7
 152.091 564.891 121.054 545.966 85.0732 497.994 c 13
 0 539.493 l 21x40
EndSplineSet
Fore
SplineSet
149 413 m 1
 149 413 231 626 370 611 c 2
 808 566 l 2
 846 561 903 628 903 628 c 1
 968 626 l 1
 968 626 877 407 738 424 c 1
 299 469 l 2
 256 474 200 400 200 400 c 1
 149 413 l 1
EndSplineSet
EndChar

StartChar: exclamdown
Encoding: 161 161 95
Width: 485
VWidth: 0
Flags: W
HStem: 666 246<288.235 453.648>
VStem: 86 196<-404.279 -143.891> 243 249<705.057 867.321>
LayerCount: 3
Fore
SplineSet
284 533 m 1xc0
 286 540 l 1
 372 520 l 1
 372 517 l 1
 346 195 299 -266 282 -375 c 2
 282 -378 l 1
 269 -406 180 -418 144 -418 c 0
 118 -418 81 -409 86 -378 c 0
 112 -210 206 211 284 533 c 1xc0
243 784 m 0xa0
 255 855 319 912 388 912 c 0
 457 912 504 854 492 783 c 0
 482 715 416 666 350 666 c 0
 282 666 233 716 243 784 c 0xa0
EndSplineSet
EndChar

StartChar: cent
Encoding: 162 162 96
Width: 802
VWidth: 0
Flags: W
HStem: -30 116<450 673.544>
VStem: 723 142<704.844 767.528>
DStem2: 277 -134 400 -114 0.285509 0.958376<54.2852 150.617 337.434 972.578 1107.51 1197.86>
LayerCount: 3
Fore
SplineSet
702 895 m 1
 831 882 877 816 865 745 c 0
 855 686 809 648 723 641 c 1
 721 671 714 741 666 779 c 1
 471 104 l 1
 497 92 529 86 565 86 c 0
 656 86 727 122 783 157 c 1
 786 149 795 125 798 99 c 1
 701 11 595 -30 456 -30 c 0
 444 -30 434 -30 424 -28 c 1
 400 -114 l 1
 277 -134 l 1
 317 2 l 1
 182 68 120 231 150 416 c 0
 193 684 390 860 585 893 c 1
 619 1014 l 1
 742 1035 l 1
 702 895 l 1
378 188 m 1
 555 798 l 1
 456 773 378 644 352 474 c 0
 335 375 337 266 378 188 c 1
EndSplineSet
EndChar

StartChar: sterling
Encoding: 163 163 97
Width: 1065
VWidth: 0
Flags: W
HStem: 0 99<405 864> 0 74<58 111.379> 1144 106<704.757 921.766>
VStem: 928 84<908 950.928>
DStem2: 188 639 162 538 0.99871 0.0507819<0 149.18 369.387 557.669> 325 461 530 515 0.181547 0.983382<-330.968 88.6405>
LayerCount: 3
Fore
SplineSet
1093 1211 m 1x70
 1012 895 l 1
 928 908 l 1
 922 1121 l 1
 902 1133 877 1144 841 1144 c 0
 674 1144 622 1038 563 704 c 1
 557 656 l 1
 778 669 l 1
 750 568 l 1
 538 555 l 1
 530 515 l 1
 502 356 468 196 405 99 c 1xb0
 864 96 l 1
 1034 348 l 1
 1118 330 l 1
 1027 0 l 1
 38 0 l 1
 58 74 l 1
 233 121 l 1
 281 222 299 312 325 461 c 2
 342 548 l 1
 162 538 l 1
 188 639 l 1
 360 649 l 1
 385 786 l 1
 446 1108 641 1250 867 1250 c 0
 948 1250 1019 1244 1093 1211 c 1x70
EndSplineSet
EndChar

StartChar: currency
Encoding: 164 164 98
Width: 777
VWidth: 0
Flags: W
HStem: 216 98<338.658 559.419> 670 98<380.771 599.297>
LayerCount: 3
Fore
SplineSet
494 670 m 0
 402 670 329 600 312 494 c 0
 295 387 347 314 439 314 c 0
 535 314 611 383 628 487 c 0
 646 598 591 670 494 670 c 0
226 332 m 1
 206 373 198 436 206 489 c 0
 213 535 238 592 266 628 c 1
 190 713 l 1
 287 796 l 1
 352 708 l 1
 400 744 465 768 515 768 c 0
 569 768 629 748 664 718 c 1
 753 798 l 1
 816 710 l 1
 720 636 l 1
 735 598 741 538 733 490 c 0
 725 439 700 380 667 342 c 1
 748 256 l 1
 647 173 l 1
 581 264 l 1
 530 236 467 216 419 216 c 0
 379 216 330 233 292 258 c 1
 200 168 l 1
 129 254 l 1
 226 332 l 1
EndSplineSet
EndChar

StartChar: yen
Encoding: 165 165 99
Width: 1210
VWidth: 0
Flags: W
HStem: 0 81<383 412.161 856.654 869> 239 106<277 560 770 1065> 472 106<317 581 829 1105> 1168 76<322 341.715 713.938 766 926 956.2 1251.96 1301>
DStem2: 628 1130 428 1126 0.268913 -0.963165<0 506.484> 760 641 829 578 0.526673 0.850068<0 567.651>
LayerCount: 3
Fore
SplineSet
596 472 m 1
 289 472 l 1
 317 578 l 1
 581 578 l 1
 428 1126 l 1
 297 1168 l 1
 322 1244 l 1
 789 1244 l 1
 766 1168 l 1
 628 1130 l 1
 760 641 l 1
 1055 1126 l 1
 905 1168 l 1
 926 1244 l 1
 1323 1244 l 1
 1301 1168 l 1
 1171 1130 l 1
 829 578 l 1
 1133 578 l 1
 1105 472 l 1
 789 472 l 1
 770 345 l 1
 1093 345 l 1
 1065 239 l 1
 753 239 l 1
 733 114 l 1
 892 81 l 1
 869 0 l 1
 362 0 l 1
 383 74 l 1
 542 121 l 1
 560 239 l 1
 249 239 l 1
 277 345 l 1
 576 345 l 1
 596 472 l 1
EndSplineSet
EndChar

StartChar: brokenbar
Encoding: 166 166 100
Width: 569
VWidth: 0
Flags: W
VStem: 177 363
DStem2: 177 -350 286 -363 0.15612 0.987738<4.17653 790.782 905.64 1624.97>
LayerCount: 3
Fore
SplineSet
177 -350 m 1
 301 431 l 1
 410 419 l 1
 286 -363 l 1
 177 -350 l 1
319 540 m 1
 431 1255 l 1
 540 1244 l 1
 423 528 l 1
 319 540 l 1
EndSplineSet
EndChar

StartChar: section
Encoding: 167 167 101
Width: 734
VWidth: 0
Flags: W
HStem: -17 80<244.322 488.088> 1186 69<454.1 647.321>
VStem: 114 73<251.371 309> 694 67<956 1100.73>
LayerCount: 3
Fore
SplineSet
208 791 m 1
 547 570 l 2
 653 502 758 422 737 287 c 0
 707 100 507 -17 322 -17 c 0
 206 -17 121 28 68 102 c 1
 114 319 l 1
 187 309 l 1
 200 154 l 1
 230 101 284 63 347 63 c 0
 431 63 557 101 578 236 c 0
 604 408 152 444 200 746 c 0
 202 758 205 783 208 791 c 1
760 471 m 1
 467 656 l 1
 350 732 210 810 238 983 c 0
 268 1171 431 1255 588 1255 c 0
 657 1255 746 1237 809 1171 c 1
 807 1164 761 943 761 943 c 1
 694 956 l 1
 680 1113 l 1
 677 1131 624 1186 555 1186 c 0
 474 1186 412 1144 395 1040 c 0
 359 810 818 793 775 522 c 0
 772 501 768 489 760 471 c 1
EndSplineSet
EndChar

StartChar: dieresis
Encoding: 168 168 102
Width: 687
VWidth: 0
Flags: W
HStem: 1384 158<368.645 510.486 636.215 779.001>
VStem: 355 170<1398.54 1526.19> 623 171<1399.65 1526.65>
LayerCount: 3
Fore
SplineSet
720 1542 m 0
 765 1542 801 1511 794 1465 c 0
 786 1415 740 1384 695 1384 c 0
 652 1384 615 1415 623 1465 c 0
 631 1513 679 1542 720 1542 c 0
453 1542 m 0
 498 1542 532 1511 525 1465 c 0
 517 1415 473 1384 428 1384 c 0
 385 1384 347 1415 355 1465 c 0
 363 1513 412 1542 453 1542 c 0
540 1255 m 0
EndSplineSet
EndChar

StartChar: copyright
Encoding: 169 169 103
Width: 1382
VWidth: 0
Flags: W
HStem: -26 94<482.57 919.831> 261.31 100.406<680.615 839.755> 949.338 77.362<753.924 910.49> 1191 91<657.753 1081.06>
VStem: 152 116<290.796 765.762> 494.557 141.556<407.722 734.262> 888.774 114.397<866.328 936.119> 1311 114<483.344 955.995>
LayerCount: 3
Back
SplineSet
1098.07 1496.06 m 4
 714.196 1496.06 414.607 1215.93 347.564 792.641 c 4
 280.192 367.27 488.645 85.0732 872.514 85.0732 c 4
 1266.76 85.0732 1571.58 358.971 1636.66 769.816 c 4
 1705.67 1205.56 1490.24 1496.06 1098.07 1496.06 c 4
1777.65 782.265 m 4
 1700.09 292.572 1326.88 -33.2002 843.406 -33.2002 c 4
 384.837 -33.2002 129.009 290.497 206.24 778.115 c 4
 285.441 1278.18 649.272 1610.18 1116.14 1610.18 c 4
 1591.31 1610.18 1856.2 1278.18 1777.65 782.265 c 4
EndSplineSet
Refer: 28 99 S 0.823 0 0 0.823 559.585 358.971 2
Fore
SplineSet
874 1191 m 0
 568 1191 268 948 268 509 c 0
 268 273 388 68 694 68 c 0
 1008 68 1311 309 1311 743 c 0
 1311 971 1186 1191 874 1191 c 0
1425 765 m 0
 1425 248 1055 -26 670 -26 c 0
 305 -26 152 229 152 492 c 0
 152 974 516 1282 888 1282 c 0
 1266 1282 1425 1023 1425 765 c 0
EndSplineSet
Refer: 28 99 N 0.823 0 0 0.823 446 286 2
EndChar

StartChar: ordfeminine
Encoding: 170 170 104
Width: 404
VWidth: 0
Flags: W
HStem: 287 58<89 413> 406 43<169.5 264.295 415 423> 576 28<263.874 322> 737 39<245.254 323.257>
VStem: 173 50<665.704 721.526> 312 111<408.56 451>
DStem2: 309 492 378 507 0.156662 0.987652<-19.9126 84.9994 101.883 232.551>
LayerCount: 3
Back
SplineSet
112.262 433.67 m 5
 537.632 433.67 l 5
 517.828 361.045 l 5
 92.458 361.045 l 5
 112.262 433.67 l 5
405.192 724.166 m 5
 277.737 705.492 253.803 672.292 246.245 624.566 c 4
 239.673 583.067 257.463 564.393 292.737 564.393 c 4
 334.236 564.393 372.694 597.593 388.431 618.343 c 5
 405.192 724.166 l 5
460.896 512.52 m 4
 402.796 512.52 387.962 549.869 392.892 580.992 c 6
 393.877 587.219 l 5
 387.652 587.219 l 5
 365.465 551.943 304.944 510.444 238.545 510.444 c 4
 186.671 510.444 145.621 539.493 155.481 601.742 c 4
 166.982 674.367 225 726.24 410.78 759.44 c 5
 416.039 792.641 l 6
 426.882 861.114 420.473 925.439 354.073 925.439 c 4
 306.35 925.439 298.686 890.164 280.526 827.915 c 5
 253.551 827.915 212.382 829.99 220.269 879.789 c 4
 228.813 933.738 332.909 975.238 403.458 975.238 c 4
 492.683 975.238 520.071 925.439 503.311 819.615 c 6
 474.389 637.018 l 6
 467.159 591.368 473.158 576.843 519.896 570.618 c 6
 544.14 566.469 l 5
 531.014 522.894 l 5
 505.455 518.743 489.944 512.52 460.896 512.52 c 4
EndSplineSet
Fore
SplineSet
89 345 m 1
 428 345 l 1
 413 287 l 1
 74 287 l 1
 89 345 l 1
322 576 m 1
 221 561 204 535 197 497 c 0
 192 464 205 449 233 449 c 0
 266 449 296 475 309 492 c 1
 322 576 l 1
367 408 m 0
 321 408 309 437 312 462 c 2
 314 467 l 1
 309 467 l 1
 291 439 243 406 190 406 c 0
 149 406 122 430 122 466 c 0
 122 534 178 578 327 604 c 1
 332 631 l 2
 340 685 335 737 282 737 c 0
 244 737 238 709 223 659 c 1
 202 659 173 661 173 692 c 0
 173 740 264 776 320 776 c 0
 391 776 414 736 401 652 c 2
 378 507 l 2
 373 471 377 459 415 454 c 2
 433 451 l 1
 423 416 l 1
 403 413 390 408 367 408 c 0
EndSplineSet
EndChar

StartChar: guillemotleft
Encoding: 171 171 105
Width: 721
VWidth: 0
Flags: W
VStem: 154 606
LayerCount: 3
Fore
SplineSet
401 469 m 1
 725 821 l 1
 760 761 l 1
 547 461 l 1
 664 140 l 1
 601 78 l 1
 400 449 l 1
 401 469 l 1
154 469 m 1
 477 821 l 1
 512 761 l 1
 299 461 l 1
 416 140 l 1
 353 78 l 1
 152 449 l 1
 154 469 l 1
EndSplineSet
EndChar

StartChar: logicalnot
Encoding: 172 172 106
Width: 956
VWidth: 0
Flags: W
HStem: 558 106<200 824>
DStem2: 788 332 897 350 0.151111 0.988517<34.2644 228.845>
LayerCount: 3
Fore
SplineSet
200 664 m 1
 945 664 l 1
 897 350 l 1
 788 332 l 1
 824 558 l 1
 172 558 l 1
 200 664 l 1
EndSplineSet
EndChar

StartChar: uni00AD
Encoding: 173 173 107
Width: 569
VWidth: 0
Flags: W
HStem: 406 175
VStem: 144 444
DStem2: 170 522 144 406 0.989855 0.142084<0 380.066>
LayerCount: 3
Fore
SplineSet
170 522 m 1
 588 581 l 1
 562 466 l 1
 144 406 l 1
 170 522 l 1
EndSplineSet
EndChar

StartChar: registered
Encoding: 174 174 108
Width: 469
VWidth: 0
Flags: W
HStem: 837 33<293.167 449.319> 953 18<272 310 355 383> 1060 25<372 400> 1186 23<310 342 388.006 437.339> 1277 31<357.363 508.156>
VStem: 173 42<942.618 1133.84> 449 51<1104.55 1182.78> 595 39<1011.88 1195.65>
DStem2: 310 979 355 981 0.160455 0.987043<9.19457 89.2569 114.575 200.569>
LayerCount: 3
Back
SplineSet
791.879 1344.58 m 4
 763.946 1168.21 627.268 1052.01 450.895 1052.01 c 4
 286.971 1052.01 195.402 1168.21 223.008 1342.51 c 4
 251.599 1523.03 382.708 1643.38 550.781 1643.38 c 4
 723.004 1643.38 820.143 1523.03 791.879 1344.58 c 4
544.54 1603.96 m 4
 405.517 1603.96 298.111 1502.28 274.12 1350.81 c 4
 249.803 1197.26 324.669 1093.51 461.617 1093.51 c 4
 604.79 1093.51 719.836 1191.04 743.169 1338.36 c 4
 768.475 1498.13 685.638 1603.96 544.54 1603.96 c 4
510.565 1363.26 m 6
 539.616 1363.26 558.741 1392.31 564.656 1429.66 c 4
 570.9 1469.08 545.138 1489.83 505.713 1489.83 c 4
 497.413 1489.83 486.71 1487.76 486.71 1487.76 c 5
 466.991 1363.26 l 5
 510.565 1363.26 l 6
628.55 1440.03 m 4
 623.619 1408.91 597.938 1377.78 546.928 1357.03 c 5
 585.881 1288.56 l 6
 603.448 1255.36 618.837 1234.61 647.99 1222.16 c 5
 655.962 1220.08 l 5
 646.123 1197.26 l 5
 633.015 1193.11 624.714 1193.11 614.34 1193.11 c 4
 574.915 1193.11 548.392 1222.16 531.812 1261.58 c 6
 501.486 1332.13 l 5
 462.062 1332.13 l 5
 446.286 1232.54 l 5
 487.889 1220.08 l 5
 482.199 1197.26 l 5
 336.951 1197.26 l 5
 342.641 1220.08 l 5
 389.934 1230.46 l 5
 429.37 1479.46 l 5
 385.037 1487.76 l 5
 390.727 1510.58 l 5
 432.884 1514.73 475.04 1518.88 504.091 1518.88 c 4
 601.613 1518.88 636.766 1491.91 628.55 1440.03 c 4
EndSplineSet
Fore
SplineSet
634 1116 m 0
 634 938 498 837 358 837 c 0
 228 837 173 926 173 1017 c 0
 173 1204 304 1308 438 1308 c 0
 575 1308 634 1213 634 1116 c 0
433 1277 m 0
 322 1277 215 1186 215 1027 c 0
 215 948 258 870 367 870 c 0
 481 870 595 953 595 1113 c 0
 595 1199 545 1277 433 1277 c 0
406 1085 m 2
 429 1085 449 1116 449 1146 c 0
 449 1172 434 1186 403 1186 c 0
 396 1186 388 1184 388 1184 c 1
 372 1085 l 1
 406 1085 l 2
500 1153 m 0
 500 1127 477 1097 436 1080 c 1
 466 1026 l 2
 479 1000 492 983 515 973 c 1
 522 971 l 1
 514 953 l 1
 504 950 497 950 489 950 c 0
 458 950 436 973 423 1004 c 2
 400 1060 l 1
 368 1060 l 1
 355 981 l 1
 388 971 l 1
 383 953 l 1
 268 953 l 1
 272 971 l 1
 310 979 l 1
 342 1177 l 1
 307 1184 l 1
 310 1202 l 1
 343 1205 378 1209 401 1209 c 0
 479 1209 500 1193 500 1153 c 0
EndSplineSet
EndChar

StartChar: macron
Encoding: 175 175 109
Width: 701
VWidth: 0
Flags: W
HStem: 1379 101<372 783>
VStem: 342 471
LayerCount: 3
Fore
SplineSet
372 1480 m 1
 813 1480 l 1
 783 1379 l 1
 342 1379 l 1
 372 1480 l 1
545 1239 m 0
EndSplineSet
EndChar

StartChar: degree
Encoding: 176 176 110
Width: 404
VWidth: 0
Flags: W
HStem: 948 48<309.077 421.865> 1237 48<330.722 442.75>
VStem: 213 325
LayerCount: 3
Fore
SplineSet
390 1237 m 0
 331 1237 294 1181 286 1125 c 0
 276 1064 298 996 362 996 c 0
 416 996 452 1037 464 1110 c 0
 474 1173 453 1237 390 1237 c 0
408 1285 m 0
 504 1285 553 1217 538 1123 c 0
 523 1032 444 948 342 948 c 0
 250 948 196 1011 213 1113 c 0
 228 1205 314 1285 408 1285 c 0
EndSplineSet
EndChar

StartChar: plusminus
Encoding: 177 177 111
Width: 792
VWidth: 0
Flags: W
HStem: 13 104<117 697>
LayerCount: 3
Fore
SplineSet
117 117 m 5
 730 124 l 5
 697 20 l 5
 84 13 l 5
 117 117 l 5
EndSplineSet
Refer: 79 43 N 1 0 0.158384 1 35 66 2
EndChar

StartChar: uni00B2
Encoding: 178 178 112
Width: 259
VWidth: 0
Flags: W
HStem: 1011 43<248 367> 1268 33<287.366 341.059>
VStem: 231 38<1201.35 1252.93>
LayerCount: 3
Back
SplineSet
168.694 1620.97 m 5
 168.694 1310.97 l 21
 237.169 1298.52 l 13
 233.435 1268.02 l 5
 39.8408 1268.02 l 5
 42.9521 1296.03 l 5
 105.823 1313.46 l 5
 105.823 1562.46 l 5
 47.3096 1563.08 l 5
 50.4219 1592.34 l 5
 158.113 1620.97 l 5
 168.694 1620.97 l 5
EndSplineSet
Fore
SplineSet
269 1196 m 1
 239 1199 228 1207 231 1232 c 0
 236 1267 299 1301 337 1301 c 0
 380 1301 408 1268 401 1222 c 0
 393 1166 360 1141 292 1088 c 2
 248 1054 l 1
 380 1054 l 1
 367 1011 l 1
 190 1011 l 1
 193 1042 l 1
 292 1128 l 2
 320 1151 340 1179 345 1209 c 0
 350 1242 342 1268 312 1268 c 0
 284 1268 274 1226 269 1196 c 1
EndSplineSet
EndChar

StartChar: uni00B3
Encoding: 179 179 113
Width: 601
VWidth: 0
Flags: W
HStem: 938 30<246.834 315.95> 1103 28<253 288.528> 1268 33<292.957 351.785>
VStem: 195 44<970.973 1015.93> 236 36<1203.43 1247.2>
LayerCount: 3
Back
SplineSet
99.5986 1503.32 m 5
 62.249 1507.05 46.6875 1516.39 46.6875 1547.52 c 7
 46.6875 1591.09 116.405 1634.04 163.092 1634.04 c 7
 218.494 1634.04 261.446 1594.2 261.446 1535.07 c 7
 261.446 1465.35 225.963 1432.98 151.264 1368.24 c 6
 102.09 1323.42 l 13
 268.295 1323.42 l 21
 260.2 1269.88 l 13
 37.3496 1269.88 l 29
 34.8594 1308.48 l 21
 143.173 1416.79 l 22
 174.92 1446.67 193.595 1481.53 193.595 1518.26 c 7
 193.595 1559.34 175.542 1594.2 139.439 1594.2 c 7
 104.578 1594.2 99.5986 1540.05 99.5986 1503.32 c 5
EndSplineSet
Fore
SplineSet
358 1217 m 0xf0
 363 1243 350 1268 322 1268 c 0
 304 1268 280 1250 272 1199 c 1
 246 1201 233 1209 236 1229 c 0xe8
 243 1275 312 1301 345 1301 c 0
 390 1301 415 1266 410 1230 c 0
 403 1190 373 1153 337 1135 c 1
 335 1130 l 1
 381 1117 403 1078 396 1040 c 0
 388 989 338 938 277 938 c 0
 204 938 192 971 195 994 c 0
 198 1017 227 1027 239 1029 c 1
 239 998 241 968 277 968 c 0
 313 968 337 997 342 1032 c 0
 347 1067 327 1105 289 1105 c 0
 279 1105 265 1103 253 1103 c 1
 253 1111 249 1120 251 1130 c 2
 251 1131 l 1
 261 1134 346 1148 358 1217 c 0xf0
EndSplineSet
EndChar

StartChar: acute
Encoding: 180 180 114
Width: 619
VWidth: 0
Flags: W
HStem: 1349 357
VStem: 448 279
LayerCount: 3
Fore
SplineSet
727 1666 m 1
 494 1349 l 1
 448 1381 l 1
 623 1706 l 1
 727 1666 l 1
505 1239 m 0
EndSplineSet
EndChar

StartChar: uni00B5
Encoding: 181 181 115
Width: 867
VWidth: 0
Flags: W
HStem: -20 137<267.5 438.949> 771 76<88 134.657 515 581.841>
VStem: 10 124<-365.006 -241.056>
DStem2: 172 494 301 315 0.179909 0.983683<-320.473 246.051> 555 130 745 370 0.135113 0.99083<26.9004 621.701>
LayerCount: 3
Back
SplineSet
960.713 120.349 m 14
 1043.71 105.823 l 21
 1020.89 18.6748 l 5
 977.312 2.0752 912.989 -20.75 844.516 -20.75 c 7
 734.541 -20.75 682.666 33.2002 697.191 163.923 c 5
 684.741 163.923 l 5
 649.468 97.5234 520.818 -24.8994 354.821 -24.8994 c 7
 230.322 -24.8994 126.573 39.4248 172.224 331.996 c 10
 263.521 937.889 l 1
 99.5986 966.938 l 1
 112.049 1060.31 l 1
 466.869 1091.44 l 1
 491.77 1062.39 l 9
 392.171 471.02 l 18
 354.821 246.922 358.971 147.322 473.095 147.322 c 7
 589.293 147.322 657.767 209.573 699.267 251.072 c 13
 803.015 937.889 l 5
 634.942 966.938 l 5
 647.393 1060.31 l 5
 1006.36 1091.44 l 5
 1031.26 1062.39 l 5
 935.813 464.794 l 6
 888.09 165.997 902.613 130.724 960.713 120.349 c 14
EndSplineSet
Fore
SplineSet
299 -20 m 3
 236 -20 196 -7 178 23 c 1
 170 23 l 1
 168 -2 167 -37 162 -101 c 2
 134 -388 l 1
 10 -362 l 1
 17 -336 126 202 172 494 c 2
 211 737 l 1
 79 771 l 1
 88 847 l 1
 367 869 l 1
 386 844 l 1
 301 315 l 2
 276 165 308 117 377 117 c 0
 469 117 524 167 557 200 c 9
 639 746 l 1
 505 770 l 1
 515 844 l 1
 801 869 l 1
 821 846 l 1
 745 370 l 2
 707 132 719 104 765 96 c 10
 831 84 l 17
 813 15 l 1
 778 2 726 -17 672 -17 c 3
 584 -17 543 26 555 130 c 1
 545 130 l 1
 517 77 416 -20 299 -20 c 3
EndSplineSet
EndChar

StartChar: paragraph
Encoding: 182 182 116
Width: 1385
VWidth: 0
Flags: W
HStem: 0 81<524 556.095 1212.65 1229> 481 97<483.9 754.569> 1153 92<756.501 862> 1154 91<553.038 860.068 1409.52 1412>
VStem: 178 212<666.052 966.585>
DStem2: 699 121 864 114 0.156012 0.987755<18.8277 369.423 464.612 1044.79> 925 121 1075 114 0.155563 0.987826<16.4197 1017.34>
LayerCount: 3
Back
SplineSet
1317.22 1425.51 m 1
 1287.18 1419.28 l 1
 1085.07 143.173 l 1
 1111.38 139.023 l 1
 1161.08 151.474 l 1
 1361.22 1415.13 l 1
 1317.22 1425.51 l 1
1801.63 1562.46 m 1
 1774.06 1467.01 l 1
 1552.78 1419.28 l 1
 1350.66 143.173 l 1
 1572.33 101.674 l 1
 1543.78 0 l 1
 632.867 0 l 1
 658.03 93.374 l 1
 876.805 151.474 l 1
 949.436 610.043 l 1
 894.828 605.892 838.477 603.817 784.527 603.817 c 0
 456.681 603.817 169.941 693.042 228.113 1060.31 c 0
 275.437 1359.11 561.119 1564.53 866.14 1564.53 c 2
 1801.63 1562.46 l 1
1082.21 1448.33 m 1
 1030.66 1450.41 962.189 1450.41 949.738 1450.41 c 0
 679.992 1450.41 530.206 1330.06 494.713 1105.96 c 0
 460.862 892.239 552.846 726.24 826.742 726.24 c 0
 878.617 726.24 960.854 734.541 960.854 734.541 c 1
 968.168 728.316 l 1
 1082.21 1448.33 l 1
EndSplineSet
Fore
SplineSet
1049 1135 m 1xc8
 1024 1130 l 1
 864 114 l 1
 885 111 l 1
 925 121 l 1
 1083 1126 l 1
 1049 1135 l 1xc8
1433 1244 m 1
 1412 1168 l 1
 1235 1130 l 1
 1075 114 l 1
 1252 81 l 1
 1229 0 l 1
 504 0 l 1
 524 74 l 1
 699 121 l 1
 756 486 l 1
 713 483 667 481 624 481 c 0
 363 481 178 545 178 786 c 0
 178 1067 446 1245 689 1245 c 2xd8
 1433 1244 l 1
862 1153 m 1xe8
 821 1155 766 1154 756 1154 c 0xd8
 541 1154 390 1047 390 819 c 0
 390 703 439 578 657 578 c 0
 698 578 765 585 765 585 c 1
 771 580 l 1
 862 1153 l 1xe8
EndSplineSet
EndChar

StartChar: periodcentered
Encoding: 183 183 117
Width: 404
VWidth: 0
Flags: W
HStem: 381 237<131.051 299.595>
VStem: 96 238<417.125 583.125>
LayerCount: 3
Back
SplineSet
293.059 776.04 m 4
 376.058 776.04 434.674 713.791 421.859 632.867 c 4
 408.382 547.794 329.063 479.319 246.065 479.319 c 4
 163.066 479.319 120.349 523.908 120.349 610.043 c 4
 120.349 713.791 212.135 776.04 293.059 776.04 c 4
EndSplineSet
Fore
SplineSet
233 618 m 0
 299 618 334 568 334 505 c 0
 334 436 263 381 197 381 c 0
 131 381 96 417 96 486 c 0
 96 569 169 618 233 618 c 0
EndSplineSet
EndChar

StartChar: cedilla
Encoding: 184 184 118
Width: 384
VWidth: 0
Flags: W
HStem: -390 393
VStem: 30 236
LayerCount: 3
Fore
SplineSet
201 -76 m 1
 234 -109 276 -158 266 -226 c 0
 253 -305 162 -355 41 -390 c 1
 30 -330 l 1
 91 -310 124 -278 129 -248 c 0
 134 -213 105 -172 74 -137 c 1
 193 3 l 1
 268 3 l 1
 201 -76 l 1
226 0 m 0
EndSplineSet
EndChar

StartChar: uni00B9
Encoding: 185 185 119
Width: 221
VWidth: 0
Flags: W
HStem: 1009 23<198 249 299 345> 1244 46<273.279 281> 1244 23<239 281>
DStem2: 249 1045 299 1044 0.160494 0.987037<7.03765 201.556>
LayerCount: 3
Fore
SplineSet
339 1290 m 1xc0
 299 1044 l 1
 352 1034 l 1
 345 1009 l 1
 192 1009 l 1
 198 1032 l 1
 249 1045 l 1
 281 1244 l 1xc0
 235 1244 l 1
 239 1267 l 1xa0
 330 1290 l 1
 339 1290 l 1xc0
EndSplineSet
EndChar

StartChar: ordmasculine
Encoding: 186 186 120
Width: 404
VWidth: 0
Flags: W
HStem: 287 58<89 413> 401 40<228.267 322.453> 732 41<252.573 348.673>
VStem: 74 374
LayerCount: 3
Fore
SplineSet
89 345 m 1
 428 345 l 1
 413 287 l 1
 74 287 l 1
 89 345 l 1
206 601 m 0
 191 504 219 441 272 441 c 0
 323 441 359 489 372 575 c 0
 387 666 362 732 304 732 c 0
 254 732 219 689 206 601 c 0
448 588 m 0
 430 477 348 401 256 401 c 0
 150 401 113 479 130 583 c 0
 150 707 237 773 325 773 c 0
 424 773 466 699 448 588 c 0
EndSplineSet
EndChar

StartChar: guillemotright
Encoding: 187 187 121
Width: 721
VWidth: 0
Flags: W
LayerCount: 3
Fore
SplineSet
469 469 m 1
 258 821 l 1
 203 761 l 1
 320 461 l 1
 101 140 l 1
 144 78 l 1
 464 449 l 1
 469 469 l 1
717 469 m 1
 505 821 l 1
 451 761 l 1
 568 461 l 1
 348 140 l 1
 391 78 l 1
 712 449 l 1
 717 469 l 1
EndSplineSet
EndChar

StartChar: onequarter
Encoding: 188 188 122
Width: 1045
VWidth: 0
Flags: W
HStem: -116 42<715 756.861 908.736 950> -30 21G<151.111 246> 86 63<657 817 912 984> 502 38<155 209.851 351.355 403> 895 38<226 282.967>
DStem2: 134 -30 246 -21 0.650096 0.759852<79.6494 1302.88> 243 563 327 560 0.153863 0.988092<9.96026 334.225> 590 139 657 149 0.657679 0.753299<51.5975 369.94> 796 -54 879 -58 0.15691 0.987613<9.07312 141.561 221.65 449.327>
LayerCount: 3
Fore
SplineSet
872 462 m 1
 964 477 l 1
 912 152 l 1
 1004 152 l 1
 984 86 l 1
 902 86 l 1
 879 -58 l 1
 963 -74 l 1
 950 -116 l 1
 705 -116 l 1
 715 -78 l 1
 796 -54 l 1
 817 86 l 1
 588 86 l 1
 590 139 l 1
 872 462 l 1
829 149 m 1
 865 390 l 1
 657 149 l 1
 829 149 l 1
391 971 m 1
 327 560 l 1
 413 543 l 1
 403 502 l 1
 145 502 l 1
 155 540 l 1
 243 563 l 1
 296 893 l 1
 218 895 l 1
 226 933 l 1
 377 971 l 1
 391 971 l 1
981 960 m 1
 1088 968 l 1
 246 -21 l 1
 134 -30 l 1
 981 960 l 1
EndSplineSet
EndChar

StartChar: onehalf
Encoding: 189 189 123
Width: 1047
VWidth: 0
Flags: W
HStem: -30 21G<151.111 244> 0 71<771 971> 429 53<835.301 925.35> 502 38<155 208.604 349.922 401> 895 38<226 282.212>
VStem: 745 59<320.175 400.058>
DStem2: 134 -30 244 -21 0.650096 0.759852<78.3492 1302.88> 241 563 325 560 0.156209 0.987724<10.1584 334.228> 679 51 771 71 0.759257 0.650791<82.8674 341.565>
LayerCount: 3
Fore
SplineSet
804 310 m 1
 754 313 738 327 745 368 c 0
 755 426 855 482 918 482 c 0
 991 482 1039 430 1027 352 c 0
 1012 260 959 216 847 130 c 1
 771 71 l 1
 993 71 l 1
 971 0 l 1
 674 0 l 1
 679 51 l 1
 847 195 l 2
 895 235 927 280 935 330 c 0
 943 383 927 429 877 429 c 0
 831 429 812 358 804 310 c 1
390 971 m 1
 325 560 l 1
 413 543 l 1
 401 502 l 1
 145 502 l 1
 155 540 l 1
 241 563 l 1
 294 893 l 1
 218 895 l 1
 226 933 l 1
 375 971 l 1
 390 971 l 1
981 960 m 1
 1088 968 l 1
 244 -21 l 1
 134 -30 l 1
 981 960 l 1
EndSplineSet
EndChar

StartChar: threequarters
Encoding: 190 190 124
Width: 1056
VWidth: 0
Flags: W
HStem: -116 42<727 768.861 918.09 963> -30 21G<162.131 258> 86 63<670 829 923 996> 380 53<226.979 344.737> 657 47<236 295.199> 931 55<301.971 401.187>
VStem: 142 74<438.028 503.721> 210 58<827.841 896.119>
DStem2: 145 -30 258 -21 0.650539 0.759473<80.3461 1303.54> 599 139 670 149 0.661622 0.749838<54.4735 372.14> 808 -54 888 -58 0.15871 0.987325<8.74752 141.558 221.641 449.323>
LayerCount: 3
Fore
SplineSet
993 960 m 1xfc
 1100 968 l 1
 258 -21 l 1
 145 -30 l 1
 993 960 l 1xfc
839 149 m 1
 877 390 l 1
 670 149 l 1
 839 149 l 1
884 462 m 1
 974 477 l 1
 923 152 l 1
 1016 152 l 1
 996 86 l 1
 912 86 l 1
 888 -58 l 1
 973 -74 l 1
 963 -116 l 1
 715 -116 l 1
 727 -78 l 1
 808 -54 l 1
 829 86 l 1
 599 86 l 1
 599 139 l 1
 884 462 l 1
411 847 m 0
 418 892 397 931 352 931 c 0
 319 931 283 902 268 816 c 1
 227 819 205 832 210 865 c 0xfd
 223 944 336 986 390 986 c 0
 466 986 507 932 497 869 c 0
 487 803 438 739 377 708 c 1
 375 700 l 1
 451 679 484 618 474 552 c 0
 461 468 380 380 276 380 c 0
 157 380 135 436 142 476 c 0
 149 516 196 529 216 532 c 1xfe
 218 482 217 433 276 433 c 0
 337 433 376 479 386 538 c 0
 396 597 359 659 296 659 c 0
 279 659 256 657 236 657 c 1
 234 670 233 683 236 700 c 2
 236 704 l 1
 251 711 393 730 411 847 c 0
EndSplineSet
EndChar

StartChar: Aring
Encoding: 197 197 132
Width: 1276
VWidth: 0
Flags: W
HStem: 0 81<444.097 464 758 784.287 1244.97 1260> 421 101<436 791> 1409 38<623.376 710.859>
VStem: 543 55<1237.32 1391.66> 742 59<1229.63 1388.91>
DStem2: 154 129 289 124 0.370052 0.929011<45.3119 362.304 469.456 469.456> 758 1214 624 1024 0.325322 -0.945603<136.071 665.093 772.311 1081.93>
LayerCount: 3
Fore
SplineSet
677 1447 m 0
 753 1447 801 1392 801 1316 c 0
 801 1276 786 1240 758 1214 c 1
 1133 124 l 1
 1268 81 l 1
 1260 0 l 1
 746 0 l 1
 758 74 l 1
 930 129 l 1
 827 421 l 1
 400 421 l 1
 289 124 l 1
 476 81 l 1
 464 0 l 1
 8 0 l 1
 18 74 l 1
 154 129 l 1
 583 1206 l 1
 558 1229 543 1265 543 1310 c 0
 543 1384 601 1447 677 1447 c 0
667 1409 m 0
 619 1409 598 1363 598 1318 c 0
 598 1268 623 1215 674 1215 c 0
 717 1215 742 1248 742 1306 c 0
 742 1356 717 1409 667 1409 c 0
436 522 m 1
 791 522 l 1
 624 1024 l 1
 436 522 l 1
EndSplineSet
EndChar

StartChar: germandbls
Encoding: 223 223 156
Width: 431
VWidth: 0
Flags: W
HStem: -35 89<584.485 766.006> 2 74<20 73.8686> 784 68<147 194.388> 826 76<676.494 826.5> 1159 127<494.51 666.328>
VStem: 400 122<124.215 180.054> 499 145<582.208 752.905> 803 145<109.407 264.377>
DStem2: 144 109 287 0 0.153999 0.988071<0 683.118 788.495 984.309>
LayerCount: 3
Back
SplineSet
618.343 2.0752 m 5
 4.14941 2.0752 l 5
 24.8994 95.4492 l 5
 180.522 136.948 l 5
 313.321 985.613 l 5
 163.923 985.613 l 5
 184.673 1070.69 l 5xb8
 334.071 1116.34 l 5
 388.021 1386.08 599.668 1616.41 796.79 1616.41 c 7
 925.439 1616.41 1006.36 1572.83 1006.36 1473.23 c 20
 1006.36 1427.58 973.163 1369.48 877.714 1344.58 c 5
 861.114 1390.23 784.34 1456.63 705.492 1456.63 c 7
 601.742 1456.63 566.469 1315.53 547.794 1201.41 c 6
 379.721 136.948 l 5
EndSplineSet
Fore
SplineSet
997 763 m 0x9b
 997 675 950 622 869 614 c 1
 865 637 l 2
 853 787 812 826 766 826 c 3
 702 826 644 786 644 697 c 0x9b
 644 512 948 439 948 244 c 0
 948 72 754 -35 624 -35 c 3
 479 -35 400 43 400 122 c 0
 400 185 443 240 522 248 c 1x9d
 557 106 605 54 664 54 c 3
 725 54 803 98 803 182 c 0
 803 314 499 379 499 614 c 0
 499 759 639 902 817 902 c 3
 918 902 997 859 997 763 c 0x9b
287 0 m 1
 3 2 l 1
 20 76 l 1
 144 109 l 1
 249 784 l 1
 130 784 l 1
 147 852 l 1x69
 266 888 l 1
 309 1103 477 1286 634 1286 c 3
 736 1286 801 1252 801 1173 c 16
 801 1137 775 1090 699 1070 c 1
 686 1106 625 1159 562 1159 c 3
 479 1159 451 1047 436 956 c 2
 287 0 l 1
EndSplineSet
EndChar

StartChar: Uring
Encoding: 366 366 261
Width: 1369
VWidth: 0
Flags: W
HStem: -26 118<546.087 915.989> 1168 76<21 71.1467 489.62 553 888 940.781 1295 1358> 1471 48<856.216 969.427>
VStem: 193 192<266.986 1126> 751 76<1277.59 1452.98> 1007 71<1258.1 1444.66> 1059 125<243.194 1126>
LayerCount: 3
Fore
SplineSet
776 1257 m 1xfc
 763 1282 751 1313 751 1348 c 0
 751 1440 829 1519 923 1519 c 0
 1019 1519 1078 1452 1078 1358 c 0xfc
 1078 1313 1063 1274 1035 1244 c 1
 1369 1244 l 1
 1358 1168 l 1
 1191 1130 l 1
 1184 499 l 2
 1181 114 976 -26 669 -26 c 0
 481 -26 193 48 193 469 c 2
 193 1126 l 1
 8 1168 l 1
 21 1244 l 1
 563 1244 l 1
 553 1168 l 1
 385 1130 l 1
 385 494 l 2
 385 208 528 92 733 92 c 0
 1034 92 1059 326 1059 481 c 2xfa
 1060 1126 l 1
 879 1168 l 1
 888 1244 l 1
 918 1244 l 2
 972 1244 1007 1271 1007 1344 c 0
 1007 1407 975 1471 912 1471 c 0
 853 1471 827 1415 827 1359 c 0
 827 1336 832 1311 842 1290 c 1
 776 1257 l 1xfc
EndSplineSet
EndChar

StartChar: uring
Encoding: 367 367 262
Width: 1030
VWidth: 0
Flags: W
HStem: -23 137<375.977 543.661> -5 84<945 981> 775 90<520 564.613> 1102 51<532.1 649.519>
VStem: 160 169<161.307 738> 426 76<910.456 1083.21> 670 166<110.471 130 156.27 733> 684 72<900.129 1078.2>
LayerCount: 3
Fore
SplineSet
585 872 m 2xbe
 631 877 684 905 684 978 c 0
 684 1041 654 1102 591 1102 c 0
 532 1102 502 1049 502 993 c 0
 502 968 507 943 519 920 c 1
 453 895 l 1
 438 921 426 943 426 981 c 0
 426 1073 505 1153 599 1153 c 0
 695 1153 756 1085 756 991 c 0xbd
 756 950 736 912 705 884 c 1
 814 893 l 1
 836 869 l 1
 836 215 l 2
 836 109 879 104 945 89 c 2
 989 79 l 1
 981 -5 l 1x7e
 918 -20 888 -23 829 -23 c 0
 728 -23 682 39 682 122 c 0
 682 127 682 125 682 130 c 1
 670 130 l 1
 579 29 495 -23 383 -23 c 0
 254 -23 160 53 160 268 c 2
 160 738 l 1
 23 793 l 1
 36 872 l 1
 306 893 l 1
 329 869 l 1
 329 317 l 2
 329 167 393 114 484 114 c 0
 575 114 619 150 670 190 c 1
 670 733 l 1
 510 775 l 1
 520 865 l 1
 585 872 l 2xbe
EndSplineSet
EndChar

StartChar: dotaccent
Encoding: 729 729 327
Width: 573
VWidth: 0
Flags: W
HStem: 1067 236<203.925 387.696>
VStem: 175 241<1095.47 1276.41>
LayerCount: 3
Fore
SplineSet
294 1303 m 27
 360 1303 416 1253 416 1189 c 27
 416 1121 360 1067 294 1067 c 27
 228 1067 175 1123 175 1191 c 27
 175 1255 231 1303 294 1303 c 27
EndSplineSet
EndChar

StartChar: notequal
Encoding: 8800 8800 331
Width: 685
VWidth: 0
Flags: W
HStem: 319 105<68 172 373 604> 558 106<71 339 542 608>
VStem: 40 594
DStem2: 40 129 168 132 0.573297 0.819348<75.8401 231.351 432.615 522.916 726.146 809.729>
LayerCount: 3
Fore
SplineSet
502 794 m 1
 634 798 l 1
 542 664 l 1
 619 664 l 1
 608 558 l 1
 467 558 l 1
 373 424 l 1
 616 424 l 1
 604 319 l 1
 301 319 l 1
 168 132 l 1
 40 129 l 1
 172 319 l 1
 56 319 l 1
 68 424 l 1
 246 424 l 1
 339 558 l 1
 59 558 l 1
 71 664 l 1
 413 664 l 1
 502 794 l 1
EndSplineSet
EndChar

StartChar: quoteright
Encoding: 8217 8217 332
Width: 379
VWidth: 0
Flags: W
HStem: 816 66<41.2664 58.7149>
VStem: 155 200<1001.44 1235.2>
LayerCount: 3
Fore
SplineSet
17 882 m 21
 119 945 155 1034 155 1097 c 7
 155 1158 129 1207 111 1220 c 5
 157 1265 198 1280 238 1280 c 7
 307 1280 355 1220 355 1141 c 7
 355 1045 279 885 48 816 c 13
 17 882 l 21
EndSplineSet
EndChar

StartChar: quoteleft
Encoding: 8216 8216 333
Width: 379
VWidth: 0
Flags: W
HStem: 1219 66<321.285 338.734>
VStem: 25 200<865.297 1099.56>
LayerCount: 3
Fore
SplineSet
363 1219 m 17
 261 1156 225 1067 225 1004 c 3
 225 943 251 893 269 880 c 1
 223 835 182 821 142 821 c 3
 73 821 25 881 25 960 c 3
 25 1056 101 1216 332 1285 c 9
 363 1219 l 17
EndSplineSet
EndChar

StartChar: quotesinglbase
Encoding: 8218 8218 334
Width: 379
VWidth: 0
Flags: W
HStem: -243 66<49.2664 66.7149>
VStem: 163 200<-56.4406 177.658>
LayerCount: 3
Fore
SplineSet
25 -177 m 17
 127 -114 163 -24 163 40 c 3
 163 99 137 148 119 163 c 1
 165 206 206 221 246 221 c 3
 315 221 363 164 363 83 c 3
 363 -11 287 -174 56 -243 c 9
 25 -177 l 17
EndSplineSet
EndChar

StartChar: quotereversed
Encoding: 8219 8219 335
Width: 371
VWidth: 0
Flags: W
HStem: 816 66<304.285 321.951>
VStem: 8 200<1001.44 1235.2>
LayerCount: 3
Fore
SplineSet
347 882 m 9
 315 816 l 17
 84 885 8 1045 8 1141 c 3
 8 1220 57 1280 126 1280 c 3
 166 1280 207 1265 253 1220 c 1
 235 1207 208 1158 208 1097 c 3
 208 1034 245 945 347 882 c 9
EndSplineSet
EndChar

StartChar: quotedblleft
Encoding: 8220 8220 336
Width: 634
VWidth: 0
Flags: W
HStem: 1219 66<321.285 338.734 575.285 592.951>
VStem: 25 200<865.297 1099.56> 279 200<865.297 1099.56>
LayerCount: 3
Fore
SplineSet
618 1219 m 21
 516 1156 479 1067 479 1004 c 7
 479 943 506 893 524 880 c 5
 478 835 436 821 396 821 c 7
 327 821 279 881 279 960 c 7
 279 1056 355 1216 586 1285 c 13
 618 1219 l 21
363 1219 m 21
 261 1156 225 1067 225 1004 c 7
 225 943 251 893 269 880 c 5
 223 835 182 821 142 821 c 7
 73 821 25 881 25 960 c 7
 25 1056 101 1216 332 1285 c 13
 363 1219 l 21
EndSplineSet
EndChar

StartChar: quotedblright
Encoding: 8221 8221 337
Width: 634
VWidth: 0
Flags: W
HStem: 817 67<41.3669 58.7149 295.367 312.715>
VStem: 155 200<1002.98 1237.2> 410 199<1002.98 1237.2>
LayerCount: 3
Back
SplineSet
20.75 1108.04 m 21
 149.398 1186.89 195.048 1298.93 195.048 1377.78 c 7
 195.048 1454.56 161.848 1516.81 139.023 1533.41 c 5
 197.123 1589.43 248.997 1608.11 298.796 1608.11 c 7
 385.944 1608.11 446.119 1533.41 446.119 1433.81 c 7
 446.119 1313.46 350.671 1112.19 60.1738 1025.04 c 13
 20.75 1108.04 l 21
EndSplineSet
Fore
SplineSet
17 884 m 17
 119 947 155 1035 155 1098 c 3
 155 1159 129 1209 111 1222 c 1
 157 1267 198 1282 238 1282 c 3
 307 1282 355 1222 355 1143 c 3
 355 1047 279 886 48 817 c 9
 17 884 l 17
271 884 m 17
 373 947 410 1035 410 1098 c 3
 410 1159 383 1209 365 1222 c 1
 411 1267 452 1282 492 1282 c 3
 561 1282 609 1222 609 1143 c 3
 609 1047 533 886 302 817 c 9
 271 884 l 17
EndSplineSet
EndChar

StartChar: thorn
Encoding: 254 254 338
Width: 1005
VWidth: 0
Flags: W
HStem: -367 80<28 88.5298 437.276 487> -13 105<404.477 638.994> 766 131<463.578 651.034>
VStem: 180 164<-251 712.596 750.755 1108> 732 188<243.675 670.322>
LayerCount: 3
Fore
SplineSet
178 1108 m 25
 26 1161 l 25
 40 1237 l 17
 322 1258 l 1
 347 1235 l 1
 347 849 l 1
 332 745 l 1
 344 745 l 1
 403 811 481 897 613 897 c 3
 783 897 920 741 920 469 c 3
 920 190 738 -13 505 -13 c 3
 472 -13 438 -10 405 2 c 1
 402 20 398 43 398 66 c 3
 398 74 399 94 401 102 c 1
 431 95 461 92 489 92 c 3
 699 92 732 261 732 408 c 3
 732 646 668 766 542 766 c 3
 456 766 389 721 344 675 c 9
 344 -251 l 9
 499 -286 l 25
 487 -367 l 17
 20 -367 l 9
 28 -287 l 25
 180 -251 l 25
 178 1108 l 25
EndSplineSet
EndChar

StartChar: Thorn
Encoding: 222 222 339
Width: 1017
VWidth: 0
Flags: W
HStem: -2 75<33 85.3576 558.515 616> 259 91<454.757 693.559> 926 98<393 681.074> 1168 76<30 81.7813 498.865 563>
VStem: 201 192<121 923.421 1021 1126> 811 206<480.663 796.48>
LayerCount: 3
Fore
SplineSet
201 119 m 1
 201 1126 l 1
 20 1168 l 1
 30 1244 l 1
 573 1244 l 1
 563 1168 l 1
 393 1130 l 1
 393 1021 l 1
 434 1023 476 1024 517 1024 c 0
 778 1024 1017 953 1017 661 c 0
 1017 423 816 259 573 259 c 0
 537 259 498 261 457 266 c 1
 449 291 441 310 441 350 c 1
 459 348 475 350 492 350 c 0
 707 350 811 446 811 624 c 0
 811 794 717 926 499 926 c 0
 458 926 393 920 393 920 c 1
 393 121 l 1
 629 83 l 1
 616 -2 l 1
 23 -2 l 1
 33 73 l 1
 201 119 l 1
EndSplineSet
EndChar

StartChar: eth
Encoding: 240 240 340
Width: 954
VWidth: 0
Flags: W
HStem: -26 97<387.687 619.815> 855 93<351.52 558>
VStem: 83 178<234.213 686.095> 699 173<225.236 660.327>
DStem2: 322 1106 312 1031 0.978248 0.207441<0 171.399 342.387 432.414>
LayerCount: 3
Back
SplineSet
344.445 626.643 m 5
 348.597 284.271 471.02 89.2236 645.316 89.2236 c 4
 840.364 89.2236 894.314 263.521 894.314 533.269 c 4
 894.314 859.039 773.966 1074.84 597.593 1074.84 c 4
 414.995 1074.84 344.445 896.389 344.445 626.643 c 5
1116.34 585.143 m 4
 1116.34 197.123 886.015 -33.2002 616.268 -33.2002 c 4
 267.671 -33.2002 124.498 261.446 124.498 566.469 c 4
 124.498 937.889 348.597 1191.04 639.092 1191.04 c 4
 689.894 1191.04 736.886 1185.21 779.949 1173.74 c 5
 716.257 1343.55 644.668 1458.08 616.268 1504.36 c 5
 703.416 1576.98 l 5
 767.741 1516.81 1116.34 1232.54 1116.34 585.143 c 4
EndSplineSet
Fore
SplineSet
872 466 m 0
 872 157 692 -26 477 -26 c 0
 200 -26 83 208 83 451 c 0
 83 747 263 948 476 948 c 0
 516 948 603 931 631 857 c 1
 637 859 l 1
 616 930 570 1001 527 1072 c 1
 312 1031 l 1
 322 1106 l 1
 490 1140 l 1
 444 1206 393 1263 350 1303 c 1
 467 1303 l 1
 500 1283 558 1240 619 1171 c 1
 770 1201 l 1
 760 1125 l 1
 672 1106 l 1
 776 967 872 758 872 466 c 0
261 499 m 1
 264 227 361 71 500 71 c 0
 655 71 699 209 699 424 c 0
 699 659 578 852 462 855 c 0
 317 860 261 714 261 499 c 1
EndSplineSet
EndChar

StartChar: Eth
Encoding: 208 208 341
Width: 1321
VWidth: 0
Flags: W
HStem: 0 104<395 817.766> 0 74<31 75.8326> 1135 76<40 113.193> 1158 102<399.394 753.586>
VStem: 203 192<129 570 672 1105> 1073 215<434.152 841.339>
DStem2: 35 647 23 555 0.997241 0.0742283<0 161.821 360.863 600.914>
LayerCount: 3
Fore
SplineSet
1288 659 m 0x1c
 1288 334 1024 0 530 0 c 2x9c
 18 0 l 1
 31 74 l 1
 203 129 l 1
 203 570 l 1
 23 555 l 1
 35 647 l 1
 203 661 l 1
 203 1105 l 1
 31 1135 l 1
 40 1211 l 1x6c
 237 1242 408 1260 553 1260 c 0
 1115 1260 1288 968 1288 659 c 0x1c
395 581 m 1
 395 104 l 1
 606 104 l 2
 935 104 1073 342 1073 598 c 0
 1073 905 890 1158 517 1158 c 0
 476 1158 436 1156 395 1151 c 1
 395 672 l 1
 652 694 l 1
 641 601 l 1
 395 581 l 1
EndSplineSet
EndChar

StartChar: ae
Encoding: 230 230 342
Width: 1261
VWidth: 0
Flags: W
HStem: -25 109<258.299 428.233 828.31 1100.94> 410 74<376.422 527> 801 97<275.64 468.671 781.276 974.325>
VStem: 66 175<102.32 298.211> 107 137<653.984 774.512> 527 163<249.428 410 507 691.391> 1012 177<542.283 762.354>
LayerCount: 3
Fore
SplineSet
527 410 m 17xf6
 276 370 241 299 241 203 c 3
 241 122 280 84 353 84 c 3
 434 84 527 159 527 243 c 2
 527 410 l 17xf6
690 507 m 9
 1004 543 l 1
 1009 560 1012 597 1012 614 c 3
 1012 733 968 801 872 801 c 3
 791 801 700 702 690 507 c 9
573 175 m 1
 525 68 405 -25 263 -25 c 0
 157 -25 66 35 66 157 c 0xf6
 66 304 165 418 527 484 c 1
 527 540 l 2
 527 675 494 801 362 801 c 0
 266 801 259 732 244 608 c 1
 191 608 107 613 107 712 c 0xee
 107 821 304 902 443 902 c 0
 555 902 616 860 644 776 c 1
 723 855 826 898 922 898 c 0
 1067 898 1189 792 1189 581 c 0
 1189 550 1179 481 1171 446 c 1
 690 426 l 1
 698 269 781 86 968 86 c 0
 1039 86 1092 99 1196 155 c 1
 1215 104 l 1
 1136 21 1019 -30 887 -30 c 0
 773 -30 659 27 586 139 c 0
 581 147 576 160 573 175 c 1
EndSplineSet
EndChar

StartChar: AE
Encoding: 198 198 343
Width: 1692
VWidth: 0
Flags: W
HStem: 0 121<812.282 865> 0 96<1047 1511> 0 74<699 748.718> 472 96<558 865> 586 94<1047 1290> 1153 91<1047 1485>
VStem: 865 182<121 472 568 586 680 1059> 1323 86<424 486.459> 1526 86<941 1015.13>
DStem2: 154 130 289 126 0.539075 0.842258<69.4061 477.267 586.695 1166.82>
LayerCount: 3
Fore
SplineSet
867 1059 m 1x1f80
 558 568 l 1
 865 568 l 1
 867 1059 l 1x1f80
865 472 m 1
 505 472 l 1
 289 126 l 1
 476 83 l 1
 464 2 l 1
 8 2 l 1
 18 76 l 1
 154 130 l 1
 867 1244 l 1
 1643 1244 l 1
 1612 928 l 1
 1526 941 l 1
 1485 1153 l 1
 1047 1153 l 1
 1047 680 l 1
 1305 680 l 1
 1348 803 l 1
 1442 809 l 1
 1409 424 l 1
 1323 410 l 1
 1290 586 l 1
 1047 586 l 1
 1047 96 l 1
 1511 96 l 1x5f80
 1610 329 l 1
 1691 314 l 1
 1661 0 l 1x3f80
 1184 0 l 1x5f80
 743 0 l 1
 690 0 l 1
 699 74 l 1x3f80
 862 121 l 1
 865 121 l 1x9f80
 865 472 l 1
EndSplineSet
EndChar

StartChar: dotlessi
Encoding: 305 305 344
Width: 573
VWidth: 0
Flags: W
HStem: 0 79<61 119.894 478.007 528>
VStem: 213 167<116 738>
LayerCount: 3
Fore
SplineSet
61 79 m 25
 213 116 l 25
 213 738 l 25
 61 793 l 25
 74 869 l 17
 355 892 l 1
 380 867 l 1
 380 116 l 9
 540 81 l 25
 528 0 l 17
 50 0 l 9
 61 79 l 25
EndSplineSet
EndChar

StartChar: divide
Encoding: 247 247 346
Width: 682
VWidth: 0
Flags: W
HStem: 149 236<242.73 426.509> 499 105<40 642> 712 236<243.925 426.509>
VStem: 215 239<177.065 359.304 740.472 922.304>
LayerCount: 3
Fore
SplineSet
334 948 m 27
 400 948 454 898 454 834 c 27
 454 766 400 712 334 712 c 27
 268 712 215 768 215 836 c 27
 215 900 270 948 334 948 c 27
334 385 m 27
 400 385 454 335 454 271 c 27
 454 203 400 149 334 149 c 27
 268 149 215 204 215 272 c 27
 215 336 270 385 334 385 c 27
40 604 m 17
 654 604 l 1
 642 499 l 1
 28 499 l 9
 40 604 l 17
EndSplineSet
EndChar

StartChar: multiply
Encoding: 215 215 347
Width: 569
VWidth: 0
Flags: W
HStem: 228 457
VStem: 53 467
DStem2: 135 685 53 619 0.706194 -0.708019<0 209.44 322.44 536.123> 53 310 119 228 0.724052 0.689745<0 217.069 325.849 543.676>
LayerCount: 3
Back
SplineSet
425.369 514.594 m 5
 427.445 259.372 l 5
 288.422 273.896 l 5
 288.422 514.594 l 5
 51.875 514.594 l 5
 66.3984 641.167 l 5
 288.422 641.167 l 5
 288.422 890.164 l 5
 423.295 875.64 l 5
 425.369 641.167 l 5
 659.842 641.167 l 5
 645.316 514.594 l 5
 425.369 514.594 l 5
EndSplineSet
Fore
SplineSet
284 388 m 1
 119 228 l 1
 53 310 l 1
 208 462 l 1
 53 619 l 1
 135 685 l 1
 289 532 l 1
 454 692 l 1
 520 608 l 1
 363 457 l 1
 522 297 l 1
 439 231 l 1
 284 388 l 1
EndSplineSet
EndChar

StartChar: Oslash
Encoding: 216 216 348
Width: 1334
VWidth: 0
Flags: W
HStem: -26 105<506.675 874.529> 1176 97<470.489 830.186>
VStem: 50 221<377.302 872.352> 1080 220<376.951 854.956>
DStem2: 83 -56 236 -48 0.561336 0.827588<92.5052 235.334 452.392 1379.14 1545.12 1627.79>
LayerCount: 3
Fore
SplineSet
1300 619 m 0
 1300 274 1055 -26 639 -26 c 0
 517 -26 406 8 315 71 c 1
 236 -48 l 1
 83 -56 l 1
 221 154 l 1
 112 271 50 434 50 619 c 0
 50 1004 310 1273 708 1273 c 0
 794 1273 876 1255 945 1224 c 1
 994 1293 l 1
 1151 1301 l 1
 1052 1159 l 1
 1209 1040 1300 839 1300 619 c 0
661 1176 m 0
 360 1176 271 938 271 677 c 0
 271 551 291 423 339 317 c 1
 864 1110 l 1
 808 1151 740 1176 661 1176 c 0
955 1019 m 1
 410 203 l 1
 474 127 567 79 689 79 c 0
 993 79 1080 327 1080 573 c 0
 1080 733 1041 902 955 1019 c 1
EndSplineSet
EndChar

StartChar: oslash
Encoding: 248 248 349
Width: 957
VWidth: 0
Flags: W
HStem: -26 97<394.367 606.106> 801 101<348.791 546.718>
VStem: 84 182<221.712 656.093> 690 184<215.643 655.085>
DStem2: 175 -71 304 -63 0.406389 0.9137<59.7338 129.654 319.735 871.808 1040.95 1108.55>
LayerCount: 3
Fore
SplineSet
874 441 m 0
 874 162 705 -26 472 -26 c 0
 419 -26 371 -20 330 -5 c 1
 304 -63 l 1
 175 -71 l 1
 230 53 l 1
 133 134 84 267 84 426 c 0
 84 736 277 902 497 902 c 0
 533 902 568 898 599 890 c 1
 623 943 l 1
 755 951 l 1
 708 841 l 1
 817 765 874 623 874 441 c 0
548 778 m 1
 522 793 492 801 461 801 c 0
 337 801 266 690 266 474 c 0
 266 372 282 286 312 218 c 1
 548 778 l 1
634 679 m 1
 393 109 l 1
 424 84 459 71 497 71 c 0
 626 71 690 191 690 406 c 0
 690 515 670 610 634 679 c 1
EndSplineSet
EndChar

StartChar: A
Encoding: 65 65 350
Width: 1278
VWidth: 1691
Flags: W
HStem: 0 81<464.632 471 776 803.816> 433 100<528 880>
DStem2: 182 129 317 124 0.482889 0.875681<60.8116 408.177 520.855 520.855> 950 1268 794 1034 0.181381 -0.983413<201.823 710.112 811.174 1121.56>
LayerCount: 3
Fore
SplineSet
950 1268 m 1
 1161 124 l 1
 1290 81 l 1
 1268 0 l 1
 753 0 l 1
 776 74 l 1
 958 129 l 1
 895 433 l 1
 476 433 l 1
 317 124 l 1
 495 81 l 1
 471 0 l 1
 2 0 l 1
 23 74 l 1
 182 129 l 1
 793 1237 l 1
 950 1268 l 1
528 533 m 1
 880 533 l 1
 794 1034 l 1
 528 533 l 1
EndSplineSet
EndChar

StartChar: B
Encoding: 66 66 351
Width: 1127
VWidth: 1691
Flags: W
HStem: 0 96<410 794.203> 0 74<46 99.9888> 604 85<515 852.15> 1135 76<253 308.848> 1171 86<598.02 851.776>
VStem: 948 201<265.58 524.394 857.061 1087.12>
DStem2: 223 121 410 96 0.173364 0.984858<7.79771 523.535 610.022 998.919>
LayerCount: 3
Fore
SplineSet
722 604 m 2xa4
 499 604 l 1
 410 96 l 1
 613 96 l 2
 843 96 948 250 948 390 c 0
 948 501 876 604 722 604 c 2xa4
882 680 m 1
 880 672 l 1
 1062 662 1149 542 1149 421 c 0
 1149 229 950 0 507 0 c 2xac
 23 0 l 1
 46 74 l 1
 223 121 l 1
 395 1105 l 1
 230 1135 l 1
 253 1211 l 1x74
 402 1232 576 1257 753 1257 c 0x2c
 1032 1257 1143 1136 1143 1002 c 0
 1143 898 1080 748 882 680 c 1
598 1164 m 1
 515 689 l 1
 723 689 l 2
 858 689 945 796 945 955 c 0
 945 1062 885 1171 679 1171 c 0
 654 1171 626 1169 598 1164 c 1
EndSplineSet
EndChar

StartChar: C
Encoding: 67 67 352
Width: 1111
VWidth: 1691
Flags: W
HStem: -25 131<558.21 878.015> 1174 96<650.633 997.982>
VStem: 132 223<325.879 739.658> 1070 84<851 894.344>
LayerCount: 3
Fore
SplineSet
355 538 m 0
 360 241 537 106 742 106 c 0
 858 106 973 146 1100 258 c 1
 1123 243 1136 228 1143 203 c 1
 991 33 800 -25 637 -25 c 0
 366 -25 139 153 132 482 c 0
 125 806 376 1270 893 1270 c 0
 1025 1270 1153 1242 1237 1169 c 1
 1154 837 l 1
 1070 851 l 1
 1062 1070 l 1
 1026 1129 946 1174 817 1174 c 0
 573 1174 348 923 355 538 c 0
EndSplineSet
EndChar

StartChar: D
Encoding: 68 68 353
Width: 1327
VWidth: 1691
Flags: W
HStem: 0 104<411 783.183> 0 74<43 90.4391> 1133 76<231 289.804> 1156 102<576.833 921.226>
VStem: 1166 225<537.605 910.139>
DStem2: 225 129 411 104 0.155963 0.987763<4.31496 985.787>
LayerCount: 3
Fore
SplineSet
576 1149 m 1x98
 411 104 l 1
 558 104 l 2
 931 104 1171 389 1166 704 c 0
 1161 957 1017 1156 697 1156 c 0
 656 1156 617 1154 576 1149 c 1x98
1391 768 m 0
 1398 385 1041 0 499 0 c 2x98
 18 0 l 1
 43 74 l 1
 225 129 l 1
 377 1103 l 1
 210 1133 l 1
 231 1209 l 1x68
 432 1240 606 1258 751 1258 c 0
 1232 1258 1386 1029 1391 768 c 0
EndSplineSet
EndChar

StartChar: E
Encoding: 69 69 354
Width: 1075
VWidth: 1691
Flags: W
HStem: 0 96<415 912> 0 74<51 104.379> 583 94<507 768> 1153 91<580 1052> 1168 76<230 268.416>
VStem: 775 87<421 480.81> 1062 84<938 982.888>
DStem2: 226 121 415 96 0.154234 0.988034<4.44943 497.498 592.687 1017.5>
LayerCount: 3
Fore
SplineSet
230 1244 m 1x6e
 1225 1244 l 1x6e
 1146 925 l 1
 1062 938 l 1
 1052 1153 l 1
 580 1153 l 1
 507 677 l 1
 798 677 l 1
 859 796 l 1
 955 809 l 1
 862 421 l 1
 775 408 l 1
 768 583 l 1
 492 583 l 1
 415 96 l 1
 912 96 l 1xb6
 1045 325 l 1
 1128 314 l 1
 1047 0 l 1
 31 0 l 1
 51 74 l 1
 226 121 l 1
 385 1126 l 1
 208 1168 l 1
 230 1244 l 1x6e
EndSplineSet
EndChar

StartChar: F
Encoding: 70 70 355
Width: 1028
VWidth: 1691
Flags: W
HStem: 0 74<51 104.379 580.008 623> 578 92<505 765> 1153 91<580 1045> 1168 76<230 268.416>
VStem: 768 91<413 478.179> 1049 86<936 974.706>
DStem2: 226 121 418 122 0.155224 0.987879<30.791 492.44 585.653 1017.5>
LayerCount: 3
Fore
SplineSet
230 1244 m 1xdc
 1224 1244 l 1xdc
 1135 923 l 1
 1049 936 l 1
 1045 1153 l 1
 580 1153 l 1xec
 505 670 l 1
 793 670 l 1
 854 791 l 1
 945 804 l 1
 859 413 l 1
 768 398 l 1
 765 578 l 1
 490 578 l 1
 418 122 l 1
 649 84 l 1
 623 0 l 1
 31 0 l 1
 51 74 l 1
 226 121 l 1
 385 1126 l 1
 208 1168 l 1
 230 1244 l 1xdc
EndSplineSet
EndChar

StartChar: G
Encoding: 71 71 356
Width: 1276
VWidth: 1691
Flags: W
HStem: -31 107<577.842 950.661> 472 83<796 803.297 1307.66 1329> 1161 99<653.555 1058.52>
VStem: 130 228<321.358 744.451> 1151 86<855 901.739>
DStem2: 953 122 1143 88 0.152057 0.988372<-32.5073 315.671>
LayerCount: 3
Fore
SplineSet
1313 1163 m 1
 1237 841 l 1
 1151 855 l 1
 1146 1047 l 1
 1111 1100 1018 1161 836 1161 c 0
 600 1161 350 999 358 538 c 0
 363 290 492 76 763 76 c 0
 867 76 925 99 953 122 c 1
 1001 434 l 1
 771 472 l 1
 796 555 l 1
 1353 555 l 1
 1329 481 l 1
 1197 439 l 1
 1143 88 l 1
 1031 15 847 -31 626 -31 c 0
 282 -31 135 200 130 466 c 0
 122 966 529 1260 902 1260 c 0
 1095 1260 1222 1229 1313 1163 c 1
EndSplineSet
EndChar

StartChar: H
Encoding: 72 72 357
Width: 1416
VWidth: 1691
Flags: W
HStem: 0 81<51 83.095 558.985 573 875 906.912 1379.65 1395> 590 102<510 1123> 1168 76<230 268.416 687.733 753 1052 1089.76 1509.11 1574>
DStem2: 226 121 419 114 0.156512 0.987676<23.293 505.165 608.412 1017.5> 1049 121 1242 114 0.155563 0.987826<23.1089 475.79 577.894 1017.34>
LayerCount: 3
Fore
SplineSet
573 0 m 1
 31 0 l 1
 51 74 l 1
 226 121 l 1
 385 1126 l 1
 208 1168 l 1
 230 1244 l 1
 775 1244 l 1
 753 1168 l 1
 580 1130 l 1
 510 692 l 1
 1138 692 l 1
 1207 1126 l 1
 1029 1168 l 1
 1052 1244 l 1
 1597 1244 l 1
 1574 1168 l 1
 1402 1130 l 1
 1242 114 l 1
 1419 81 l 1
 1395 0 l 1
 852 0 l 1
 875 74 l 1
 1049 121 l 1
 1123 591 l 1
 494 590 l 1
 419 114 l 1
 599 81 l 1
 573 0 l 1
EndSplineSet
EndChar

StartChar: I
Encoding: 73 73 358
Width: 601
VWidth: 1691
Flags: W
HStem: 0 81<51 83.095 555.652 571> 1168 76<230 268.416 686.979 753>
DStem2: 226 121 418 114 0.155563 0.987826<22.9533 1017.5>
LayerCount: 3
Fore
SplineSet
571 0 m 1
 31 0 l 1
 51 74 l 1
 226 121 l 1
 385 1126 l 1
 208 1168 l 1
 230 1244 l 1
 775 1244 l 5
 753 1168 l 1
 578 1130 l 1
 418 114 l 1
 595 81 l 1
 571 0 l 1
EndSplineSet
EndChar

StartChar: J
Encoding: 74 74 359
Width: 592
VWidth: 1691
Flags: W
HStem: 1168 76<230 269.733 688.979 755>
DStem2: 236 197 459 385 0.158364 0.987381<-145.626 940.873>
LayerCount: 3
Fore
SplineSet
-26 -325 m 1
 -43 -302 -60 -269 -68 -238 c 1
 110 -91 211 37 236 197 c 2
 385 1126 l 1
 210 1168 l 1
 230 1244 l 1
 775 1244 l 1
 755 1168 l 1
 580 1130 l 1
 459 385 l 2
 391 -25 291 -137 -26 -325 c 1
EndSplineSet
EndChar

StartChar: K
Encoding: 75 75 360
Width: 1228
VWidth: 1691
Flags: W
HStem: -21 21G<1003.5 1107.5> 0 81<46 73.8157 571.95 578> 1168 76<226 253.183 700.401 755 875 902.583 1293.18 1349>
DStem2: 228 129 421 124 0.153621 0.98813<24.7082 1001.07> 1011 1121 720 654 0.69066 0.72318<-538.707 0>
LayerCount: 3
Fore
SplineSet
728 261 m 2xa0
 593 509 l 1
 593 509 549 579 524 604 c 1
 528 629 l 1
 564 654 616 696 656 737 c 2
 1011 1121 l 1
 855 1168 l 1
 875 1244 l 1
 1372 1244 l 1
 1349 1168 l 1
 1166 1121 l 1
 720 654 l 1
 905 385 l 2
 1029 205 1086 123 1207 83 c 2
 1242 71 l 1
 1220 2 l 1
 1172 -15 1128 -21 1087 -21 c 0
 920 -21 816 102 728 261 c 2xa0
421 124 m 1
 603 81 l 1
 578 0 l 1
 25 0 l 1x60
 46 74 l 1
 228 129 l 1
 383 1118 l 1
 201 1168 l 1
 226 1244 l 1
 776 1244 l 1
 755 1168 l 1
 576 1121 l 1
 421 124 l 1
EndSplineSet
EndChar

StartChar: L
Encoding: 76 76 361
Width: 1065
VWidth: 1691
Flags: W
HStem: 0 96<421 864> 0 74<58 111.379> 1168 76<233 260.183 706.706 761>
DStem2: 233 121 421 96 0.156111 0.98774<4.65539 1009.29>
LayerCount: 3
Fore
SplineSet
783 1244 m 1x60
 761 1168 l 1
 583 1121 l 1
 421 96 l 1
 864 96 l 1xa0
 1032 344 l 1
 1116 330 l 1
 1027 0 l 1
 38 0 l 1
 58 74 l 1
 233 121 l 1
 390 1118 l 1
 208 1168 l 1
 233 1244 l 1
 783 1244 l 1x60
EndSplineSet
EndChar

StartChar: M
Encoding: 77 77 362
Width: 1664
VWidth: 1691
Flags: W
HStem: 0 81<35 67.095 478.985 492 1140 1171.73 1635.65 1651> 1168 76<286 323.757 1713.36 1779>
DStem2: 210 121 339 114 0.22401 0.974587<22.0751 896.777> 735 1050 537 966 0.20717 -0.978305<41.1579 754.964> 880 309 862 51 0.487431 0.873161<0 857.387> 1313 121 1498 114 0.104736 0.9945<12.4146 886.627>
LayerCount: 3
Fore
SplineSet
735 31 m 1
 537 966 l 1
 339 114 l 1
 519 81 l 1
 492 0 l 1
 12 0 l 1
 35 74 l 1
 210 121 l 1
 441 1126 l 1
 263 1168 l 1
 286 1244 l 1
 685 1244 l 1
 735 1050 l 1
 880 309 l 1
 1311 1083 l 1
 1405 1244 l 1
 1800 1244 l 1
 1779 1168 l 1
 1605 1130 l 1
 1498 114 l 1
 1675 81 l 1
 1651 0 l 1
 1116 0 l 1
 1140 74 l 1
 1313 121 l 1
 1394 1004 l 1
 862 51 l 1
 735 31 l 1
EndSplineSet
EndChar

StartChar: N
Encoding: 78 78 363
Width: 1337
VWidth: 1691
Flags: W
HStem: -30 21G<980.808 1091> 0 81<51 83.095 490.43 507> 1168 76<230 258.176 1050 1088.44 1436.11 1501>
DStem2: 226 121 352 114 0.155556 0.987827<12.6852 870.219> 581 1244 486 961 0.454034 -0.890985<209.015 1088.97> 1072 272 1151 2 0.155873 0.987777<0 864.604>
LayerCount: 3
Fore
SplineSet
991 -30 m 1
 486 961 l 1
 352 114 l 1
 530 81 l 1
 507 0 l 1
 31 0 l 1
 51 74 l 1
 226 121 l 1
 383 1118 l 1
 208 1168 l 1
 230 1244 l 1
 581 1244 l 1
 1072 272 l 1
 1207 1126 l 1
 1027 1168 l 1
 1050 1244 l 1
 1526 1244 l 1
 1501 1168 l 1
 1329 1130 l 1
 1151 2 l 1
 991 -30 l 1
EndSplineSet
EndChar

StartChar: O
Encoding: 79 79 364
Width: 1322
VWidth: 1691
Flags: W
HStem: -26 105<538.753 886.167> 1176 97<627.793 983.895>
VStem: 139 229<283.149 786.531> 1158 224<466.869 955.854>
LayerCount: 3
Fore
SplineSet
832 1176 m 0
 416 1176 363 773 368 527 c 0
 373 294 461 79 689 79 c 0
 1100 79 1161 487 1158 713 c 0
 1153 946 1062 1176 832 1176 c 0
1382 737 m 0
 1389 339 1094 -26 623 -26 c 0
 322 -26 144 204 139 505 c 0
 131 943 443 1273 897 1273 c 0
 1209 1273 1377 1029 1382 737 c 0
EndSplineSet
EndChar

StartChar: P
Encoding: 80 80 365
Width: 1009
VWidth: 1691
Flags: W
HStem: 0 74<45 98.6837 573.605 616> 490 91<537 796.345> 1135 76<231 288.848> 1173 82<577.101 843.377>
VStem: 950 214<766.75 1069.14>
DStem2: 221 121 413 122 0.153973 0.988075<30.551 995.978>
LayerCount: 3
Fore
SplineSet
1164 956 m 0xd8
 1169 680 919 490 651 490 c 0
 615 490 577 494 537 499 c 1
 530 581 l 1
 583 581 l 2
 836 581 953 704 950 917 c 0
 947 1056 869 1173 684 1173 c 0xd8
 643 1173 576 1168 576 1168 c 1
 413 122 l 1
 642 84 l 1
 616 0 l 1
 23 0 l 1
 45 74 l 1
 221 121 l 1
 375 1105 l 1
 210 1135 l 1
 231 1211 l 1xe8
 363 1231 545 1255 715 1255 c 0
 950 1255 1159 1194 1164 956 c 0xd8
EndSplineSet
EndChar

StartChar: Q
Encoding: 81 81 366
Width: 1334
VWidth: 1691
Flags: W
HStem: -26 21G<485.5 643.5> 1168 105<660.735 994.207>
VStem: 149 213<324.383 766.237> 1194 216<483.011 913.485>
LayerCount: 3
Fore
SplineSet
849 1168 m 0
 548 1168 355 933 362 560 c 0
 365 345 455 86 761 68 c 1
 1146 162 1197 462 1194 680 c 0
 1189 928 1072 1168 849 1168 c 0
700 -21 m 1
 690 -24 651 -26 636 -26 c 0
 335 -26 154 194 149 495 c 0
 141 934 474 1273 922 1273 c 0
 1232 1273 1405 1037 1410 743 c 0
 1417 396 1179 77 819 -7 c 1
 855 -142 930 -228 1211 -276 c 1
 1206 -301 1197 -332 1187 -350 c 1
 1119 -380 1060 -385 1004 -385 c 0
 822 -385 682 -249 700 -21 c 1
EndSplineSet
EndChar

StartChar: R
Encoding: 82 82 367
Width: 1213
VWidth: 1691
Flags: W
HStem: -21 21G<998.5 1097> 0 74<45 98.6837 545.375 571> 537 91<490 651> 1131 76<231 290.556> 1169 84<574.749 838.05>
VStem: 935 214<824.705 1077.04>
DStem2: 221 121 415 126 0.153273 0.988184<34.6759 450.322 542.24 993.012>
LayerCount: 3
Fore
SplineSet
1149 988 m 0x2c
 1152 833 1027 675 806 599 c 1
 808 598 l 1
 946 348 l 2
 1038 186 1080 118 1197 78 c 2
 1227 68 l 1
 1202 -2 l 1
 1157 -17 1116 -21 1078 -21 c 0xac
 919 -21 830 98 766 253 c 2
 651 537 l 1
 477 537 l 1
 415 126 l 1
 595 83 l 1
 571 0 l 1
 23 0 l 1
 45 74 l 1
 221 121 l 1
 375 1102 l 1
 208 1131 l 1
 231 1207 l 1x74
 381 1230 546 1253 695 1253 c 0
 963 1253 1146 1181 1149 988 c 0x2c
656 628 m 2
 790 628 938 756 935 933 c 0
 933 1068 851 1169 699 1169 c 0
 628 1169 576 1164 576 1164 c 1
 490 628 l 1
 656 628 l 2
EndSplineSet
EndChar

StartChar: S
Encoding: 83 83 368
Width: 863
VWidth: 1691
Flags: W
HStem: -25 103<277.376 575.535> 1184 86<474.592 722.088>
VStem: 121 99<322.596 375> 211 185<860.547 1047.54> 690 197<226.859 414.499> 760 97<898 1076.26>
LayerCount: 3
Fore
SplineSet
857 887 m 1xd4
 760 898 l 1
 763 1090 l 1
 756 1118 693 1184 609 1184 c 0
 495 1184 393 1112 396 968 c 0xd4
 401 725 882 714 887 400 c 0
 892 147 628 -25 377 -25 c 0
 233 -25 105 41 64 122 c 1
 121 390 l 1
 220 375 l 1
 226 187 l 1
 254 123 319 78 416 78 c 0
 532 78 693 149 690 312 c 0xe8
 687 535 216 556 211 870 c 0
 206 1121 439 1270 657 1270 c 0
 745 1270 857 1247 923 1169 c 1
 921 1161 857 887 857 887 c 1xd4
EndSplineSet
EndChar

StartChar: T
Encoding: 84 84 369
Width: 1119
VWidth: 1691
Flags: W
HStem: 0 81<301 333.278 806.208 819> 1153 91<344 639 831 1135>
VStem: 1138 92<922 963.177>
DStem2: 477 121 667 114 0.155914 0.987771<22.7092 1044.64>
LayerCount: 3
Fore
SplineSet
205 1244 m 1
 1316 1244 l 1
 1230 907 l 1
 1138 922 l 1
 1135 1153 l 1
 831 1153 l 1
 667 114 l 1
 846 81 l 1
 819 0 l 1
 279 0 l 1
 301 74 l 1
 477 121 l 1
 639 1153 l 1
 344 1153 l 1
 253 910 l 1
 163 923 l 1
 205 1244 l 1
EndSplineSet
EndChar

StartChar: U
Encoding: 85 85 370
Width: 1369
VWidth: 1691
Flags: W
HStem: -26 118<568.834 923.511> 1168 76<215 253.44 670.979 737 1082 1121.73 1473.73 1539>
DStem2: 268 469 462 494 0.156349 0.987702<-169.493 665.18> 1135 481 1262 499 0.156198 0.987726<-229.303 653.015>
LayerCount: 3
Fore
SplineSet
748 92 m 0
 1049 92 1110 326 1135 481 c 2
 1237 1126 l 1
 1062 1168 l 1
 1082 1244 l 1
 1561 1244 l 1
 1539 1168 l 1
 1366 1130 l 1
 1262 499 l 2
 1198 114 969 -26 662 -26 c 0
 474 -26 202 48 268 469 c 2
 372 1126 l 1
 192 1168 l 1
 215 1244 l 1
 756 1244 l 1
 737 1168 l 1
 562 1130 l 1
 462 494 l 2
 417 208 543 92 748 92 c 0
EndSplineSet
EndChar

StartChar: V
Encoding: 86 86 371
Width: 1284
VWidth: 1691
Flags: W
HStem: -25 21G<558.847 666.333> 1168 76<206 232.445 656.356 722 1022 1062.42 1407.07 1458>
DStem2: 548 1130 324 1126 0.203309 -0.979115<0 896.018> 722 251 718 5 0.473633 0.880722<0 987.082>
LayerCount: 3
Fore
SplineSet
563 -25 m 1
 324 1126 l 1
 185 1168 l 1
 206 1244 l 1
 743 1244 l 1
 722 1168 l 1
 548 1130 l 1
 722 251 l 1
 1179 1126 l 1
 1002 1168 l 1
 1022 1244 l 1
 1478 1244 l 1
 1458 1168 l 1
 1323 1130 l 1
 718 5 l 1
 563 -25 l 1
EndSplineSet
EndChar

StartChar: W
Encoding: 87 87 372
Width: 1844
VWidth: 1691
Flags: W
HStem: -25 21G<468.446 581 1176.97 1285> 1168 76<211 237.056 634.733 700 1582 1618.73 1960.09 2008>
DStem2: 527 1130 324 1126 0.126686 -0.991943<0 864.642> 634 272 636 5 0.424875 0.905252<0 804.16> 1249 1219 1080 951 0.100917 -0.994895<249.577 936.526> 1341 287 1338 5 0.434682 0.900584<0 926.42>
LayerCount: 3
Fore
SplineSet
1179 -25 m 1
 1080 951 l 1
 636 5 l 1
 471 -25 l 1
 324 1126 l 1
 192 1168 l 1
 211 1244 l 1
 725 1244 l 1
 700 1168 l 1
 527 1130 l 1
 634 272 l 1
 1068 1194 l 1
 1249 1219 l 1
 1341 287 l 1
 1734 1126 l 1
 1559 1168 l 1
 1582 1244 l 1
 2031 1244 l 1
 2008 1168 l 1
 1881 1130 l 1
 1338 5 l 1
 1179 -25 l 1
EndSplineSet
EndChar

StartChar: X
Encoding: 88 88 373
Width: 1202
VWidth: 1691
Flags: W
HStem: 0 81<444.652 461 692 724.095 1177.21 1181> 1168 76<691.706 746 930 968.781 1312.2 1362>
DStem2: 162 121 307 114 0.677611 0.73542<93.1057 636.42 859.932 1366.57> 568 1121 345 1118 0.448278 -0.893894<0 422.168 579.374 737.676 870.324 1027.93>
LayerCount: 3
Fore
SplineSet
816 651 m 1
 1073 114 l 1
 1207 81 l 1
 1181 0 l 1
 667 0 l 1
 692 74 l 1
 867 121 l 1
 666 522 l 1
 307 114 l 1
 484 81 l 1
 461 0 l 1
 8 0 l 1
 33 74 l 1
 162 121 l 1
 604 608 l 1
 345 1118 l 1
 220 1168 l 1
 243 1244 l 1
 770 1244 l 1
 746 1168 l 1
 568 1121 l 1
 756 743 l 1
 1088 1126 l 1
 907 1168 l 1
 930 1244 l 1
 1382 1244 l 1
 1362 1168 l 1
 1230 1130 l 1
 816 651 l 1
EndSplineSet
EndChar

StartChar: Y
Encoding: 89 89 374
Width: 1210
VWidth: 1691
Flags: W
HStem: 0 81<383 412.161 856.654 869> 1168 76<239 259.373 661.506 723 945 983.416 1318.71 1367>
DStem2: 560 1130 345 1126 0.383665 -0.923472<0 528.311> 542 121 733 114 0.155105 0.987898<22.7097 388.814> 760 641 798 528 0.590957 0.806703<0 592.176>
LayerCount: 3
Fore
SplineSet
798 528 m 1
 733 114 l 1
 892 81 l 1
 869 0 l 1
 362 0 l 1
 383 74 l 1
 542 121 l 1
 603 505 l 1
 345 1126 l 1
 215 1168 l 1
 239 1244 l 1
 746 1244 l 1
 723 1168 l 1
 560 1130 l 1
 760 641 l 1
 1100 1126 l 1
 923 1168 l 1
 945 1244 l 1
 1389 1244 l 1
 1367 1168 l 1
 1239 1130 l 1
 798 528 l 1
EndSplineSet
EndChar

StartChar: Z
Encoding: 90 90 375
Width: 1009
VWidth: 1691
Flags: W
HStem: 0 101<231 801> 1149 95<390 926>
DStem2: 17 104 231 101 0.657855 0.753145<138.521 1385.03>
LayerCount: 3
Fore
SplineSet
246 1244 m 1
 1174 1244 l 1
 1163 1168 l 1
 231 101 l 1
 801 101 l 1
 963 350 l 1
 1054 335 l 1
 945 0 l 1
 8 0 l 1
 17 104 l 1
 926 1149 l 1
 390 1149 l 1
 272 903 l 1
 185 922 l 1
 246 1244 l 1
EndSplineSet
EndChar

StartChar: zero
Encoding: 48 48 376
Width: 982
VWidth: 1651
Flags: W
HStem: -26 99<398.839 655.651> 1075 98<504.024 751.951>
VStem: 154 163<188.489 744.973> 829 162<389.742 963.506>
LayerCount: 3
Fore
SplineSet
317 411 m 0
 317 292 335 205 370 152 c 0
 405 99 451 73 510 73 c 0
 551 73 593 82 631 102 c 0
 669 122 703 158 733 208 c 0
 763 258 785 324 803 410 c 0
 821 496 829 603 829 733 c 0
 829 840 814 925 784 984 c 0
 754 1043 710 1075 649 1075 c 0
 601 1075 558 1063 522 1042 c 0
 486 1021 458 991 433 955 c 0
 408 919 388 878 373 832 c 0
 358 786 345 737 337 687 c 0
 329 637 323 590 320 542 c 0
 317 494 317 451 317 411 c 0
991 699 m 0
 991 580 976 476 945 385 c 0
 914 294 874 220 826 159 c 0
 778 98 726 51 667 20 c 0
 608 -11 549 -26 495 -26 c 0
 447 -26 403 -17 362 3 c 0
 321 23 284 52 253 92 c 0
 222 132 198 180 180 239 c 0
 162 298 154 369 154 448 c 0
 154 557 168 656 198 745 c 0
 228 834 266 911 314 974 c 0
 362 1037 417 1085 476 1120 c 0
 535 1155 598 1173 659 1173 c 0
 710 1173 755 1161 796 1140 c 0
 837 1119 872 1086 902 1045 c 0
 932 1004 953 955 968 897 c 0
 983 839 991 773 991 699 c 0
EndSplineSet
EndChar

StartChar: one
Encoding: 49 49 377
Width: 982
VWidth: 1651
Flags: W
HStem: 0 73<149 240.881 761.534 841> 1006 76<309 388.623>
DStem2: 431 117 599 111 0.139298 0.99025<17.4606 897.884>
LayerCount: 3
Fore
SplineSet
599 111 m 1
 860 81 l 1
 841 2 l 1
 130 0 l 1
 149 73 l 1
 431 117 l 1
 557 1006 l 1
 292 1006 l 1
 309 1082 l 1
 720 1156 l 1
 746 1156 l 1
 599 111 l 1
EndSplineSet
EndChar

StartChar: two
Encoding: 50 50 378
Width: 982
VWidth: 1651
Flags: W
HStem: 2 133<296 750> 1049 132<512.271 731.417>
VStem: 779 182<719.325 1001.62>
DStem2: 363 302 381 208 0.789874 0.613269<-155.337 450.145>
LayerCount: 3
Fore
SplineSet
94 2 m 1
 102 102 l 1
 363 302 l 2
 434 356 435 357 509 418 c 0
 559 459 604 502 644 548 c 0
 684 594 717 643 742 694 c 0
 767 745 779 799 779 857 c 0
 779 883 777 908 770 931 c 0
 763 954 755 975 742 993 c 0
 729 1011 710 1024 689 1034 c 0
 668 1044 639 1049 606 1049 c 0
 571 1049 542 1041 512 1026 c 0
 482 1011 456 991 433 966 c 0
 410 941 387 915 367 885 c 0
 347 855 330 827 315 799 c 1
 239 829 l 1
 254 870 277 912 307 953 c 0
 337 994 370 1032 410 1067 c 0
 450 1102 492 1128 538 1149 c 0
 584 1170 633 1181 684 1181 c 0
 778 1181 846 1158 892 1110 c 0
 938 1062 961 995 961 907 c 0
 961 826 939 753 898 685 c 0
 857 617 805 557 746 499 c 0
 687 441 621 388 555 340 c 0
 489 292 431 249 381 208 c 2
 296 135 l 1
 750 135 l 1
 867 306 l 1
 935 296 l 1
 839 0 l 1
 94 2 l 1
EndSplineSet
EndChar

StartChar: three
Encoding: 51 51 379
Width: 982
VWidth: 1651
Flags: W
HStem: -30 86<323.074 581.164> 540 64<408 486.788> 1055 129<490.416 694.113>
VStem: 119 139<118.594 174.637> 689 181<213.564 439.397> 727 181<810.117 1022.25>
LayerCount: 3
Fore
SplineSet
258 208 m 1xf8
 258 198 263 185 271 168 c 0
 279 151 289 134 304 117 c 0
 319 100 337 86 357 74 c 0
 377 62 398 56 421 56 c 0
 482 56 529 66 565 86 c 0
 601 106 629 131 647 159 c 0
 665 187 675 215 680 243 c 0
 685 271 689 293 689 310 c 0xf8
 689 336 682 363 670 391 c 0
 658 419 644 445 621 466 c 0
 598 487 570 506 537 519 c 0
 504 532 465 540 424 540 c 2
 408 540 l 1
 408 604 l 1
 415 606 428 611 446 618 c 0
 464 625 486 635 509 647 c 0
 532 659 558 673 583 690 c 0
 608 707 633 727 654 750 c 0
 675 773 694 796 707 822 c 0
 720 848 727 880 727 913 c 0
 727 931 725 947 720 964 c 0
 715 981 706 998 694 1011 c 0
 682 1024 667 1036 649 1044 c 0
 631 1052 608 1055 580 1055 c 0
 527 1055 484 1040 451 1014 c 0
 418 988 388 952 363 907 c 1
 294 931 l 1
 302 957 317 984 340 1014 c 0
 363 1044 390 1072 423 1097 c 0
 456 1122 492 1142 532 1159 c 0
 572 1176 614 1184 657 1184 c 0
 692 1184 724 1180 755 1168 c 0
 786 1156 813 1143 836 1123 c 0
 859 1103 875 1080 888 1054 c 0
 901 1028 908 995 908 964 c 0xf4
 908 921 902 884 885 849 c 0
 868 814 847 784 822 758 c 0
 797 732 768 710 735 690 c 0
 702 670 669 654 634 642 c 1
 633 631 l 1
 673 626 707 615 737 598 c 0
 767 581 791 561 811 538 c 0
 831 515 845 490 855 462 c 0
 865 434 870 405 870 377 c 0
 870 323 857 270 829 220 c 0
 801 170 764 125 718 89 c 0
 672 53 618 24 555 3 c 0
 492 -18 427 -30 358 -30 c 0
 317 -30 283 -26 253 -18 c 0
 223 -10 198 0 178 12 c 0
 158 24 144 38 134 53 c 0
 124 68 119 84 119 99 c 0
 119 124 130 147 155 168 c 0
 180 189 215 203 258 208 c 1xf8
EndSplineSet
EndChar

StartChar: four
Encoding: 52 52 380
Width: 982
VWidth: 1651
Flags: W
HStem: -12 21G<534.944 656.444> 348 119<269 585 763 976>
DStem2: 97 421 269 467 0.689388 0.724392<151.897 724.348> 532 -12 700 15 0.144111 0.989562<50.9288 363.88 507.29 908.619>
LayerCount: 3
Fore
SplineSet
585 348 m 1
 109 348 l 1
 97 421 l 1
 806 1166 l 1
 865 1148 l 1
 860 1120 856 1086 849 1050 c 0
 839 994 839 994 829 931 c 0
 819 868 819 869 809 801 c 0
 802 756 796 712 791 667 c 2
 763 467 l 1
 1009 467 l 1
 976 345 l 1
 745 345 l 1
 700 15 l 1
 532 -12 l 1
 585 348 l 1
657 888 m 1
 269 467 l 1
 598 467 l 1
 657 888 l 1
EndSplineSet
EndChar

StartChar: five
Encoding: 53 53 381
Width: 982
VWidth: 1651
Flags: W
HStem: -48 89<270.195 486.436>
VStem: 740 188<251.686 501.344>
DStem2: 327 644 471 784 0.365247 0.930911<182.923 411.157> 522 1141 553 997 0.997963 0.0637967<21.7501 384.225>
LayerCount: 3
Fore
SplineSet
266 41 m 1
 416 56 531 91 614 145 c 0
 697 199 740 270 740 358 c 0
 740 441 708 505 644 555 c 0
 580 605 474 634 327 644 c 1
 522 1141 l 1
 960 1169 l 1
 915 1016 l 1
 553 997 l 1
 471 784 l 1
 545 779 611 768 669 748 c 0
 727 728 775 701 813 670 c 0
 851 639 878 605 898 562 c 0
 918 519 928 473 928 423 c 0
 928 369 914 314 888 261 c 0
 862 208 823 159 770 116 c 0
 717 73 648 37 565 7 c 0
 482 -23 385 -41 271 -48 c 1
 266 41 l 1
EndSplineSet
EndChar

StartChar: six
Encoding: 54 54 382
Width: 982
VWidth: 1651
Flags: W
HStem: -21 80<419.155 644.255> 591 101<474.4 680.845>
VStem: 165 182<134.277 523.045> 748 182<217.95 521.394>
LayerCount: 3
Fore
SplineSet
398 595 m 1
 411 608 428 619 446 631 c 0
 464 643 486 654 509 662 c 0
 532 670 555 679 580 684 c 0
 605 689 631 692 657 692 c 0
 700 692 740 684 773 667 c 0
 806 650 836 626 859 598 c 0
 882 570 900 538 912 502 c 0
 924 466 930 426 930 386 c 0
 930 332 917 280 892 230 c 0
 867 180 834 135 793 99 c 0
 752 63 704 33 651 12 c 0
 598 -9 542 -21 484 -21 c 256
 426 -21 377 -13 337 7 c 0
 297 27 264 53 238 84 c 0
 212 115 194 154 182 197 c 0
 170 240 165 286 165 334 c 0
 165 395 175 454 193 515 c 0
 211 576 238 634 271 692 c 0
 304 750 345 804 390 855 c 0
 435 906 482 954 535 997 c 0
 588 1040 642 1079 700 1110 c 0
 758 1141 816 1168 874 1186 c 1
 902 1130 l 1
 834 1100 773 1065 717 1024 c 0
 661 983 611 940 568 892 c 0
 525 844 489 794 459 743 c 0
 429 692 405 643 388 595 c 1
 398 595 l 1
504 59 m 0
 555 59 597 70 628 88 c 0
 659 106 686 130 704 160 c 0
 722 190 733 222 740 258 c 0
 747 294 748 329 748 362 c 0
 748 390 744 418 737 446 c 0
 730 474 720 498 705 519 c 0
 690 540 672 558 651 571 c 0
 630 584 603 591 573 591 c 0
 555 591 535 590 515 585 c 0
 495 580 475 574 457 566 c 0
 439 558 421 550 406 542 c 0
 391 534 382 523 375 515 c 1
 370 494 364 465 357 434 c 0
 350 403 347 370 347 335 c 0
 347 300 350 266 357 233 c 0
 364 200 373 171 386 145 c 0
 399 119 416 98 436 83 c 0
 456 68 479 59 504 59 c 0
EndSplineSet
EndChar

StartChar: seven
Encoding: 55 55 383
Width: 982
VWidth: 1651
Flags: W
HStem: -33 21G<427.333 496.194> 1006 148<390 892>
DStem2: 398 -3 486 -33 0.454102 0.89095<13.2325 1123.29>
LayerCount: 3
Fore
SplineSet
390 1006 m 1
 320 872 l 1
 254 885 l 1
 315 1154 l 1
 1070 1154 l 1
 1065 1103 l 1
 486 -33 l 1
 398 -3 l 1
 892 1006 l 1
 390 1006 l 1
EndSplineSet
EndChar

StartChar: eight
Encoding: 56 56 384
Width: 982
VWidth: 1651
Flags: W
HStem: -26 90<397.084 668.871> 1098 75<519.799 729.217>
VStem: 159 165<139.839 383.069> 286 157<789.389 984.809> 740 163<170.444 375.358> 789 146<784.206 1044.27>
LayerCount: 3
Fore
SplineSet
494 542 m 1xe8
 463 517 463 517 433 492 c 0
 413 475 394 458 377 438 c 0
 360 418 349 394 339 368 c 0
 329 342 324 310 324 274 c 0
 324 248 327 222 337 197 c 0
 347 172 360 149 377 129 c 0
 394 109 412 95 433 83 c 0
 454 71 477 64 502 64 c 0
 586 64 646 84 684 122 c 0
 722 160 740 209 740 272 c 0
 740 297 733 321 718 344 c 0
 703 367 685 392 662 413 c 0
 639 434 615 458 585 479 c 0
 542 512 540 511 494 542 c 1xe8
159 236 m 0
 159 304 183 365 231 419 c 0
 279 473 349 525 443 576 c 1
 444 585 l 1
 429 595 411 607 393 624 c 0
 375 641 357 659 340 680 c 0
 323 701 311 727 301 753 c 0
 291 779 286 806 286 836 c 0
 286 879 296 921 317 961 c 0
 338 1001 365 1036 400 1067 c 0
 435 1098 476 1123 522 1143 c 0
 568 1163 616 1173 667 1173 c 0
 710 1173 748 1166 781 1153 c 0
 814 1140 842 1124 865 1103 c 0
 888 1082 905 1055 917 1027 c 0
 929 999 935 968 935 935 c 0xd4
 935 904 929 870 917 839 c 0
 905 808 889 779 869 751 c 0
 849 723 824 700 796 679 c 0
 768 658 738 643 707 631 c 1
 704 621 l 1
 763 580 813 534 849 484 c 0
 885 434 903 381 903 327 c 0
 903 281 893 238 872 195 c 0
 851 152 819 114 779 81 c 0
 739 48 692 23 636 3 c 0
 580 -17 517 -26 446 -26 c 0
 405 -26 367 -20 332 -8 c 0
 297 4 266 20 241 43 c 0
 216 66 197 93 182 126 c 0
 167 159 159 195 159 236 c 0
646 661 m 1
 671 674 692 689 710 704 c 0
 728 719 743 736 755 756 c 0
 767 776 776 797 781 822 c 0
 786 847 789 876 789 907 c 0
 789 965 775 1010 745 1045 c 0
 715 1080 678 1098 633 1098 c 0
 602 1098 575 1092 552 1080 c 0
 529 1068 509 1055 492 1037 c 0
 475 1019 464 999 456 978 c 0
 448 957 443 934 443 913 c 0
 443 863 461 817 499 776 c 0
 537 735 587 697 646 661 c 1
EndSplineSet
EndChar

StartChar: nine
Encoding: 57 57 385
Width: 982
VWidth: 1651
Flags: W
HStem: -26 21G<262.389 318> 456 106<455.688 663.863> 1103 79<504.367 728.552>
VStem: 220 168<632.812 919.234> 806 172<641.028 1021.88>
LayerCount: 3
Fore
SplineSet
745 562 m 1
 730 545 713 530 692 517 c 0
 671 504 649 492 626 484 c 0
 603 476 580 467 555 462 c 0
 530 457 508 456 487 456 c 0
 444 456 406 464 373 479 c 0
 340 494 312 512 289 538 c 0
 266 564 250 596 238 631 c 0
 226 666 220 702 220 740 c 0
 220 801 235 859 261 912 c 0
 287 965 322 1010 365 1050 c 0
 408 1090 456 1123 509 1146 c 0
 562 1169 611 1182 662 1182 c 0
 718 1182 766 1173 806 1153 c 0
 846 1133 878 1106 903 1073 c 0
 928 1040 948 1003 960 958 c 0
 972 913 978 867 978 819 c 0
 978 718 960 621 925 527 c 0
 890 433 842 348 779 272 c 0
 716 196 643 132 555 79 c 0
 467 26 370 -8 266 -26 c 1
 253 46 l 1
 336 71 406 99 464 134 c 0
 522 169 571 208 611 251 c 0
 651 294 684 340 707 393 c 0
 730 446 748 503 761 562 c 1
 745 562 l 1
644 1103 m 0
 599 1103 561 1095 528 1078 c 0
 495 1061 470 1039 449 1011 c 0
 428 983 413 950 403 912 c 0
 393 874 388 833 388 788 c 0
 388 758 392 730 400 704 c 0
 408 678 419 652 434 631 c 0
 449 610 469 594 492 581 c 0
 515 568 542 562 573 562 c 0
 590 562 608 563 628 568 c 0
 648 573 667 578 685 585 c 0
 703 592 722 601 737 611 c 0
 752 621 765 634 775 647 c 1
 783 668 789 693 796 723 c 0
 803 753 806 791 806 837 c 0
 806 872 802 905 794 938 c 0
 786 971 776 997 761 1022 c 0
 746 1047 730 1065 710 1080 c 0
 690 1095 669 1103 644 1103 c 0
EndSplineSet
EndChar
